<svg width="17" height="9" viewBox="0 0 17 9" fill="none" xmlns="http://www.w3.org/2000/svg">
<path d="M3.03418 8.966C2.39213 8.966 1.84526 8.79128 1.39355 8.44185C0.94185 8.08958 0.59668 7.57963 0.358043 6.91202C0.119407 6.24157 8.88109e-05 5.43191 8.88109e-05 4.48304C8.88109e-05 3.53986 0.119407 2.73446 0.358043 2.06685C0.599521 1.3964 0.946112 0.885032 1.39782 0.532759C1.85236 0.177645 2.39782 8.84533e-05 3.03418 8.84533e-05C3.67054 8.84533e-05 4.21458 0.177645 4.66628 0.532759C5.12083 0.885032 5.46742 1.3964 5.70605 2.06685C5.94753 2.73446 6.06827 3.53986 6.06827 4.48304C6.06827 5.43191 5.94895 6.24157 5.71032 6.91202C5.47168 7.57963 5.12651 8.08958 4.6748 8.44185C4.2231 8.79128 3.67623 8.966 3.03418 8.966ZM3.03418 8.0285C3.67054 8.0285 4.16486 7.72168 4.51713 7.10804C4.86941 6.49441 5.04554 5.61941 5.04554 4.48304C5.04554 3.72736 4.96458 3.0839 4.80265 2.55265C4.64355 2.0214 4.41344 1.61657 4.1123 1.33816C3.81401 1.05975 3.45463 0.920543 3.03418 0.920543C2.4035 0.920543 1.9106 1.23162 1.55549 1.85378C1.20037 2.4731 1.02282 3.34952 1.02282 4.48304C1.02282 5.23872 1.10236 5.88077 1.26145 6.40918C1.42054 6.93759 1.64924 7.33958 1.94753 7.61515C2.24867 7.89071 2.61088 8.0285 3.03418 8.0285ZM8.1329 8.91486C7.92267 8.91486 7.74228 8.83958 7.59171 8.68901C7.44114 8.53844 7.36586 8.35804 7.36586 8.14782C7.36586 7.93759 7.44114 7.75719 7.59171 7.60662C7.74228 7.45605 7.92267 7.38077 8.1329 7.38077C8.34313 7.38077 8.52353 7.45605 8.67409 7.60662C8.82466 7.75719 8.89995 7.93759 8.89995 8.14782C8.89995 8.28702 8.86444 8.41486 8.79341 8.53134C8.72523 8.64782 8.6329 8.74157 8.51642 8.81259C8.40279 8.88077 8.27495 8.91486 8.1329 8.91486ZM13.2295 8.966C12.5874 8.966 12.0406 8.79128 11.5889 8.44185C11.1372 8.08958 10.792 7.57963 10.5534 6.91202C10.3147 6.24157 10.1954 5.43191 10.1954 4.48304C10.1954 3.53986 10.3147 2.73446 10.5534 2.06685C10.7948 1.3964 11.1414 0.885032 11.5931 0.532759C12.0477 0.177645 12.5931 8.84533e-05 13.2295 8.84533e-05C13.8659 8.84533e-05 14.4099 0.177645 14.8616 0.532759C15.3161 0.885032 15.6627 1.3964 15.9014 2.06685C16.1428 2.73446 16.2636 3.53986 16.2636 4.48304C16.2636 5.43191 16.1443 6.24157 15.9056 6.91202C15.667 7.57963 15.3218 8.08958 14.8701 8.44185C14.4184 8.79128 13.8715 8.966 13.2295 8.966ZM13.2295 8.0285C13.8659 8.0285 14.3602 7.72168 14.7124 7.10804C15.0647 6.49441 15.2409 5.61941 15.2409 4.48304C15.2409 3.72736 15.1599 3.0839 14.998 2.55265C14.8389 2.0214 14.6088 1.61657 14.3076 1.33816C14.0093 1.05975 13.6499 0.920543 13.2295 0.920543C12.5988 0.920543 12.1059 1.23162 11.7508 1.85378C11.3957 2.4731 11.2181 3.34952 11.2181 4.48304C11.2181 5.23872 11.2977 5.88077 11.4568 6.40918C11.6159 6.93759 11.8445 7.33958 12.1428 7.61515C12.444 7.89071 12.8062 8.0285 13.2295 8.0285Z" fill="#0000EE"/>
</svg>
