<svg width="21" height="9" viewBox="0 0 21 9" fill="none" xmlns="http://www.w3.org/2000/svg">
<path d="M-0.00035511 6.93777V6.06845L3.83487 0.000266075H4.46555V1.34686H4.03942L1.14169 5.93208V6.00027H6.30646V6.93777H-0.00035511ZM4.1076 8.72754V6.67356V6.26873V0.000266075H5.11328V8.72754H4.1076ZM7.69886 6.93777V6.06845L11.5341 0.000266075H12.1648V1.34686H11.7386L8.84091 5.93208V6.00027H14.0057V6.93777H7.69886ZM11.8068 8.72754V6.67356V6.26873V0.000266075H12.8125V8.72754H11.8068ZM15.9425 8.79572C15.7322 8.79572 15.5518 8.72044 15.4013 8.56987C15.2507 8.4193 15.1754 8.2389 15.1754 8.02868C15.1754 7.81845 15.2507 7.63805 15.4013 7.48748C15.5518 7.33691 15.7322 7.26163 15.9425 7.26163C16.1527 7.26163 16.3331 7.33691 16.4837 7.48748C16.6342 7.63805 16.7095 7.81845 16.7095 8.02868C16.7095 8.16788 16.674 8.29572 16.603 8.4122C16.5348 8.52868 16.4425 8.62243 16.326 8.69345C16.2124 8.76163 16.0845 8.79572 15.9425 8.79572ZM20.5224 0.000266075V8.72754H19.4656V1.10822H19.4144L17.2837 2.52299V1.44913L19.4656 0.000266075H20.5224Z" fill="#0000EE"/>
</svg>
