<svg width="22" height="9" viewBox="0 0 22 9" fill="none" xmlns="http://www.w3.org/2000/svg">
<path d="M-0.00035511 6.93777V6.06845L3.83487 0.000266075H4.46555V1.34686H4.03942L1.14169 5.93208V6.00027H6.30646V6.93777H-0.00035511ZM4.1076 8.72754V6.67356V6.26873V0.000266075H5.11328V8.72754H4.1076ZM8.17614 8.72754L12.0795 1.00595V0.937766H7.57955V0.000266075H13.1705V0.988903L9.28409 8.72754H8.17614ZM14.0089 8.79572C13.7987 8.79572 13.6183 8.72044 13.4677 8.56987C13.3171 8.4193 13.2418 8.2389 13.2418 8.02868C13.2418 7.81845 13.3171 7.63805 13.4677 7.48748C13.6183 7.33691 13.7987 7.26163 14.0089 7.26163C14.2191 7.26163 14.3995 7.33691 14.5501 7.48748C14.7006 7.63805 14.7759 7.81845 14.7759 8.02868C14.7759 8.16788 14.7404 8.29572 14.6694 8.4122C14.6012 8.52868 14.5089 8.62243 14.3924 8.69345C14.2788 8.76163 14.1509 8.79572 14.0089 8.79572ZM19.1151 8.84686C18.6151 8.84686 18.1648 8.74743 17.7642 8.54856C17.3636 8.3497 17.0426 8.07697 16.8011 7.73038C16.5597 7.38379 16.4276 6.9889 16.4048 6.54572H17.4276C17.4673 6.94061 17.6463 7.26731 17.9645 7.52583C18.2855 7.78152 18.669 7.90936 19.1151 7.90936C19.473 7.90936 19.7912 7.82555 20.0696 7.65794C20.3509 7.49032 20.571 7.26021 20.7301 6.9676C20.892 6.67214 20.973 6.33833 20.973 5.96618C20.973 5.58549 20.8892 5.246 20.7216 4.94771C20.5568 4.64657 20.3295 4.40936 20.0398 4.23606C19.75 4.06277 19.419 3.9747 19.0469 3.97186C18.7798 3.96902 18.5057 4.01021 18.2244 4.09544C17.9432 4.17782 17.7116 4.28436 17.5298 4.41504L16.5412 4.29572L17.0696 0.000266075H21.6037V0.937766H17.956L17.6491 3.51163H17.7003C17.8793 3.36958 18.1037 3.25169 18.3736 3.15794C18.6435 3.06419 18.9247 3.01731 19.2173 3.01731C19.7514 3.01731 20.2273 3.14515 20.6449 3.40083C21.0653 3.65368 21.3949 4.00027 21.6335 4.44061C21.875 4.88095 21.9957 5.38379 21.9957 5.94913C21.9957 6.50595 21.8707 7.00311 21.6207 7.44061C21.3736 7.87527 21.0327 8.21902 20.598 8.47186C20.1634 8.72186 19.669 8.84686 19.1151 8.84686Z" fill="#0000EE"/>
</svg>
