<svg width="22" height="9" viewBox="0 0 22 9" fill="none" xmlns="http://www.w3.org/2000/svg">
<path d="M2.70978 8.966C2.20978 8.966 1.7595 8.86657 1.35893 8.6677C0.958363 8.46884 0.63734 8.19611 0.395863 7.84952C0.154386 7.50293 0.0222834 7.10804 -0.000443876 6.66486H1.02228C1.06206 7.05975 1.24103 7.38645 1.55922 7.64498C1.88024 7.90066 2.26376 8.0285 2.70978 8.0285C3.06774 8.0285 3.38592 7.94469 3.66433 7.77708C3.94558 7.60946 4.16575 7.37935 4.32484 7.08674C4.48677 6.79128 4.56774 6.45748 4.56774 6.08532C4.56774 5.70463 4.48393 5.36515 4.31632 5.06685C4.15155 4.76571 3.92427 4.5285 3.6345 4.3552C3.34473 4.18191 3.01376 4.09384 2.6416 4.091C2.37456 4.08816 2.10041 4.12935 1.81916 4.21458C1.53791 4.29696 1.30637 4.4035 1.12456 4.53418L0.13592 4.41486L0.664329 0.119407H5.19842V1.05691H1.55069L1.24387 3.63077H1.29501C1.47399 3.48873 1.69842 3.37083 1.96831 3.27708C2.23819 3.18333 2.51944 3.13645 2.81206 3.13645C3.34615 3.13645 3.822 3.26429 4.23961 3.51997C4.66007 3.77282 4.98961 4.11941 5.22825 4.55975C5.46973 5.00009 5.59047 5.50293 5.59047 6.06827C5.59047 6.62509 5.46547 7.12225 5.21547 7.55975C4.96831 7.99441 4.6274 8.33816 4.19274 8.591C3.75808 8.841 3.26376 8.966 2.70978 8.966ZM10.3515 0.119407V8.84668H9.29466V1.22736H9.24352L7.11284 2.64213V1.56827L9.29466 0.119407H10.3515ZM13.0958 8.91486C12.8856 8.91486 12.7052 8.83958 12.5546 8.68901C12.404 8.53844 12.3287 8.35804 12.3287 8.14782C12.3287 7.93759 12.404 7.75719 12.5546 7.60662C12.7052 7.45605 12.8856 7.38077 13.0958 7.38077C13.306 7.38077 13.4864 7.45605 13.637 7.60662C13.7876 7.75719 13.8628 7.93759 13.8628 8.14782C13.8628 8.28702 13.8273 8.41486 13.7563 8.53134C13.6881 8.64782 13.5958 8.74157 13.4793 8.81259C13.3657 8.88077 13.2378 8.91486 13.0958 8.91486ZM15.6505 8.84668V8.07963L18.5312 4.92622C18.8692 4.55691 19.1476 4.23588 19.3664 3.96316C19.5851 3.68759 19.7471 3.42907 19.8522 3.18759C19.9601 2.94327 20.0141 2.68759 20.0141 2.42054C20.0141 2.11373 19.9403 1.8481 19.7925 1.62367C19.6476 1.39924 19.4488 1.22594 19.1959 1.10378C18.9431 0.981623 18.659 0.920543 18.3437 0.920543C18.0084 0.920543 17.7158 0.990145 17.4658 1.12935C17.2187 1.26571 17.0269 1.45747 16.8905 1.70463C16.757 1.95179 16.6903 2.24157 16.6903 2.57395H15.6846C15.6846 2.06259 15.8025 1.61372 16.0383 1.22736C16.2741 0.840997 16.5951 0.539861 17.0013 0.323952C17.4104 0.108043 17.8692 8.84533e-05 18.3778 8.84533e-05C18.8891 8.84533e-05 19.3422 0.108043 19.7371 0.323952C20.132 0.539861 20.4417 0.831054 20.6661 1.19753C20.8905 1.56401 21.0028 1.97168 21.0028 2.42054C21.0028 2.74157 20.9445 3.05549 20.828 3.3623C20.7144 3.66628 20.5155 4.00577 20.2314 4.38077C19.9502 4.75293 19.5596 5.20747 19.0596 5.74441L17.0993 7.841V7.90918H21.1562V8.84668H15.6505Z" fill="#0000EE"/>
</svg>
