<svg width="20" height="9" viewBox="0 0 20 9" fill="none" xmlns="http://www.w3.org/2000/svg">
<path d="M2.70978 8.966C2.20978 8.966 1.7595 8.86657 1.35893 8.6677C0.958363 8.46884 0.63734 8.19611 0.395863 7.84952C0.154386 7.50293 0.0222834 7.10804 -0.000443876 6.66486H1.02228C1.06206 7.05975 1.24103 7.38645 1.55922 7.64498C1.88024 7.90066 2.26376 8.0285 2.70978 8.0285C3.06774 8.0285 3.38592 7.94469 3.66433 7.77708C3.94558 7.60946 4.16575 7.37935 4.32484 7.08674C4.48677 6.79128 4.56774 6.45748 4.56774 6.08532C4.56774 5.70463 4.48393 5.36515 4.31632 5.06685C4.15155 4.76571 3.92427 4.5285 3.6345 4.3552C3.34473 4.18191 3.01376 4.09384 2.6416 4.091C2.37456 4.08816 2.10041 4.12935 1.81916 4.21458C1.53791 4.29696 1.30637 4.4035 1.12456 4.53418L0.13592 4.41486L0.664329 0.119407H5.19842V1.05691H1.55069L1.24387 3.63077H1.29501C1.47399 3.48873 1.69842 3.37083 1.96831 3.27708C2.23819 3.18333 2.51944 3.13645 2.81206 3.13645C3.34615 3.13645 3.822 3.26429 4.23961 3.51997C4.66007 3.77282 4.98961 4.11941 5.22825 4.55975C5.46973 5.00009 5.59047 5.50293 5.59047 6.06827C5.59047 6.62509 5.46547 7.12225 5.21547 7.55975C4.96831 7.99441 4.6274 8.33816 4.19274 8.591C3.75808 8.841 3.26376 8.966 2.70978 8.966ZM10.0787 8.966C9.49352 8.966 8.97647 8.8623 8.52761 8.65492C8.08159 8.44469 7.73358 8.15634 7.48358 7.78986C7.23358 7.42054 7.11 7.00009 7.11284 6.5285C7.11 6.15918 7.18244 5.81827 7.33017 5.50577C7.47789 5.19043 7.6796 4.92765 7.93528 4.71742C8.1938 4.50435 8.48216 4.36941 8.80034 4.31259V4.26145C8.38272 4.1535 8.05034 3.91912 7.80318 3.55833C7.55602 3.19469 7.43386 2.78134 7.4367 2.31827C7.43386 1.87509 7.54608 1.47878 7.77335 1.12935C8.00062 0.779918 8.31312 0.50435 8.71085 0.302645C9.11142 0.100941 9.56738 8.84533e-05 10.0787 8.84533e-05C10.5844 8.84533e-05 11.0361 0.100941 11.4339 0.302645C11.8316 0.50435 12.1441 0.779918 12.3714 1.12935C12.6015 1.47878 12.718 1.87509 12.7208 2.31827C12.718 2.78134 12.5915 3.19469 12.3415 3.55833C12.0944 3.91912 11.7662 4.1535 11.3572 4.26145V4.31259C11.6725 4.36941 11.9566 4.50435 12.2094 4.71742C12.4623 4.92765 12.664 5.19043 12.8145 5.50577C12.9651 5.81827 13.0418 6.15918 13.0447 6.5285C13.0418 7.00009 12.914 7.42054 12.6611 7.78986C12.4111 8.15634 12.0631 8.44469 11.6171 8.65492C11.1739 8.8623 10.6611 8.966 10.0787 8.966ZM10.0787 8.0285C10.4736 8.0285 10.8145 7.96458 11.1015 7.83674C11.3884 7.7089 11.61 7.5285 11.7662 7.29554C11.9225 7.06259 12.002 6.78986 12.0049 6.47736C12.002 6.14782 11.9168 5.85662 11.7492 5.60378C11.5816 5.35094 11.3529 5.15208 11.0631 5.00719C10.7762 4.8623 10.4481 4.78986 10.0787 4.78986C9.70659 4.78986 9.3742 4.8623 9.08159 5.00719C8.79181 5.15208 8.56312 5.35094 8.39551 5.60378C8.23074 5.85662 8.14977 6.14782 8.15261 6.47736C8.14977 6.78986 8.22505 7.06259 8.37846 7.29554C8.53471 7.5285 8.75772 7.7089 9.0475 7.83674C9.33727 7.96458 9.68102 8.0285 10.0787 8.0285ZM10.0787 3.88645C10.3912 3.88645 10.6682 3.82395 10.9097 3.69895C11.154 3.57395 11.3458 3.39924 11.485 3.1748C11.6242 2.95037 11.6952 2.68759 11.6981 2.38645C11.6952 2.091 11.6256 1.8339 11.4893 1.61515C11.3529 1.39355 11.164 1.2231 10.9225 1.10378C10.681 0.981623 10.3998 0.920543 10.0787 0.920543C9.75204 0.920543 9.46653 0.981623 9.22221 1.10378C8.97789 1.2231 8.78897 1.39355 8.65545 1.61515C8.52193 1.8339 8.45659 2.091 8.45943 2.38645C8.45659 2.68759 8.52335 2.95037 8.65971 3.1748C8.79892 3.39924 8.99068 3.57395 9.235 3.69895C9.47931 3.82395 9.76056 3.88645 10.0787 3.88645ZM15.1583 8.91486C14.9481 8.91486 14.7677 8.83958 14.6171 8.68901C14.4665 8.53844 14.3912 8.35804 14.3912 8.14782C14.3912 7.93759 14.4665 7.75719 14.6171 7.60662C14.7677 7.45605 14.9481 7.38077 15.1583 7.38077C15.3685 7.38077 15.5489 7.45605 15.6995 7.60662C15.8501 7.75719 15.9253 7.93759 15.9253 8.14782C15.9253 8.28702 15.8898 8.41486 15.8188 8.53134C15.7506 8.64782 15.6583 8.74157 15.5418 8.81259C15.4282 8.88077 15.3003 8.91486 15.1583 8.91486ZM19.7382 0.119407V8.84668H18.6814V1.22736H18.6302L16.4996 2.64213V1.56827L18.6814 0.119407H19.7382Z" fill="#0000EE"/>
</svg>
