<svg width="17" height="9" viewBox="0 0 17 9" fill="none" xmlns="http://www.w3.org/2000/svg">
<path d="M3.03453 8.966C2.67658 8.96032 2.31863 8.89213 1.96067 8.76145C1.60272 8.63077 1.27601 8.4106 0.980558 8.10094C0.685103 7.78844 0.447887 7.36657 0.26891 6.83532C0.0899325 6.30123 0.000443876 5.63077 0.000443876 4.82395C0.000443876 4.05123 0.0728871 3.36657 0.217773 2.76997C0.36266 2.17054 0.572887 1.66628 0.848455 1.25719C1.12402 0.845259 1.45641 0.532759 1.84561 0.31969C2.23766 0.106622 2.67942 8.84533e-05 3.1709 8.84533e-05C3.65953 8.84533e-05 4.09419 0.0980999 4.47488 0.294123C4.8584 0.487304 5.1709 0.757191 5.41238 1.10378C5.65385 1.45037 5.8101 1.84952 5.88113 2.30122H4.84135C4.74476 1.90918 4.55726 1.5839 4.27885 1.32537C4.00044 1.06685 3.63113 0.937588 3.1709 0.937588C2.49476 0.937588 1.96209 1.23162 1.57289 1.81969C1.18652 2.40776 0.991921 3.23304 0.98908 4.29554H1.05726C1.21635 4.05407 1.40527 3.8481 1.62402 3.67765C1.84561 3.50435 2.08993 3.37083 2.35698 3.27708C2.62402 3.18333 2.90669 3.13645 3.20499 3.13645C3.70499 3.13645 4.16238 3.26145 4.57715 3.51145C4.99192 3.75861 5.32431 4.10094 5.57431 4.53844C5.82431 4.9731 5.94931 5.47168 5.94931 6.03418C5.94931 6.57395 5.82857 7.06827 5.58709 7.51713C5.34561 7.96316 5.00613 8.31827 4.56863 8.58248C4.13397 8.84384 3.6226 8.97168 3.03453 8.966ZM3.03453 8.0285C3.39249 8.0285 3.71351 7.93901 3.9976 7.76003C4.28453 7.58105 4.51039 7.341 4.67516 7.03986C4.84277 6.73873 4.92658 6.4035 4.92658 6.03418C4.92658 5.67338 4.84561 5.34526 4.68368 5.0498C4.52459 4.75151 4.30442 4.51429 4.02317 4.33816C3.74476 4.16202 3.42658 4.07395 3.06863 4.07395C2.79874 4.07395 2.54732 4.12793 2.31436 4.23588C2.08141 4.341 1.87686 4.48588 1.70073 4.67054C1.52743 4.8552 1.39107 5.06685 1.29164 5.30549C1.19221 5.54128 1.14249 5.78986 1.14249 6.05123C1.14249 6.39782 1.22346 6.72168 1.38539 7.02282C1.55016 7.32395 1.77459 7.56685 2.05868 7.75151C2.34561 7.93617 2.6709 8.0285 3.03453 8.0285ZM7.96493 8.91486C7.75471 8.91486 7.57431 8.83958 7.42374 8.68901C7.27317 8.53844 7.19789 8.35804 7.19789 8.14782C7.19789 7.93759 7.27317 7.75719 7.42374 7.60662C7.57431 7.45605 7.75471 7.38077 7.96493 7.38077C8.17516 7.38077 8.35556 7.45605 8.50613 7.60662C8.65669 7.75719 8.73198 7.93759 8.73198 8.14782C8.73198 8.28702 8.69647 8.41486 8.62544 8.53134C8.55726 8.64782 8.46493 8.74157 8.34846 8.81259C8.23482 8.88077 8.10698 8.91486 7.96493 8.91486ZM10.5196 8.84668V8.07963L13.4003 4.92622C13.7384 4.55691 14.0168 4.23588 14.2355 3.96316C14.4543 3.68759 14.6162 3.42907 14.7213 3.18759C14.8293 2.94327 14.8833 2.68759 14.8833 2.42054C14.8833 2.11373 14.8094 1.8481 14.6617 1.62367C14.5168 1.39924 14.3179 1.22594 14.0651 1.10378C13.8122 0.981623 13.5281 0.920543 13.2128 0.920543C12.8776 0.920543 12.585 0.990145 12.335 1.12935C12.0878 1.26571 11.896 1.45747 11.7597 1.70463C11.6262 1.95179 11.5594 2.24157 11.5594 2.57395H10.5537C10.5537 2.06259 10.6716 1.61372 10.9074 1.22736C11.1432 0.840997 11.4642 0.539861 11.8705 0.323952C12.2796 0.108043 12.7384 8.84533e-05 13.2469 8.84533e-05C13.7583 8.84533e-05 14.2114 0.108043 14.6063 0.323952C15.0012 0.539861 15.3108 0.831054 15.5352 1.19753C15.7597 1.56401 15.8719 1.97168 15.8719 2.42054C15.8719 2.74157 15.8137 3.05549 15.6972 3.3623C15.5835 3.66628 15.3847 4.00577 15.1006 4.38077C14.8193 4.75293 14.4287 5.20747 13.9287 5.74441L11.9685 7.841V7.90918H16.0253V8.84668H10.5196Z" fill="#0000EE"/>
</svg>
