<svg width="15" height="9" viewBox="0 0 15 9" fill="none" xmlns="http://www.w3.org/2000/svg">
<path d="M0.597035 8.84668L4.50044 1.12509V1.05691H0.00044392V0.119407H5.59135V1.10804L1.70499 8.84668H0.597035ZM6.42978 8.91486C6.21955 8.91486 6.03915 8.83958 5.88858 8.68901C5.73801 8.53844 5.66273 8.35804 5.66273 8.14782C5.66273 7.93759 5.73801 7.75719 5.88858 7.60662C6.03915 7.45605 6.21955 7.38077 6.42978 7.38077C6.64 7.38077 6.8204 7.45605 6.97097 7.60662C7.12154 7.75719 7.19682 7.93759 7.19682 8.14782C7.19682 8.28702 7.16131 8.41486 7.09029 8.53134C7.02211 8.64782 6.92978 8.74157 6.8133 8.81259C6.69966 8.88077 6.57182 8.91486 6.42978 8.91486ZM8.98446 8.84668V8.07963L11.8651 4.92622C12.2032 4.55691 12.4816 4.23588 12.7004 3.96316C12.9191 3.68759 13.0811 3.42907 13.1862 3.18759C13.2941 2.94327 13.3481 2.68759 13.3481 2.42054C13.3481 2.11373 13.2742 1.8481 13.1265 1.62367C12.9816 1.39924 12.7828 1.22594 12.5299 1.10378C12.2771 0.981623 11.993 0.920543 11.6776 0.920543C11.3424 0.920543 11.0498 0.990145 10.7998 1.12935C10.5526 1.26571 10.3609 1.45747 10.2245 1.70463C10.091 1.95179 10.0242 2.24157 10.0242 2.57395H9.01855C9.01855 2.06259 9.13645 1.61372 9.37225 1.22736C9.60804 0.840997 9.92907 0.539861 10.3353 0.323952C10.7444 0.108043 11.2032 8.84533e-05 11.7117 8.84533e-05C12.2231 8.84533e-05 12.6762 0.108043 13.0711 0.323952C13.466 0.539861 13.7757 0.831054 14.0001 1.19753C14.2245 1.56401 14.3367 1.97168 14.3367 2.42054C14.3367 2.74157 14.2785 3.05549 14.162 3.3623C14.0484 3.66628 13.8495 4.00577 13.5654 4.38077C13.2842 4.75293 12.8936 5.20747 12.3936 5.74441L10.4333 7.841V7.90918H14.4901V8.84668H8.98446Z" fill="#0000EE"/>
</svg>
