<svg width="25" height="9" viewBox="0 0 25 9" fill="none" xmlns="http://www.w3.org/2000/svg">
<path d="M2.97035 8.966C2.38512 8.966 1.86808 8.8623 1.41921 8.65492C0.973189 8.44469 0.625178 8.15634 0.375178 7.78986C0.125178 7.42054 0.00159803 7.00009 0.00443894 6.5285C0.00159803 6.15918 0.0740412 5.81827 0.221768 5.50577C0.369496 5.19043 0.5712 4.92765 0.826882 4.71742C1.0854 4.50435 1.37376 4.36941 1.69194 4.31259V4.26145C1.27433 4.1535 0.941939 3.91912 0.69478 3.55833C0.447621 3.19469 0.325462 2.78134 0.328303 2.31827C0.325462 1.87509 0.437678 1.47878 0.66495 1.12935C0.892223 0.779918 1.20472 0.50435 1.60245 0.302645C2.00302 0.100941 2.45898 8.84533e-05 2.97035 8.84533e-05C3.47603 8.84533e-05 3.92773 0.100941 4.32546 0.302645C4.72319 0.50435 5.03569 0.779918 5.26296 1.12935C5.49308 1.47878 5.60955 1.87509 5.61239 2.31827C5.60955 2.78134 5.48313 3.19469 5.23313 3.55833C4.98597 3.91912 4.65785 4.1535 4.24876 4.26145V4.31259C4.5641 4.36941 4.84819 4.50435 5.10103 4.71742C5.35387 4.92765 5.55558 5.19043 5.70614 5.50577C5.85671 5.81827 5.93342 6.15918 5.93626 6.5285C5.93342 7.00009 5.80558 7.42054 5.55273 7.78986C5.30273 8.15634 4.95472 8.44469 4.5087 8.65492C4.06552 8.8623 3.55273 8.966 2.97035 8.966ZM2.97035 8.0285C3.36523 8.0285 3.70614 7.96458 3.99308 7.83674C4.28001 7.7089 4.5016 7.5285 4.65785 7.29554C4.8141 7.06259 4.89364 6.78986 4.89648 6.47736C4.89364 6.14782 4.80842 5.85662 4.6408 5.60378C4.47319 5.35094 4.2445 5.15208 3.95472 5.00719C3.66779 4.8623 3.33967 4.78986 2.97035 4.78986C2.59819 4.78986 2.2658 4.8623 1.97319 5.00719C1.68342 5.15208 1.45472 5.35094 1.28711 5.60378C1.12234 5.85662 1.04137 6.14782 1.04421 6.47736C1.04137 6.78986 1.11665 7.06259 1.27006 7.29554C1.42631 7.5285 1.64933 7.7089 1.9391 7.83674C2.22887 7.96458 2.57262 8.0285 2.97035 8.0285ZM2.97035 3.88645C3.28285 3.88645 3.55984 3.82395 3.80131 3.69895C4.04563 3.57395 4.23739 3.39924 4.3766 3.1748C4.5158 2.95037 4.58683 2.68759 4.58967 2.38645C4.58683 2.091 4.51722 1.8339 4.38086 1.61515C4.2445 1.39355 4.05558 1.2231 3.8141 1.10378C3.57262 0.981623 3.29137 0.920543 2.97035 0.920543C2.64364 0.920543 2.35813 0.981623 2.11381 1.10378C1.8695 1.2231 1.68058 1.39355 1.54705 1.61515C1.41353 1.8339 1.34819 2.091 1.35103 2.38645C1.34819 2.68759 1.41495 2.95037 1.55131 3.1748C1.69052 3.39924 1.88228 3.57395 2.1266 3.69895C2.37092 3.82395 2.65217 3.88645 2.97035 3.88645ZM10.4672 8.966C10.1092 8.96032 9.75124 8.89213 9.39329 8.76145C9.03533 8.63077 8.70863 8.4106 8.41317 8.10094C8.11772 7.78844 7.8805 7.36657 7.70153 6.83532C7.52255 6.30123 7.43306 5.63077 7.43306 4.82395C7.43306 4.05123 7.5055 3.36657 7.65039 2.76997C7.79528 2.17054 8.0055 1.66628 8.28107 1.25719C8.55664 0.845259 8.88903 0.532759 9.27823 0.31969C9.67028 0.106622 10.112 8.84533e-05 10.6035 8.84533e-05C11.0922 8.84533e-05 11.5268 0.0980999 11.9075 0.294123C12.291 0.487304 12.6035 0.757191 12.845 1.10378C13.0865 1.45037 13.2427 1.84952 13.3137 2.30122H12.274C12.1774 1.90918 11.9899 1.5839 11.7115 1.32537C11.4331 1.06685 11.0637 0.937588 10.6035 0.937588C9.92738 0.937588 9.39471 1.23162 9.0055 1.81969C8.61914 2.40776 8.42454 3.23304 8.4217 4.29554H8.48988C8.64897 4.05407 8.83789 3.8481 9.05664 3.67765C9.27823 3.50435 9.52255 3.37083 9.7896 3.27708C10.0566 3.18333 10.3393 3.13645 10.6376 3.13645C11.1376 3.13645 11.595 3.26145 12.0098 3.51145C12.4245 3.75861 12.7569 4.10094 13.0069 4.53844C13.2569 4.9731 13.3819 5.47168 13.3819 6.03418C13.3819 6.57395 13.2612 7.06827 13.0197 7.51713C12.7782 7.96316 12.4387 8.31827 12.0012 8.58248C11.5666 8.84384 11.0552 8.97168 10.4672 8.966ZM10.4672 8.0285C10.8251 8.0285 11.1461 7.93901 11.4302 7.76003C11.7172 7.58105 11.943 7.341 12.1078 7.03986C12.2754 6.73873 12.3592 6.4035 12.3592 6.03418C12.3592 5.67338 12.2782 5.34526 12.1163 5.0498C11.9572 4.75151 11.737 4.51429 11.4558 4.33816C11.1774 4.16202 10.8592 4.07395 10.5012 4.07395C10.2314 4.07395 9.97994 4.12793 9.74698 4.23588C9.51403 4.341 9.30948 4.48588 9.13335 4.67054C8.96005 4.8552 8.82369 5.06685 8.72425 5.30549C8.62482 5.54128 8.57511 5.78986 8.57511 6.05123C8.57511 6.39782 8.65607 6.72168 8.818 7.02282C8.98278 7.32395 9.20721 7.56685 9.4913 7.75151C9.77823 7.93617 10.1035 8.0285 10.4672 8.0285ZM15.3975 8.91486C15.1873 8.91486 15.0069 8.83958 14.8564 8.68901C14.7058 8.53844 14.6305 8.35804 14.6305 8.14782C14.6305 7.93759 14.7058 7.75719 14.8564 7.60662C15.0069 7.45605 15.1873 7.38077 15.3975 7.38077C15.6078 7.38077 15.7882 7.45605 15.9387 7.60662C16.0893 7.75719 16.1646 7.93759 16.1646 8.14782C16.1646 8.28702 16.1291 8.41486 16.0581 8.53134C15.9899 8.64782 15.8975 8.74157 15.7811 8.81259C15.6674 8.88077 15.5396 8.91486 15.3975 8.91486ZM17.7477 7.05691V6.18759L21.5829 0.119407H22.2136V1.466H21.7875L18.8897 6.05123V6.11941H24.0545V7.05691H17.7477ZM21.8556 8.84668V6.7927V6.38787V0.119407H22.8613V8.84668H21.8556Z" fill="#0000EE"/>
</svg>
