<svg width="525" height="684" viewBox="0 0 525 684" fill="none" xmlns="http://www.w3.org/2000/svg">
<path d="M284.173 623.932V554.113H306.707C311.662 554.113 315.798 555.011 319.116 556.807C322.457 558.579 324.969 561.045 326.65 564.204C328.355 567.341 329.207 570.943 329.207 575.011C329.207 579.079 328.355 582.67 326.65 585.784C324.969 588.898 322.469 591.329 319.15 593.079C315.832 594.829 311.719 595.704 306.809 595.704H287.616V589.875H306.639C310.275 589.875 313.298 589.273 315.707 588.068C318.139 586.863 319.946 585.148 321.128 582.92C322.332 580.693 322.934 578.057 322.934 575.011C322.934 571.966 322.332 569.307 321.128 567.034C319.923 564.738 318.105 562.966 315.673 561.716C313.264 560.466 310.219 559.841 306.537 559.841H290.548V623.932H284.173ZM314.957 592.432L332.139 623.932H324.775L307.764 592.432H314.957ZM344.736 623.932V554.113H367.27C372.224 554.113 376.361 555.068 379.679 556.977C383.02 558.863 385.531 561.432 387.213 564.682C388.917 567.932 389.77 571.591 389.77 575.659C389.77 579.727 388.929 583.398 387.247 586.67C385.565 589.92 383.065 592.5 379.747 594.409C376.429 596.295 372.304 597.238 367.372 597.238H349.645V591.511H367.202C370.861 591.511 373.895 590.829 376.304 589.466C378.713 588.079 380.508 586.193 381.69 583.807C382.895 581.42 383.497 578.704 383.497 575.659C383.497 572.613 382.895 569.898 381.69 567.511C380.508 565.125 378.702 563.25 376.27 561.886C373.861 560.523 370.804 559.841 367.099 559.841H351.111V623.932H344.736ZM404.736 554.113H412.099L437.429 614.932H438.042L463.372 554.113H470.736V623.932H464.736V567.579H464.19L440.633 623.932H434.838L411.281 567.579H410.736V623.932H404.736V554.113Z" fill="black"/>
<mask id="path-2-inside-1_2058_219" fill="white">
<path d="M524.897 434.346C524.897 368.134 497.246 304.633 448.028 257.814C398.809 210.995 332.054 184.692 262.449 184.692C192.843 184.692 126.088 210.995 76.8694 257.814C27.6508 304.633 1.05102e-05 368.134 0 434.346H63.7041C63.7041 384.206 84.6432 336.119 121.915 300.664C159.187 265.209 209.738 245.291 262.449 245.291C315.159 245.291 365.71 265.209 402.982 300.664C440.254 336.119 461.193 384.206 461.193 434.346H524.897Z"/>
</mask>
<path d="M524.897 434.346C524.897 368.134 497.246 304.633 448.028 257.814C398.809 210.995 332.054 184.692 262.449 184.692C192.843 184.692 126.088 210.995 76.8694 257.814C27.6508 304.633 1.05102e-05 368.134 0 434.346H63.7041C63.7041 384.206 84.6432 336.119 121.915 300.664C159.187 265.209 209.738 245.291 262.449 245.291C315.159 245.291 365.71 265.209 402.982 300.664C440.254 336.119 461.193 384.206 461.193 434.346H524.897Z" fill="#D9D9D9" stroke="black" stroke-width="4" mask="url(#path-2-inside-1_2058_219)"/>
<mask id="path-3-inside-2_2058_219" fill="white">
<path d="M524.894 435.483C525.019 409.52 520.885 383.697 512.641 358.945L451.912 377.247C458.154 395.991 461.285 415.546 461.191 435.207L524.894 435.483Z"/>
</mask>
<path d="M524.894 435.483C525.019 409.52 520.885 383.697 512.641 358.945L451.912 377.247C458.154 395.991 461.285 415.546 461.191 435.207L524.894 435.483Z" fill="#8C8C8C" stroke="black" stroke-width="4" mask="url(#path-3-inside-2_2058_219)"/>
<line y1="-7.5" x2="80.1022" y2="-7.5" transform="matrix(0.713579 0.700575 -0.706972 0.707241 83.332 239.749)" stroke="#4F4FDC" stroke-width="15"/>
<path d="M52.2727 107V37.1818H74.8068C79.7614 37.1818 83.8977 38.1364 87.2159 40.0455C90.5568 41.9318 93.0682 44.5 94.75 47.75C96.4545 51 97.3068 54.6591 97.3068 58.7273C97.3068 62.7955 96.4659 66.4659 94.7841 69.7386C93.1023 72.9886 90.6023 75.5682 87.2841 77.4773C83.9659 79.3636 79.8409 80.3068 74.9091 80.3068H57.1818V74.5795H74.7386C78.3977 74.5795 81.4318 73.8977 83.8409 72.5341C86.25 71.1477 88.0455 69.2614 89.2273 66.875C90.4318 64.4886 91.0341 61.7727 91.0341 58.7273C91.0341 55.6818 90.4318 52.9659 89.2273 50.5795C88.0455 48.1932 86.2386 46.3182 83.8068 44.9545C81.3977 43.5909 78.3409 42.9091 74.6364 42.9091H58.6477V107H52.2727ZM112.273 107V37.1818H134.807C139.761 37.1818 143.898 38.0795 147.216 39.875C150.557 41.6477 153.068 44.1136 154.75 47.2727C156.455 50.4091 157.307 54.0114 157.307 58.0795C157.307 62.1477 156.455 65.7386 154.75 68.8523C153.068 71.9659 150.568 74.3977 147.25 76.1477C143.932 77.8977 139.818 78.7727 134.909 78.7727H115.716V72.9432H134.739C138.375 72.9432 141.398 72.3409 143.807 71.1364C146.239 69.9318 148.045 68.2159 149.227 65.9886C150.432 63.7614 151.034 61.125 151.034 58.0795C151.034 55.0341 150.432 52.375 149.227 50.1023C148.023 47.8068 146.205 46.0341 143.773 44.7841C141.364 43.5341 138.318 42.9091 134.636 42.9091H118.648V107H112.273ZM143.057 75.5L160.239 107H152.875L135.864 75.5H143.057ZM172.835 107V37.1818H213.335V42.9091H179.21V69.1932H211.188V74.9205H179.21V101.273H214.017V107H172.835ZM267.744 54.6364C267.358 50.75 265.642 47.6591 262.597 45.3636C259.551 43.0682 255.722 41.9205 251.108 41.9205C247.858 41.9205 244.994 42.4773 242.517 43.5909C240.063 44.7045 238.131 46.25 236.722 48.2273C235.335 50.1818 234.642 52.4091 234.642 54.9091C234.642 56.75 235.04 58.3636 235.835 59.75C236.631 61.1364 237.699 62.3295 239.04 63.3295C240.403 64.3068 241.903 65.1477 243.54 65.8523C245.199 66.5568 246.869 67.1477 248.551 67.625L255.915 69.7386C258.142 70.3523 260.369 71.1364 262.597 72.0909C264.824 73.0455 266.858 74.25 268.699 75.7045C270.563 77.1364 272.051 78.8977 273.165 80.9886C274.301 83.0568 274.869 85.5455 274.869 88.4545C274.869 92.1818 273.903 95.5341 271.972 98.5114C270.04 101.489 267.267 103.852 263.653 105.602C260.04 107.33 255.71 108.193 250.665 108.193C245.915 108.193 241.79 107.409 238.29 105.841C234.79 104.25 232.04 102.057 230.04 99.2614C228.04 96.4659 226.915 93.2273 226.665 89.5455H233.21C233.438 92.2955 234.347 94.625 235.938 96.5341C237.528 98.4432 239.597 99.8977 242.142 100.898C244.688 101.875 247.528 102.364 250.665 102.364C254.142 102.364 257.233 101.784 259.938 100.625C262.665 99.4432 264.801 97.8068 266.347 95.7159C267.915 93.6023 268.699 91.1477 268.699 88.3523C268.699 85.9886 268.085 84.0114 266.858 82.4205C265.631 80.8068 263.915 79.4545 261.71 78.3636C259.528 77.2727 256.994 76.3068 254.108 75.4659L245.756 73.0114C240.278 71.375 236.028 69.1136 233.006 66.2273C229.983 63.3409 228.472 59.6591 228.472 55.1818C228.472 51.4318 229.472 48.1364 231.472 45.2955C233.494 42.4318 236.222 40.2045 239.653 38.6136C243.108 37 246.983 36.1932 251.278 36.1932C255.619 36.1932 259.46 36.9886 262.801 38.5795C266.142 40.1705 268.79 42.3636 270.744 45.1591C272.722 47.9318 273.778 51.0909 273.915 54.6364H267.744ZM328.119 54.6364C327.733 50.75 326.017 47.6591 322.972 45.3636C319.926 43.0682 316.097 41.9205 311.483 41.9205C308.233 41.9205 305.369 42.4773 302.892 43.5909C300.438 44.7045 298.506 46.25 297.097 48.2273C295.71 50.1818 295.017 52.4091 295.017 54.9091C295.017 56.75 295.415 58.3636 296.21 59.75C297.006 61.1364 298.074 62.3295 299.415 63.3295C300.778 64.3068 302.278 65.1477 303.915 65.8523C305.574 66.5568 307.244 67.1477 308.926 67.625L316.29 69.7386C318.517 70.3523 320.744 71.1364 322.972 72.0909C325.199 73.0455 327.233 74.25 329.074 75.7045C330.938 77.1364 332.426 78.8977 333.54 80.9886C334.676 83.0568 335.244 85.5455 335.244 88.4545C335.244 92.1818 334.278 95.5341 332.347 98.5114C330.415 101.489 327.642 103.852 324.028 105.602C320.415 107.33 316.085 108.193 311.04 108.193C306.29 108.193 302.165 107.409 298.665 105.841C295.165 104.25 292.415 102.057 290.415 99.2614C288.415 96.4659 287.29 93.2273 287.04 89.5455H293.585C293.812 92.2955 294.722 94.625 296.312 96.5341C297.903 98.4432 299.972 99.8977 302.517 100.898C305.062 101.875 307.903 102.364 311.04 102.364C314.517 102.364 317.608 101.784 320.312 100.625C323.04 99.4432 325.176 97.8068 326.722 95.7159C328.29 93.6023 329.074 91.1477 329.074 88.3523C329.074 85.9886 328.46 84.0114 327.233 82.4205C326.006 80.8068 324.29 79.4545 322.085 78.3636C319.903 77.2727 317.369 76.3068 314.483 75.4659L306.131 73.0114C300.653 71.375 296.403 69.1136 293.381 66.2273C290.358 63.3409 288.847 59.6591 288.847 55.1818C288.847 51.4318 289.847 48.1364 291.847 45.2955C293.869 42.4318 296.597 40.2045 300.028 38.6136C303.483 37 307.358 36.1932 311.653 36.1932C315.994 36.1932 319.835 36.9886 323.176 38.5795C326.517 40.1705 329.165 42.3636 331.119 45.1591C333.097 47.9318 334.153 51.0909 334.29 54.6364H328.119ZM377.688 107H371.006L396.403 37.1818H403.222L428.619 107H421.938L400.051 45.4659H399.574L377.688 107ZM382.494 80.2386H417.131V85.9659H382.494V80.2386ZM457.349 37.1818V107H450.974V43.8636H450.565L434.202 54.7386V48.125L450.702 37.1818H457.349Z" fill="black"/>
</svg>
