<svg width="1358" height="1181" viewBox="0 0 1358 1181" fill="none" xmlns="http://www.w3.org/2000/svg">
<g filter="url(#filter0_d_2059_250)">
<path d="M12.2998 592.006V463.845H127.141V204.202H249.352V10.2998H368.493V204.202H605.545V76.0406H727.756V204.202H904.624V76.0406H1020.69V204.202H1196.33V466.501H1325.3V589.35H1196.33V979.81H370.949V1146.3H250.58V979.81H127.141V592.006H12.2998Z" fill="#CCCCCC"/>
<path d="M127.141 592.006H12.2998V463.845H127.141M127.141 592.006V979.81H250.58V1146.3H370.949V979.81H1196.33V589.35M127.141 592.006V463.845M1196.33 589.35H1325.3V466.501H1196.33M1196.33 589.35V466.501M1196.33 466.501V204.202H1020.69V76.0406H904.624V204.202H727.756V76.0406H605.545V204.202H368.493V10.2998H249.352V204.202H127.141V463.845" stroke="#666666" stroke-width="14" stroke-linecap="round"/>
</g>
<mask id="path-3-inside-1_2059_250" fill="white">
<path d="M954.3 577.3C954.3 513.913 925.116 453.122 873.168 408.301C821.221 363.48 750.765 338.3 677.3 338.3C603.835 338.3 533.379 363.48 481.431 408.301C429.484 453.122 400.3 513.913 400.3 577.3L467.536 577.3C467.536 529.299 489.636 483.264 528.974 449.322C568.313 415.381 621.667 396.312 677.3 396.312C732.933 396.312 786.287 415.381 825.625 449.322C864.964 483.264 887.064 529.299 887.064 577.3H954.3Z"/>
</mask>
<path d="M954.3 577.3C954.3 513.913 925.116 453.122 873.168 408.301C821.221 363.48 750.765 338.3 677.3 338.3C603.835 338.3 533.379 363.48 481.431 408.301C429.484 453.122 400.3 513.913 400.3 577.3L467.536 577.3C467.536 529.299 489.636 483.264 528.974 449.322C568.313 415.381 621.667 396.312 677.3 396.312C732.933 396.312 786.287 415.381 825.625 449.322C864.964 483.264 887.064 529.299 887.064 577.3H954.3Z" fill="#D9D9D9" stroke="black" stroke-width="4" stroke-linecap="round" mask="url(#path-3-inside-1_2059_250)"/>
<mask id="path-4-inside-2_2059_250" fill="white">
<path d="M954.297 578.388C954.428 553.533 950.065 528.812 941.364 505.117L877.268 522.638C883.857 540.581 887.161 559.302 887.061 578.124L954.297 578.388Z"/>
</mask>
<path d="M954.297 578.388C954.428 553.533 950.065 528.812 941.364 505.117L877.268 522.638C883.857 540.581 887.161 559.302 887.061 578.124L954.297 578.388Z" fill="#8C8C8C" stroke="black" stroke-width="4" stroke-linecap="round" mask="url(#path-4-inside-2_2059_250)"/>
<path d="M599.345 313.3V266.754H630.163V274.868H609.186V285.959H628.118V294.073H609.186V313.3H599.345ZM636.783 313.3V266.754H668.146V274.868H646.624V285.959H666.533V294.073H646.624V305.186H668.237V313.3H636.783ZM675.97 313.3V266.754H707.334V274.868H685.811V285.959H705.72V294.073H685.811V305.186H707.425V313.3H675.97ZM731.658 313.3H715.158V266.754H731.794C736.476 266.754 740.506 267.686 743.885 269.55C747.264 271.398 749.862 274.057 751.68 277.527C753.514 280.997 754.43 285.148 754.43 289.982C754.43 294.83 753.514 298.997 751.68 302.482C749.862 305.966 747.249 308.641 743.84 310.504C740.446 312.368 736.385 313.3 731.658 313.3ZM724.999 304.868H731.249C734.158 304.868 736.605 304.353 738.59 303.323C740.59 302.277 742.09 300.663 743.09 298.482C744.105 296.285 744.612 293.451 744.612 289.982C744.612 286.542 744.105 283.732 743.09 281.55C742.09 279.368 740.597 277.762 738.612 276.732C736.627 275.701 734.18 275.186 731.271 275.186H724.999V304.868Z" fill="#828282"/>
<path d="M1083.3 338.3H1063.2L1093.83 249.573H1118.01L1148.59 338.3H1128.49L1106.27 269.848H1105.57L1083.3 338.3ZM1082.05 303.424H1129.53V318.068H1082.05V303.424Z" fill="#828282"/>
<path d="M678.573 852.3V782.482H701.107C706.061 782.482 710.198 783.379 713.516 785.175C716.857 786.948 719.368 789.413 721.05 792.573C722.754 795.709 723.607 799.311 723.607 803.379C723.607 807.448 722.754 811.038 721.05 814.152C719.368 817.266 716.868 819.698 713.55 821.448C710.232 823.198 706.118 824.073 701.209 824.073H682.016V818.243H701.038C704.675 818.243 707.698 817.641 710.107 816.436C712.538 815.232 714.345 813.516 715.527 811.288C716.732 809.061 717.334 806.425 717.334 803.379C717.334 800.334 716.732 797.675 715.527 795.402C714.323 793.107 712.504 791.334 710.073 790.084C707.663 788.834 704.618 788.209 700.936 788.209H684.948V852.3H678.573ZM709.357 820.8L726.538 852.3H719.175L702.163 820.8H709.357ZM739.135 852.3V782.482H761.669C766.624 782.482 770.76 783.436 774.078 785.345C777.419 787.232 779.93 789.8 781.612 793.05C783.317 796.3 784.169 799.959 784.169 804.027C784.169 808.095 783.328 811.766 781.646 815.038C779.965 818.288 777.465 820.868 774.146 822.777C770.828 824.663 766.703 825.607 761.771 825.607H744.044V819.879H761.601C765.26 819.879 768.294 819.198 770.703 817.834C773.112 816.448 774.908 814.561 776.09 812.175C777.294 809.788 777.896 807.073 777.896 804.027C777.896 800.982 777.294 798.266 776.09 795.879C774.908 793.493 773.101 791.618 770.669 790.254C768.26 788.891 765.203 788.209 761.499 788.209H745.51V852.3H739.135ZM799.135 782.482H806.499L831.828 843.3H832.442L857.771 782.482H865.135V852.3H859.135V795.948H858.59L835.033 852.3H829.237L805.68 795.948H805.135V852.3H799.135V782.482Z" fill="#828282"/>
<line x1="486.876" y1="398.107" x2="529.606" y2="447.894" stroke="#4F4FDC" stroke-width="15" stroke-linecap="round"/>
<mask id="path-9-inside-3_2059_250" fill="white">
<path d="M422.3 1021.3C422.3 1015.78 426.777 1011.3 432.3 1011.3H1060.3V1146.3C1060.3 1149.06 1058.06 1151.3 1055.3 1151.3H422.3V1021.3Z"/>
</mask>
<path d="M422.3 1021.3C422.3 1015.78 426.777 1011.3 432.3 1011.3H1060.3V1146.3C1060.3 1149.06 1058.06 1151.3 1055.3 1151.3H422.3V1021.3Z" fill="#C6C6C6"/>
<path d="M422.3 1021.3C422.3 1015.78 426.777 1011.3 432.3 1011.3H1060.3V1146.3C1060.3 1149.06 1058.06 1151.3 1055.3 1151.3H422.3V1021.3Z" stroke="url(#paint0_linear_2059_250)" stroke-width="18" stroke-linecap="round" mask="url(#path-9-inside-3_2059_250)"/>
<path d="M422.3 1021.3C422.3 1015.78 426.777 1011.3 432.3 1011.3H1060.3V1146.3C1060.3 1149.06 1058.06 1151.3 1055.3 1151.3H422.3V1021.3Z" stroke="url(#paint1_linear_2059_250)" stroke-opacity="0.2" stroke-width="18" stroke-linecap="round" mask="url(#path-9-inside-3_2059_250)"/>
<path d="M632.8 1104.3H618.436V1057.75H633.436C637.951 1057.75 641.815 1058.69 645.027 1060.55C648.239 1062.4 650.701 1065.06 652.413 1068.53C654.126 1071.98 654.982 1076.12 654.982 1080.94C654.982 1085.78 654.118 1089.96 652.391 1093.46C650.663 1096.94 648.148 1099.63 644.845 1101.5C641.542 1103.37 637.527 1104.3 632.8 1104.3ZM624.073 1099.3H632.436C636.285 1099.3 639.474 1098.56 642.004 1097.07C644.535 1095.59 646.421 1093.47 647.663 1090.73C648.906 1087.99 649.527 1084.72 649.527 1080.94C649.527 1077.18 648.913 1073.94 647.686 1071.23C646.459 1068.5 644.626 1066.41 642.186 1064.96C639.747 1063.49 636.709 1062.75 633.073 1062.75H624.073V1099.3ZM664.436 1104.3V1057.75H692.527V1062.75H670.073V1078.48H691.073V1083.48H670.073V1099.3H692.891V1104.3H664.436ZM700.141 1062.75V1057.75H735.05V1062.75H720.413V1104.3H714.777V1062.75H700.141ZM740.22 1104.3H734.311L751.402 1057.75H757.22L774.311 1104.3H768.402L754.493 1065.12H754.129L740.22 1104.3ZM742.402 1086.12H766.22V1091.12H742.402V1086.12ZM787.198 1057.75V1104.3H781.561V1057.75H787.198ZM798.499 1104.3V1057.75H804.135V1099.3H825.771V1104.3H798.499ZM859.953 1069.39C859.68 1067.09 858.574 1065.3 856.635 1064.03C854.696 1062.75 852.317 1062.12 849.499 1062.12C847.438 1062.12 845.635 1062.45 844.09 1063.12C842.559 1063.78 841.362 1064.7 840.499 1065.87C839.65 1067.03 839.226 1068.36 839.226 1069.85C839.226 1071.09 839.521 1072.16 840.112 1073.05C840.718 1073.93 841.491 1074.66 842.43 1075.25C843.37 1075.83 844.355 1076.31 845.385 1076.69C846.415 1077.05 847.362 1077.35 848.226 1077.57L852.953 1078.85C854.165 1079.16 855.514 1079.6 856.999 1080.16C858.499 1080.72 859.93 1081.49 861.294 1082.46C862.673 1083.41 863.809 1084.64 864.703 1086.14C865.597 1087.64 866.044 1089.48 866.044 1091.66C866.044 1094.18 865.385 1096.45 864.067 1098.48C862.764 1100.51 860.855 1102.13 858.34 1103.32C855.84 1104.52 852.802 1105.12 849.226 1105.12C845.893 1105.12 843.006 1104.58 840.567 1103.5C838.143 1102.43 836.234 1100.93 834.84 1099C833.461 1097.08 832.68 1094.85 832.499 1092.3H838.317C838.468 1094.06 839.059 1095.51 840.09 1096.66C841.135 1097.8 842.453 1098.65 844.044 1099.21C845.65 1099.75 847.377 1100.03 849.226 1100.03C851.377 1100.03 853.309 1099.68 855.021 1098.98C856.734 1098.27 858.09 1097.28 859.09 1096.03C860.09 1094.75 860.59 1093.27 860.59 1091.57C860.59 1090.03 860.158 1088.77 859.294 1087.8C858.43 1086.83 857.294 1086.04 855.885 1085.44C854.476 1084.83 852.953 1084.3 851.317 1083.85L845.59 1082.21C841.953 1081.16 839.074 1079.67 836.953 1077.73C834.832 1075.79 833.771 1073.25 833.771 1070.12C833.771 1067.51 834.476 1065.24 835.885 1063.3C837.309 1061.35 839.218 1059.83 841.612 1058.75C844.021 1057.66 846.711 1057.12 849.68 1057.12C852.68 1057.12 855.347 1057.66 857.68 1058.73C860.014 1059.79 861.862 1061.25 863.226 1063.1C864.605 1064.94 865.332 1067.04 865.408 1069.39H859.953Z" fill="#5D5D5D"/>
<defs>
<filter id="filter0_d_2059_250" x="-0.000195503" y="-0.000195503" width="1357.6" height="1180.6" filterUnits="userSpaceOnUse" color-interpolation-filters="sRGB">
<feFlood flood-opacity="0" result="BackgroundImageFix"/>
<feColorMatrix in="SourceAlpha" type="matrix" values="0 0 0 0 0 0 0 0 0 0 0 0 0 0 0 0 0 0 127 0" result="hardAlpha"/>
<feOffset dx="10" dy="12"/>
<feGaussianBlur stdDeviation="7.65"/>
<feComposite in2="hardAlpha" operator="out"/>
<feColorMatrix type="matrix" values="0 0 0 0 0 0 0 0 0 0 0 0 0 0 0 0 0 0 0.25 0"/>
<feBlend mode="normal" in2="BackgroundImageFix" result="effect1_dropShadow_2059_250"/>
<feBlend mode="normal" in="SourceGraphic" in2="effect1_dropShadow_2059_250" result="shape"/>
</filter>
<linearGradient id="paint0_linear_2059_250" x1="422.3" y1="1011.3" x2="472.519" y2="1248.97" gradientUnits="userSpaceOnUse">
<stop offset="0.540565" stop-color="white"/>
<stop offset="0.615385" stop-color="#797979"/>
</linearGradient>
<linearGradient id="paint1_linear_2059_250" x1="422.3" y1="1011.3" x2="489.38" y2="1396.73" gradientUnits="userSpaceOnUse">
<stop stop-color="#FFFBFB"/>
<stop offset="1"/>
</linearGradient>
</defs>
</svg>
