<svg width="557" height="688" viewBox="0 0 557 688" fill="none" xmlns="http://www.w3.org/2000/svg">
<mask id="path-1-inside-1_2061_2" fill="white">
<path d="M557 425C557 355.248 528.132 288.353 476.747 239.031C425.362 189.709 355.669 162 283 162C210.331 162 140.638 189.709 89.2528 239.031C37.8678 288.353 9.00001 355.248 9 425H75.508C75.508 372.179 97.3687 321.521 136.281 284.171C175.193 246.821 227.97 225.838 283 225.838C338.03 225.838 390.807 246.821 429.719 284.171C468.631 321.521 490.492 372.179 490.492 425H557Z"/>
</mask>
<path d="M557 425C557 355.248 528.132 288.353 476.747 239.031C425.362 189.709 355.669 162 283 162C210.331 162 140.638 189.709 89.2528 239.031C37.8678 288.353 9.00001 355.248 9 425H75.508C75.508 372.179 97.3687 321.521 136.281 284.171C175.193 246.821 227.97 225.838 283 225.838C338.03 225.838 390.807 246.821 429.719 284.171C468.631 321.521 490.492 372.179 490.492 425H557Z" fill="#D9D9D9" stroke="black" stroke-width="4" mask="url(#path-1-inside-1_2061_2)"/>
<mask id="path-2-inside-2_2061_2" fill="white">
<path d="M556.997 426.198C557.127 398.846 552.811 371.643 544.205 345.568L480.802 364.849C487.32 384.594 490.588 405.195 490.49 425.907L556.997 426.198Z"/>
</mask>
<path d="M556.997 426.198C557.127 398.846 552.811 371.643 544.205 345.568L480.802 364.849C487.32 384.594 490.588 405.195 490.49 425.907L556.997 426.198Z" fill="#8C8C8C" stroke="black" stroke-width="4" mask="url(#path-2-inside-2_2061_2)"/>
<line y1="417.5" x2="84" y2="417.5" stroke="#4F4FDC" stroke-width="15"/>
<path d="M299.273 613V543.182H321.807C326.761 543.182 330.898 544.08 334.216 545.875C337.557 547.648 340.068 550.114 341.75 553.273C343.455 556.409 344.307 560.011 344.307 564.08C344.307 568.148 343.455 571.739 341.75 574.852C340.068 577.966 337.568 580.398 334.25 582.148C330.932 583.898 326.818 584.773 321.909 584.773H302.716V578.943H321.739C325.375 578.943 328.398 578.341 330.807 577.136C333.239 575.932 335.045 574.216 336.227 571.989C337.432 569.761 338.034 567.125 338.034 564.08C338.034 561.034 337.432 558.375 336.227 556.102C335.023 553.807 333.205 552.034 330.773 550.784C328.364 549.534 325.318 548.909 321.636 548.909H305.648V613H299.273ZM330.057 581.5L347.239 613H339.875L322.864 581.5H330.057ZM359.835 613V543.182H382.369C387.324 543.182 391.46 544.136 394.778 546.045C398.119 547.932 400.631 550.5 402.312 553.75C404.017 557 404.869 560.659 404.869 564.727C404.869 568.795 404.028 572.466 402.347 575.739C400.665 578.989 398.165 581.568 394.847 583.477C391.528 585.364 387.403 586.307 382.472 586.307H364.744V580.58H382.301C385.96 580.58 388.994 579.898 391.403 578.534C393.813 577.148 395.608 575.261 396.79 572.875C397.994 570.489 398.597 567.773 398.597 564.727C398.597 561.682 397.994 558.966 396.79 556.58C395.608 554.193 393.801 552.318 391.369 550.955C388.96 549.591 385.903 548.909 382.199 548.909H366.21V613H359.835ZM419.835 543.182H427.199L452.528 604H453.142L478.472 543.182H485.835V613H479.835V556.648H479.29L455.733 613H449.938L426.381 556.648H425.835V613H419.835V543.182Z" fill="black"/>
<path d="M58.2727 107V37.1818H80.8068C85.7614 37.1818 89.8977 38.1364 93.2159 40.0455C96.5568 41.9318 99.0682 44.5 100.75 47.75C102.455 51 103.307 54.6591 103.307 58.7273C103.307 62.7955 102.466 66.4659 100.784 69.7386C99.1023 72.9886 96.6023 75.5682 93.2841 77.4773C89.9659 79.3636 85.8409 80.3068 80.9091 80.3068H63.1818V74.5795H80.7386C84.3977 74.5795 87.4318 73.8977 89.8409 72.5341C92.25 71.1477 94.0455 69.2614 95.2273 66.875C96.4318 64.4886 97.0341 61.7727 97.0341 58.7273C97.0341 55.6818 96.4318 52.9659 95.2273 50.5795C94.0455 48.1932 92.2386 46.3182 89.8068 44.9545C87.3977 43.5909 84.3409 42.9091 80.6364 42.9091H64.6477V107H58.2727ZM118.273 107V37.1818H140.807C145.761 37.1818 149.898 38.0795 153.216 39.875C156.557 41.6477 159.068 44.1136 160.75 47.2727C162.455 50.4091 163.307 54.0114 163.307 58.0795C163.307 62.1477 162.455 65.7386 160.75 68.8523C159.068 71.9659 156.568 74.3977 153.25 76.1477C149.932 77.8977 145.818 78.7727 140.909 78.7727H121.716V72.9432H140.739C144.375 72.9432 147.398 72.3409 149.807 71.1364C152.239 69.9318 154.045 68.2159 155.227 65.9886C156.432 63.7614 157.034 61.125 157.034 58.0795C157.034 55.0341 156.432 52.375 155.227 50.1023C154.023 47.8068 152.205 46.0341 149.773 44.7841C147.364 43.5341 144.318 42.9091 140.636 42.9091H124.648V107H118.273ZM149.057 75.5L166.239 107H158.875L141.864 75.5H149.057ZM178.835 107V37.1818H219.335V42.9091H185.21V69.1932H217.188V74.9205H185.21V101.273H220.017V107H178.835ZM273.744 54.6364C273.358 50.75 271.642 47.6591 268.597 45.3636C265.551 43.0682 261.722 41.9205 257.108 41.9205C253.858 41.9205 250.994 42.4773 248.517 43.5909C246.063 44.7045 244.131 46.25 242.722 48.2273C241.335 50.1818 240.642 52.4091 240.642 54.9091C240.642 56.75 241.04 58.3636 241.835 59.75C242.631 61.1364 243.699 62.3295 245.04 63.3295C246.403 64.3068 247.903 65.1477 249.54 65.8523C251.199 66.5568 252.869 67.1477 254.551 67.625L261.915 69.7386C264.142 70.3523 266.369 71.1364 268.597 72.0909C270.824 73.0455 272.858 74.25 274.699 75.7045C276.563 77.1364 278.051 78.8977 279.165 80.9886C280.301 83.0568 280.869 85.5455 280.869 88.4545C280.869 92.1818 279.903 95.5341 277.972 98.5114C276.04 101.489 273.267 103.852 269.653 105.602C266.04 107.33 261.71 108.193 256.665 108.193C251.915 108.193 247.79 107.409 244.29 105.841C240.79 104.25 238.04 102.057 236.04 99.2614C234.04 96.4659 232.915 93.2273 232.665 89.5455H239.21C239.438 92.2955 240.347 94.625 241.938 96.5341C243.528 98.4432 245.597 99.8977 248.142 100.898C250.688 101.875 253.528 102.364 256.665 102.364C260.142 102.364 263.233 101.784 265.938 100.625C268.665 99.4432 270.801 97.8068 272.347 95.7159C273.915 93.6023 274.699 91.1477 274.699 88.3523C274.699 85.9886 274.085 84.0114 272.858 82.4205C271.631 80.8068 269.915 79.4545 267.71 78.3636C265.528 77.2727 262.994 76.3068 260.108 75.4659L251.756 73.0114C246.278 71.375 242.028 69.1136 239.006 66.2273C235.983 63.3409 234.472 59.6591 234.472 55.1818C234.472 51.4318 235.472 48.1364 237.472 45.2955C239.494 42.4318 242.222 40.2045 245.653 38.6136C249.108 37 252.983 36.1932 257.278 36.1932C261.619 36.1932 265.46 36.9886 268.801 38.5795C272.142 40.1705 274.79 42.3636 276.744 45.1591C278.722 47.9318 279.778 51.0909 279.915 54.6364H273.744ZM334.119 54.6364C333.733 50.75 332.017 47.6591 328.972 45.3636C325.926 43.0682 322.097 41.9205 317.483 41.9205C314.233 41.9205 311.369 42.4773 308.892 43.5909C306.438 44.7045 304.506 46.25 303.097 48.2273C301.71 50.1818 301.017 52.4091 301.017 54.9091C301.017 56.75 301.415 58.3636 302.21 59.75C303.006 61.1364 304.074 62.3295 305.415 63.3295C306.778 64.3068 308.278 65.1477 309.915 65.8523C311.574 66.5568 313.244 67.1477 314.926 67.625L322.29 69.7386C324.517 70.3523 326.744 71.1364 328.972 72.0909C331.199 73.0455 333.233 74.25 335.074 75.7045C336.938 77.1364 338.426 78.8977 339.54 80.9886C340.676 83.0568 341.244 85.5455 341.244 88.4545C341.244 92.1818 340.278 95.5341 338.347 98.5114C336.415 101.489 333.642 103.852 330.028 105.602C326.415 107.33 322.085 108.193 317.04 108.193C312.29 108.193 308.165 107.409 304.665 105.841C301.165 104.25 298.415 102.057 296.415 99.2614C294.415 96.4659 293.29 93.2273 293.04 89.5455H299.585C299.812 92.2955 300.722 94.625 302.312 96.5341C303.903 98.4432 305.972 99.8977 308.517 100.898C311.062 101.875 313.903 102.364 317.04 102.364C320.517 102.364 323.608 101.784 326.312 100.625C329.04 99.4432 331.176 97.8068 332.722 95.7159C334.29 93.6023 335.074 91.1477 335.074 88.3523C335.074 85.9886 334.46 84.0114 333.233 82.4205C332.006 80.8068 330.29 79.4545 328.085 78.3636C325.903 77.2727 323.369 76.3068 320.483 75.4659L312.131 73.0114C306.653 71.375 302.403 69.1136 299.381 66.2273C296.358 63.3409 294.847 59.6591 294.847 55.1818C294.847 51.4318 295.847 48.1364 297.847 45.2955C299.869 42.4318 302.597 40.2045 306.028 38.6136C309.483 37 313.358 36.1932 317.653 36.1932C321.994 36.1932 325.835 36.9886 329.176 38.5795C332.517 40.1705 335.165 42.3636 337.119 45.1591C339.097 47.9318 340.153 51.0909 340.29 54.6364H334.119ZM383.688 107H377.006L402.403 37.1818H409.222L434.619 107H427.938L406.051 45.4659H405.574L383.688 107ZM388.494 80.2386H423.131V85.9659H388.494V80.2386ZM445.085 107V102.33L467.892 76.6932C470.869 73.3295 473.267 70.4545 475.085 68.0682C476.903 65.6818 478.222 63.4773 479.04 61.4545C479.881 59.4318 480.301 57.3295 480.301 55.1477C480.301 52.4886 479.676 50.1705 478.426 48.1932C477.199 46.1932 475.506 44.6364 473.347 43.5227C471.188 42.4091 468.756 41.8523 466.051 41.8523C463.188 41.8523 460.676 42.4659 458.517 43.6932C456.381 44.9205 454.722 46.6023 453.54 48.7386C452.358 50.875 451.767 53.3295 451.767 56.1023H445.665C445.665 52.2386 446.551 48.8182 448.324 45.8409C450.119 42.8409 452.563 40.4886 455.653 38.7841C458.767 37.0795 462.29 36.2273 466.222 36.2273C470.108 36.2273 473.563 37.0682 476.585 38.75C479.608 40.4091 481.983 42.6705 483.71 45.5341C485.438 48.3977 486.301 51.6023 486.301 55.1477C486.301 57.7159 485.847 60.2045 484.938 62.6136C484.051 65.0227 482.517 67.7045 480.335 70.6591C478.153 73.6136 475.131 77.2273 471.267 81.5L453.949 100.83V101.273H488.483V107H445.085Z" fill="black"/>
</svg>
