<svg width="1358" height="1185" viewBox="0 0 1358 1185" fill="none" xmlns="http://www.w3.org/2000/svg">
<g filter="url(#filter0_d_2059_252)">
<path d="M12.2998 592.006V463.845H127.141V204.202H249.352V10.2998H368.493V204.202H605.545V76.0406H727.756V204.202H904.624V76.0406H1020.69V204.202H1196.33V466.501H1325.3V589.35H1196.33V979.81H370.949V1150.3H250.58V979.81H127.141V592.006H12.2998Z" fill="#CCCCCC"/>
<path d="M127.141 592.006H12.2998V463.845H127.141M127.141 592.006V979.81H250.58V1150.3H370.949V979.81H1196.33V589.35M127.141 592.006V463.845M1196.33 589.35H1325.3V466.501H1196.33M1196.33 589.35V466.501M1196.33 466.501V204.202H1020.69V76.0406H904.624V204.202H727.756V76.0406H605.545V204.202H368.493V10.2998H249.352V204.202H127.141V463.845" stroke="#666666" stroke-width="14"/>
</g>
<path d="M634.345 325.3V278.754H665.163V286.868H644.186V297.959H663.118V306.073H644.186V325.3H634.345ZM671.783 325.3V278.754H703.146V286.868H681.624V297.959H701.533V306.073H681.624V317.186H703.237V325.3H671.783ZM710.97 325.3V278.754H742.334V286.868H720.811V297.959H740.72V306.073H720.811V317.186H742.425V325.3H710.97ZM766.658 325.3H750.158V278.754H766.794C771.476 278.754 775.506 279.686 778.885 281.55C782.264 283.398 784.862 286.057 786.68 289.527C788.514 292.997 789.43 297.148 789.43 301.982C789.43 306.83 788.514 310.997 786.68 314.482C784.862 317.966 782.249 320.641 778.84 322.504C775.446 324.368 771.385 325.3 766.658 325.3ZM759.999 316.868H766.249C769.158 316.868 771.605 316.353 773.59 315.323C775.59 314.277 777.09 312.663 778.09 310.482C779.105 308.285 779.612 305.451 779.612 301.982C779.612 298.542 779.105 295.732 778.09 293.55C777.09 291.368 775.597 289.762 773.612 288.732C771.627 287.701 769.18 287.186 766.271 287.186H759.999V316.868Z" fill="#828282"/>
<path d="M1089.01 339.3V250.573H1124.54C1131.06 250.573 1136.51 251.54 1140.87 253.475C1145.23 255.41 1148.51 258.096 1150.7 261.533C1152.9 264.942 1154 268.87 1154 273.318C1154 276.783 1153.3 279.831 1151.92 282.459C1150.53 285.058 1148.63 287.196 1146.2 288.871C1143.8 290.517 1141.06 291.687 1137.97 292.38V293.247C1141.35 293.391 1144.51 294.344 1147.46 296.106C1150.43 297.868 1152.84 300.337 1154.69 303.514C1156.54 306.662 1157.46 310.417 1157.46 314.778C1157.46 319.486 1156.29 323.689 1153.95 327.386C1151.64 331.054 1148.22 333.957 1143.69 336.094C1139.15 338.231 1133.56 339.3 1126.92 339.3H1089.01ZM1107.77 323.963H1123.06C1128.29 323.963 1132.1 322.967 1134.5 320.974C1136.9 318.952 1138.1 316.266 1138.1 312.916C1138.1 310.461 1137.51 308.294 1136.32 306.417C1135.14 304.54 1133.45 303.067 1131.25 301.998C1129.09 300.929 1126.5 300.395 1123.5 300.395H1107.77V323.963ZM1107.77 287.701H1121.68C1124.25 287.701 1126.53 287.253 1128.52 286.358C1130.54 285.434 1132.13 284.134 1133.29 282.459C1134.47 280.784 1135.06 278.776 1135.06 276.437C1135.06 273.231 1133.92 270.646 1131.64 268.682C1129.39 266.718 1126.18 265.736 1122.02 265.736H1107.77V287.701Z" fill="#828282"/>
<path d="M690.573 834.3V764.482H713.107C718.061 764.482 722.198 765.379 725.516 767.175C728.857 768.948 731.368 771.413 733.05 774.573C734.754 777.709 735.607 781.311 735.607 785.379C735.607 789.448 734.754 793.038 733.05 796.152C731.368 799.266 728.868 801.698 725.55 803.448C722.232 805.198 718.118 806.073 713.209 806.073H694.016V800.243H713.038C716.675 800.243 719.698 799.641 722.107 798.436C724.538 797.232 726.345 795.516 727.527 793.288C728.732 791.061 729.334 788.425 729.334 785.379C729.334 782.334 728.732 779.675 727.527 777.402C726.323 775.107 724.504 773.334 722.073 772.084C719.663 770.834 716.618 770.209 712.936 770.209H696.948V834.3H690.573ZM721.357 802.8L738.538 834.3H731.175L714.163 802.8H721.357ZM751.135 834.3V764.482H773.669C778.624 764.482 782.76 765.436 786.078 767.345C789.419 769.232 791.93 771.8 793.612 775.05C795.317 778.3 796.169 781.959 796.169 786.027C796.169 790.095 795.328 793.766 793.646 797.038C791.965 800.288 789.465 802.868 786.146 804.777C782.828 806.663 778.703 807.607 773.771 807.607H756.044V801.879H773.601C777.26 801.879 780.294 801.198 782.703 799.834C785.112 798.448 786.908 796.561 788.09 794.175C789.294 791.788 789.896 789.073 789.896 786.027C789.896 782.982 789.294 780.266 788.09 777.879C786.908 775.493 785.101 773.618 782.669 772.254C780.26 770.891 777.203 770.209 773.499 770.209H757.51V834.3H751.135ZM811.135 764.482H818.499L843.828 825.3H844.442L869.771 764.482H877.135V834.3H871.135V777.948H870.59L847.033 834.3H841.237L817.68 777.948H817.135V834.3H811.135V764.482Z" fill="#828282"/>
<rect x="430.8" y="1020.8" width="629" height="131" fill="#C6C6C6"/>
<rect x="430.8" y="1020.8" width="629" height="131" stroke="url(#paint0_linear_2059_252)" stroke-width="9"/>
<rect x="430.8" y="1020.8" width="629" height="131" stroke="url(#paint1_linear_2059_252)" stroke-opacity="0.2" stroke-width="9"/>
<path d="M636.8 1109.3H622.436V1062.75H637.436C641.951 1062.75 645.815 1063.69 649.027 1065.55C652.239 1067.4 654.701 1070.06 656.413 1073.53C658.126 1076.98 658.982 1081.12 658.982 1085.94C658.982 1090.78 658.118 1094.96 656.391 1098.46C654.663 1101.94 652.148 1104.63 648.845 1106.5C645.542 1108.37 641.527 1109.3 636.8 1109.3ZM628.073 1104.3H636.436C640.285 1104.3 643.474 1103.56 646.004 1102.07C648.535 1100.59 650.421 1098.47 651.663 1095.73C652.906 1092.99 653.527 1089.72 653.527 1085.94C653.527 1082.18 652.913 1078.94 651.686 1076.23C650.459 1073.5 648.626 1071.41 646.186 1069.96C643.747 1068.49 640.709 1067.75 637.073 1067.75H628.073V1104.3ZM668.436 1109.3V1062.75H696.527V1067.75H674.073V1083.48H695.073V1088.48H674.073V1104.3H696.891V1109.3H668.436ZM704.141 1067.75V1062.75H739.05V1067.75H724.413V1109.3H718.777V1067.75H704.141ZM744.22 1109.3H738.311L755.402 1062.75H761.22L778.311 1109.3H772.402L758.493 1070.12H758.129L744.22 1109.3ZM746.402 1091.12H770.22V1096.12H746.402V1091.12ZM791.198 1062.75V1109.3H785.561V1062.75H791.198ZM802.499 1109.3V1062.75H808.135V1104.3H829.771V1109.3H802.499ZM863.953 1074.39C863.68 1072.09 862.574 1070.3 860.635 1069.03C858.696 1067.75 856.317 1067.12 853.499 1067.12C851.438 1067.12 849.635 1067.45 848.09 1068.12C846.559 1068.78 845.362 1069.7 844.499 1070.87C843.65 1072.03 843.226 1073.36 843.226 1074.85C843.226 1076.09 843.521 1077.16 844.112 1078.05C844.718 1078.93 845.491 1079.66 846.43 1080.25C847.37 1080.83 848.355 1081.31 849.385 1081.69C850.415 1082.05 851.362 1082.35 852.226 1082.57L856.953 1083.85C858.165 1084.16 859.514 1084.6 860.999 1085.16C862.499 1085.72 863.93 1086.49 865.294 1087.46C866.673 1088.41 867.809 1089.64 868.703 1091.14C869.597 1092.64 870.044 1094.48 870.044 1096.66C870.044 1099.18 869.385 1101.45 868.067 1103.48C866.764 1105.51 864.855 1107.13 862.34 1108.32C859.84 1109.52 856.802 1110.12 853.226 1110.12C849.893 1110.12 847.006 1109.58 844.567 1108.5C842.143 1107.43 840.234 1105.93 838.84 1104C837.461 1102.08 836.68 1099.85 836.499 1097.3H842.317C842.468 1099.06 843.059 1100.51 844.09 1101.66C845.135 1102.8 846.453 1103.65 848.044 1104.21C849.65 1104.75 851.377 1105.03 853.226 1105.03C855.377 1105.03 857.309 1104.68 859.021 1103.98C860.734 1103.27 862.09 1102.28 863.09 1101.03C864.09 1099.75 864.59 1098.27 864.59 1096.57C864.59 1095.03 864.158 1093.77 863.294 1092.8C862.43 1091.83 861.294 1091.04 859.885 1090.44C858.476 1089.83 856.953 1089.3 855.317 1088.85L849.59 1087.21C845.953 1086.16 843.074 1084.67 840.953 1082.73C838.832 1080.79 837.771 1078.25 837.771 1075.12C837.771 1072.51 838.476 1070.24 839.885 1068.3C841.309 1066.35 843.218 1064.83 845.612 1063.75C848.021 1062.66 850.711 1062.12 853.68 1062.12C856.68 1062.12 859.347 1062.66 861.68 1063.73C864.014 1064.79 865.862 1066.25 867.226 1068.1C868.605 1069.94 869.332 1072.04 869.408 1074.39H863.953Z" fill="#5D5D5D"/>
<mask id="path-8-inside-1_2059_252" fill="white">
<path d="M960.3 613.3C960.3 543.548 931.432 476.653 880.047 427.331C828.662 378.009 758.969 350.3 686.3 350.3C613.631 350.3 543.938 378.009 492.553 427.331C441.168 476.653 412.3 543.548 412.3 613.3L478.808 613.3C478.808 560.479 500.669 509.821 539.581 472.471C578.493 435.121 631.27 414.138 686.3 414.138C741.33 414.138 794.107 435.121 833.019 472.471C871.931 509.821 893.792 560.479 893.792 613.3H960.3Z"/>
</mask>
<path d="M960.3 613.3C960.3 543.548 931.432 476.653 880.047 427.331C828.662 378.009 758.969 350.3 686.3 350.3C613.631 350.3 543.938 378.009 492.553 427.331C441.168 476.653 412.3 543.548 412.3 613.3L478.808 613.3C478.808 560.479 500.669 509.821 539.581 472.471C578.493 435.121 631.27 414.138 686.3 414.138C741.33 414.138 794.107 435.121 833.019 472.471C871.931 509.821 893.792 560.479 893.792 613.3H960.3Z" fill="#D9D9D9" stroke="black" stroke-width="4" mask="url(#path-8-inside-1_2059_252)"/>
<mask id="path-9-inside-2_2059_252" fill="white">
<path d="M960.297 614.498C960.427 587.146 956.111 559.943 947.504 533.868L884.102 553.149C890.619 572.894 893.888 593.494 893.79 614.207L960.297 614.498Z"/>
</mask>
<path d="M960.297 614.498C960.427 587.146 956.111 559.943 947.504 533.868L884.102 553.149C890.619 572.894 893.888 593.494 893.79 614.207L960.297 614.498Z" fill="#8C8C8C" stroke="black" stroke-width="4" mask="url(#path-9-inside-2_2059_252)"/>
<line x1="403.3" y1="605.8" x2="487.3" y2="605.8" stroke="#4F4FDC" stroke-width="15"/>
<defs>
<filter id="filter0_d_2059_252" x="-0.000195503" y="-0.000195503" width="1357.6" height="1184.6" filterUnits="userSpaceOnUse" color-interpolation-filters="sRGB">
<feFlood flood-opacity="0" result="BackgroundImageFix"/>
<feColorMatrix in="SourceAlpha" type="matrix" values="0 0 0 0 0 0 0 0 0 0 0 0 0 0 0 0 0 0 127 0" result="hardAlpha"/>
<feOffset dx="10" dy="12"/>
<feGaussianBlur stdDeviation="7.65"/>
<feComposite in2="hardAlpha" operator="out"/>
<feColorMatrix type="matrix" values="0 0 0 0 0 0 0 0 0 0 0 0 0 0 0 0 0 0 0.25 0"/>
<feBlend mode="normal" in2="BackgroundImageFix" result="effect1_dropShadow_2059_252"/>
<feBlend mode="normal" in="SourceGraphic" in2="effect1_dropShadow_2059_252" result="shape"/>
</filter>
<linearGradient id="paint0_linear_2059_252" x1="426.3" y1="1016.3" x2="476.519" y2="1253.97" gradientUnits="userSpaceOnUse">
<stop offset="0.540565" stop-color="white"/>
<stop offset="0.615385" stop-color="#797979"/>
</linearGradient>
<linearGradient id="paint1_linear_2059_252" x1="426.3" y1="1016.3" x2="493.38" y2="1401.73" gradientUnits="userSpaceOnUse">
<stop stop-color="#FFFBFB"/>
<stop offset="1"/>
</linearGradient>
</defs>
</svg>
