<svg width="557" height="685" viewBox="0 0 557 685" fill="none" xmlns="http://www.w3.org/2000/svg">
<mask id="path-1-inside-1_2059_226" fill="white">
<path d="M557 422C557 352.248 528.132 285.353 476.747 236.031C425.362 186.709 355.669 159 283 159C210.331 159 140.638 186.709 89.2528 236.031C37.8678 285.353 9.00001 352.248 9 422H75.508C75.508 369.179 97.3687 318.521 136.281 281.171C175.193 243.821 227.97 222.838 283 222.838C338.03 222.838 390.807 243.821 429.719 281.171C468.631 318.521 490.492 369.179 490.492 422H557Z"/>
</mask>
<path d="M557 422C557 352.248 528.132 285.353 476.747 236.031C425.362 186.709 355.669 159 283 159C210.331 159 140.638 186.709 89.2528 236.031C37.8678 285.353 9.00001 352.248 9 422H75.508C75.508 369.179 97.3687 318.521 136.281 281.171C175.193 243.821 227.97 222.838 283 222.838C338.03 222.838 390.807 243.821 429.719 281.171C468.631 318.521 490.492 369.179 490.492 422H557Z" fill="#D9D9D9" stroke="black" stroke-width="4" mask="url(#path-1-inside-1_2059_226)"/>
<mask id="path-2-inside-2_2059_226" fill="white">
<path d="M556.997 423.198C557.127 395.846 552.811 368.643 544.205 342.568L480.802 361.849C487.32 381.594 490.588 402.195 490.49 422.907L556.997 423.198Z"/>
</mask>
<path d="M556.997 423.198C557.127 395.846 552.811 368.643 544.205 342.568L480.802 361.849C487.32 381.594 490.588 402.195 490.49 422.907L556.997 423.198Z" fill="#8C8C8C" stroke="black" stroke-width="4" mask="url(#path-2-inside-2_2059_226)"/>
<line y1="414.5" x2="84" y2="414.5" stroke="#4F4FDC" stroke-width="15"/>
<path d="M292.273 618V548.182H314.807C319.761 548.182 323.898 549.08 327.216 550.875C330.557 552.648 333.068 555.114 334.75 558.273C336.455 561.409 337.307 565.011 337.307 569.08C337.307 573.148 336.455 576.739 334.75 579.852C333.068 582.966 330.568 585.398 327.25 587.148C323.932 588.898 319.818 589.773 314.909 589.773H295.716V583.943H314.739C318.375 583.943 321.398 583.341 323.807 582.136C326.239 580.932 328.045 579.216 329.227 576.989C330.432 574.761 331.034 572.125 331.034 569.08C331.034 566.034 330.432 563.375 329.227 561.102C328.023 558.807 326.205 557.034 323.773 555.784C321.364 554.534 318.318 553.909 314.636 553.909H298.648V618H292.273ZM323.057 586.5L340.239 618H332.875L315.864 586.5H323.057ZM352.835 618V548.182H375.369C380.324 548.182 384.46 549.136 387.778 551.045C391.119 552.932 393.631 555.5 395.312 558.75C397.017 562 397.869 565.659 397.869 569.727C397.869 573.795 397.028 577.466 395.347 580.739C393.665 583.989 391.165 586.568 387.847 588.477C384.528 590.364 380.403 591.307 375.472 591.307H357.744V585.58H375.301C378.96 585.58 381.994 584.898 384.403 583.534C386.813 582.148 388.608 580.261 389.79 577.875C390.994 575.489 391.597 572.773 391.597 569.727C391.597 566.682 390.994 563.966 389.79 561.58C388.608 559.193 386.801 557.318 384.369 555.955C381.96 554.591 378.903 553.909 375.199 553.909H359.21V618H352.835ZM412.835 548.182H420.199L445.528 609H446.142L471.472 548.182H478.835V618H472.835V561.648H472.29L448.733 618H442.938L419.381 561.648H418.835V618H412.835V548.182Z" fill="black"/>
<path d="M85.2727 107V37.1818H107.807C112.761 37.1818 116.898 38.1364 120.216 40.0455C123.557 41.9318 126.068 44.5 127.75 47.75C129.455 51 130.307 54.6591 130.307 58.7273C130.307 62.7955 129.466 66.4659 127.784 69.7386C126.102 72.9886 123.602 75.5682 120.284 77.4773C116.966 79.3636 112.841 80.3068 107.909 80.3068H90.1818V74.5795H107.739C111.398 74.5795 114.432 73.8977 116.841 72.5341C119.25 71.1477 121.045 69.2614 122.227 66.875C123.432 64.4886 124.034 61.7727 124.034 58.7273C124.034 55.6818 123.432 52.9659 122.227 50.5795C121.045 48.1932 119.239 46.3182 116.807 44.9545C114.398 43.5909 111.341 42.9091 107.636 42.9091H91.6477V107H85.2727ZM145.273 107V37.1818H167.807C172.761 37.1818 176.898 38.0795 180.216 39.875C183.557 41.6477 186.068 44.1136 187.75 47.2727C189.455 50.4091 190.307 54.0114 190.307 58.0795C190.307 62.1477 189.455 65.7386 187.75 68.8523C186.068 71.9659 183.568 74.3977 180.25 76.1477C176.932 77.8977 172.818 78.7727 167.909 78.7727H148.716V72.9432H167.739C171.375 72.9432 174.398 72.3409 176.807 71.1364C179.239 69.9318 181.045 68.2159 182.227 65.9886C183.432 63.7614 184.034 61.125 184.034 58.0795C184.034 55.0341 183.432 52.375 182.227 50.1023C181.023 47.8068 179.205 46.0341 176.773 44.7841C174.364 43.5341 171.318 42.9091 167.636 42.9091H151.648V107H145.273ZM176.057 75.5L193.239 107H185.875L168.864 75.5H176.057ZM205.835 107V37.1818H246.335V42.9091H212.21V69.1932H244.188V74.9205H212.21V101.273H247.017V107H205.835ZM300.744 54.6364C300.358 50.75 298.642 47.6591 295.597 45.3636C292.551 43.0682 288.722 41.9205 284.108 41.9205C280.858 41.9205 277.994 42.4773 275.517 43.5909C273.063 44.7045 271.131 46.25 269.722 48.2273C268.335 50.1818 267.642 52.4091 267.642 54.9091C267.642 56.75 268.04 58.3636 268.835 59.75C269.631 61.1364 270.699 62.3295 272.04 63.3295C273.403 64.3068 274.903 65.1477 276.54 65.8523C278.199 66.5568 279.869 67.1477 281.551 67.625L288.915 69.7386C291.142 70.3523 293.369 71.1364 295.597 72.0909C297.824 73.0455 299.858 74.25 301.699 75.7045C303.563 77.1364 305.051 78.8977 306.165 80.9886C307.301 83.0568 307.869 85.5455 307.869 88.4545C307.869 92.1818 306.903 95.5341 304.972 98.5114C303.04 101.489 300.267 103.852 296.653 105.602C293.04 107.33 288.71 108.193 283.665 108.193C278.915 108.193 274.79 107.409 271.29 105.841C267.79 104.25 265.04 102.057 263.04 99.2614C261.04 96.4659 259.915 93.2273 259.665 89.5455H266.21C266.438 92.2955 267.347 94.625 268.938 96.5341C270.528 98.4432 272.597 99.8977 275.142 100.898C277.688 101.875 280.528 102.364 283.665 102.364C287.142 102.364 290.233 101.784 292.938 100.625C295.665 99.4432 297.801 97.8068 299.347 95.7159C300.915 93.6023 301.699 91.1477 301.699 88.3523C301.699 85.9886 301.085 84.0114 299.858 82.4205C298.631 80.8068 296.915 79.4545 294.71 78.3636C292.528 77.2727 289.994 76.3068 287.108 75.4659L278.756 73.0114C273.278 71.375 269.028 69.1136 266.006 66.2273C262.983 63.3409 261.472 59.6591 261.472 55.1818C261.472 51.4318 262.472 48.1364 264.472 45.2955C266.494 42.4318 269.222 40.2045 272.653 38.6136C276.108 37 279.983 36.1932 284.278 36.1932C288.619 36.1932 292.46 36.9886 295.801 38.5795C299.142 40.1705 301.79 42.3636 303.744 45.1591C305.722 47.9318 306.778 51.0909 306.915 54.6364H300.744ZM361.119 54.6364C360.733 50.75 359.017 47.6591 355.972 45.3636C352.926 43.0682 349.097 41.9205 344.483 41.9205C341.233 41.9205 338.369 42.4773 335.892 43.5909C333.438 44.7045 331.506 46.25 330.097 48.2273C328.71 50.1818 328.017 52.4091 328.017 54.9091C328.017 56.75 328.415 58.3636 329.21 59.75C330.006 61.1364 331.074 62.3295 332.415 63.3295C333.778 64.3068 335.278 65.1477 336.915 65.8523C338.574 66.5568 340.244 67.1477 341.926 67.625L349.29 69.7386C351.517 70.3523 353.744 71.1364 355.972 72.0909C358.199 73.0455 360.233 74.25 362.074 75.7045C363.938 77.1364 365.426 78.8977 366.54 80.9886C367.676 83.0568 368.244 85.5455 368.244 88.4545C368.244 92.1818 367.278 95.5341 365.347 98.5114C363.415 101.489 360.642 103.852 357.028 105.602C353.415 107.33 349.085 108.193 344.04 108.193C339.29 108.193 335.165 107.409 331.665 105.841C328.165 104.25 325.415 102.057 323.415 99.2614C321.415 96.4659 320.29 93.2273 320.04 89.5455H326.585C326.812 92.2955 327.722 94.625 329.312 96.5341C330.903 98.4432 332.972 99.8977 335.517 100.898C338.062 101.875 340.903 102.364 344.04 102.364C347.517 102.364 350.608 101.784 353.312 100.625C356.04 99.4432 358.176 97.8068 359.722 95.7159C361.29 93.6023 362.074 91.1477 362.074 88.3523C362.074 85.9886 361.46 84.0114 360.233 82.4205C359.006 80.8068 357.29 79.4545 355.085 78.3636C352.903 77.2727 350.369 76.3068 347.483 75.4659L339.131 73.0114C333.653 71.375 329.403 69.1136 326.381 66.2273C323.358 63.3409 321.847 59.6591 321.847 55.1818C321.847 51.4318 322.847 48.1364 324.847 45.2955C326.869 42.4318 329.597 40.2045 333.028 38.6136C336.483 37 340.358 36.1932 344.653 36.1932C348.994 36.1932 352.835 36.9886 356.176 38.5795C359.517 40.1705 362.165 42.3636 364.119 45.1591C366.097 47.9318 367.153 51.0909 367.29 54.6364H361.119ZM410.585 107V37.1818H434.142C438.688 37.1818 442.472 37.9773 445.494 39.5682C448.54 41.1591 450.824 43.3295 452.347 46.0795C453.869 48.8295 454.631 51.9545 454.631 55.4545C454.631 58.3636 454.142 60.8523 453.165 62.9205C452.188 64.9886 450.858 66.6591 449.176 67.9318C447.494 69.2045 445.619 70.125 443.551 70.6932V71.2386C445.801 71.3977 447.983 72.1932 450.097 73.625C452.21 75.0341 453.949 77.0114 455.312 79.5568C456.676 82.1023 457.358 85.1477 457.358 88.6932C457.358 92.2159 456.574 95.3636 455.006 98.1364C453.438 100.886 451.028 103.057 447.778 104.648C444.551 106.216 440.438 107 435.438 107H410.585ZM416.96 101.273H435.438C440.824 101.273 444.801 100.08 447.369 97.6932C449.96 95.3068 451.256 92.3068 451.256 88.6932C451.256 86.0341 450.608 83.625 449.312 81.4659C448.04 79.2841 446.233 77.5568 443.892 76.2841C441.574 75.0114 438.847 74.375 435.71 74.375H416.96V101.273ZM416.96 68.7159H434.722C437.472 68.7159 439.881 68.1477 441.949 67.0114C444.017 65.875 445.631 64.3068 446.79 62.3068C447.949 60.3068 448.528 58.0227 448.528 55.4545C448.528 51.75 447.324 48.7386 444.915 46.4205C442.506 44.0795 438.915 42.9091 434.142 42.9091H416.96V68.7159ZM492.787 37.1818V107H486.412V43.8636H486.003L469.639 54.7386V48.125L486.139 37.1818H492.787Z" fill="black"/>
</svg>
