<svg width="548" height="694" viewBox="0 0 548 694" fill="none" xmlns="http://www.w3.org/2000/svg">
<mask id="path-1-inside-1_2059_234" fill="white">
<path d="M548 431C548 361.248 519.132 294.353 467.747 245.031C416.362 195.709 346.669 168 274 168C201.331 168 131.638 195.709 80.2528 245.031C28.8678 294.353 1.09728e-05 361.248 0 431H66.508C66.508 378.179 88.3687 327.521 127.281 290.171C166.193 252.821 218.97 231.838 274 231.838C329.03 231.838 381.807 252.821 420.719 290.171C459.631 327.521 481.492 378.179 481.492 431H548Z"/>
</mask>
<path d="M548 431C548 361.248 519.132 294.353 467.747 245.031C416.362 195.709 346.669 168 274 168C201.331 168 131.638 195.709 80.2528 245.031C28.8678 294.353 1.09728e-05 361.248 0 431H66.508C66.508 378.179 88.3687 327.521 127.281 290.171C166.193 252.821 218.97 231.838 274 231.838C329.03 231.838 381.807 252.821 420.719 290.171C459.631 327.521 481.492 378.179 481.492 431H548Z" fill="#D9D9D9" stroke="black" stroke-width="4" mask="url(#path-1-inside-1_2059_234)"/>
<mask id="path-2-inside-2_2059_234" fill="white">
<path d="M547.997 432.198C548.127 404.846 543.811 377.643 535.205 351.568L471.802 370.849C478.32 390.594 481.588 411.195 481.49 431.907L547.997 432.198Z"/>
</mask>
<path d="M547.997 432.198C548.127 404.846 543.811 377.643 535.205 351.568L471.802 370.849C478.32 390.594 481.588 411.195 481.49 431.907L547.997 432.198Z" fill="#8C8C8C" stroke="black" stroke-width="4" mask="url(#path-2-inside-2_2059_234)"/>
<line x1="92.2784" y1="220.672" x2="151.953" y2="279.789" stroke="#4F4FDC" stroke-width="15"/>
<path d="M283.273 603V533.182H305.807C310.761 533.182 314.898 534.08 318.216 535.875C321.557 537.648 324.068 540.114 325.75 543.273C327.455 546.409 328.307 550.011 328.307 554.08C328.307 558.148 327.455 561.739 325.75 564.852C324.068 567.966 321.568 570.398 318.25 572.148C314.932 573.898 310.818 574.773 305.909 574.773H286.716V568.943H305.739C309.375 568.943 312.398 568.341 314.807 567.136C317.239 565.932 319.045 564.216 320.227 561.989C321.432 559.761 322.034 557.125 322.034 554.08C322.034 551.034 321.432 548.375 320.227 546.102C319.023 543.807 317.205 542.034 314.773 540.784C312.364 539.534 309.318 538.909 305.636 538.909H289.648V603H283.273ZM314.057 571.5L331.239 603H323.875L306.864 571.5H314.057ZM343.835 603V533.182H366.369C371.324 533.182 375.46 534.136 378.778 536.045C382.119 537.932 384.631 540.5 386.312 543.75C388.017 547 388.869 550.659 388.869 554.727C388.869 558.795 388.028 562.466 386.347 565.739C384.665 568.989 382.165 571.568 378.847 573.477C375.528 575.364 371.403 576.307 366.472 576.307H348.744V570.58H366.301C369.96 570.58 372.994 569.898 375.403 568.534C377.813 567.148 379.608 565.261 380.79 562.875C381.994 560.489 382.597 557.773 382.597 554.727C382.597 551.682 381.994 548.966 380.79 546.58C379.608 544.193 377.801 542.318 375.369 540.955C372.96 539.591 369.903 538.909 366.199 538.909H350.21V603H343.835ZM403.835 533.182H411.199L436.528 594H437.142L462.472 533.182H469.835V603H463.835V546.648H463.29L439.733 603H433.938L410.381 546.648H409.835V603H403.835V533.182Z" fill="black"/>
<path d="M74.2727 107V37.1818H96.8068C101.761 37.1818 105.898 38.1364 109.216 40.0455C112.557 41.9318 115.068 44.5 116.75 47.75C118.455 51 119.307 54.6591 119.307 58.7273C119.307 62.7955 118.466 66.4659 116.784 69.7386C115.102 72.9886 112.602 75.5682 109.284 77.4773C105.966 79.3636 101.841 80.3068 96.9091 80.3068H79.1818V74.5795H96.7386C100.398 74.5795 103.432 73.8977 105.841 72.5341C108.25 71.1477 110.045 69.2614 111.227 66.875C112.432 64.4886 113.034 61.7727 113.034 58.7273C113.034 55.6818 112.432 52.9659 111.227 50.5795C110.045 48.1932 108.239 46.3182 105.807 44.9545C103.398 43.5909 100.341 42.9091 96.6364 42.9091H80.6477V107H74.2727ZM134.273 107V37.1818H156.807C161.761 37.1818 165.898 38.0795 169.216 39.875C172.557 41.6477 175.068 44.1136 176.75 47.2727C178.455 50.4091 179.307 54.0114 179.307 58.0795C179.307 62.1477 178.455 65.7386 176.75 68.8523C175.068 71.9659 172.568 74.3977 169.25 76.1477C165.932 77.8977 161.818 78.7727 156.909 78.7727H137.716V72.9432H156.739C160.375 72.9432 163.398 72.3409 165.807 71.1364C168.239 69.9318 170.045 68.2159 171.227 65.9886C172.432 63.7614 173.034 61.125 173.034 58.0795C173.034 55.0341 172.432 52.375 171.227 50.1023C170.023 47.8068 168.205 46.0341 165.773 44.7841C163.364 43.5341 160.318 42.9091 156.636 42.9091H140.648V107H134.273ZM165.057 75.5L182.239 107H174.875L157.864 75.5H165.057ZM194.835 107V37.1818H235.335V42.9091H201.21V69.1932H233.188V74.9205H201.21V101.273H236.017V107H194.835ZM289.744 54.6364C289.358 50.75 287.642 47.6591 284.597 45.3636C281.551 43.0682 277.722 41.9205 273.108 41.9205C269.858 41.9205 266.994 42.4773 264.517 43.5909C262.063 44.7045 260.131 46.25 258.722 48.2273C257.335 50.1818 256.642 52.4091 256.642 54.9091C256.642 56.75 257.04 58.3636 257.835 59.75C258.631 61.1364 259.699 62.3295 261.04 63.3295C262.403 64.3068 263.903 65.1477 265.54 65.8523C267.199 66.5568 268.869 67.1477 270.551 67.625L277.915 69.7386C280.142 70.3523 282.369 71.1364 284.597 72.0909C286.824 73.0455 288.858 74.25 290.699 75.7045C292.563 77.1364 294.051 78.8977 295.165 80.9886C296.301 83.0568 296.869 85.5455 296.869 88.4545C296.869 92.1818 295.903 95.5341 293.972 98.5114C292.04 101.489 289.267 103.852 285.653 105.602C282.04 107.33 277.71 108.193 272.665 108.193C267.915 108.193 263.79 107.409 260.29 105.841C256.79 104.25 254.04 102.057 252.04 99.2614C250.04 96.4659 248.915 93.2273 248.665 89.5455H255.21C255.438 92.2955 256.347 94.625 257.938 96.5341C259.528 98.4432 261.597 99.8977 264.142 100.898C266.688 101.875 269.528 102.364 272.665 102.364C276.142 102.364 279.233 101.784 281.938 100.625C284.665 99.4432 286.801 97.8068 288.347 95.7159C289.915 93.6023 290.699 91.1477 290.699 88.3523C290.699 85.9886 290.085 84.0114 288.858 82.4205C287.631 80.8068 285.915 79.4545 283.71 78.3636C281.528 77.2727 278.994 76.3068 276.108 75.4659L267.756 73.0114C262.278 71.375 258.028 69.1136 255.006 66.2273C251.983 63.3409 250.472 59.6591 250.472 55.1818C250.472 51.4318 251.472 48.1364 253.472 45.2955C255.494 42.4318 258.222 40.2045 261.653 38.6136C265.108 37 268.983 36.1932 273.278 36.1932C277.619 36.1932 281.46 36.9886 284.801 38.5795C288.142 40.1705 290.79 42.3636 292.744 45.1591C294.722 47.9318 295.778 51.0909 295.915 54.6364H289.744ZM350.119 54.6364C349.733 50.75 348.017 47.6591 344.972 45.3636C341.926 43.0682 338.097 41.9205 333.483 41.9205C330.233 41.9205 327.369 42.4773 324.892 43.5909C322.438 44.7045 320.506 46.25 319.097 48.2273C317.71 50.1818 317.017 52.4091 317.017 54.9091C317.017 56.75 317.415 58.3636 318.21 59.75C319.006 61.1364 320.074 62.3295 321.415 63.3295C322.778 64.3068 324.278 65.1477 325.915 65.8523C327.574 66.5568 329.244 67.1477 330.926 67.625L338.29 69.7386C340.517 70.3523 342.744 71.1364 344.972 72.0909C347.199 73.0455 349.233 74.25 351.074 75.7045C352.938 77.1364 354.426 78.8977 355.54 80.9886C356.676 83.0568 357.244 85.5455 357.244 88.4545C357.244 92.1818 356.278 95.5341 354.347 98.5114C352.415 101.489 349.642 103.852 346.028 105.602C342.415 107.33 338.085 108.193 333.04 108.193C328.29 108.193 324.165 107.409 320.665 105.841C317.165 104.25 314.415 102.057 312.415 99.2614C310.415 96.4659 309.29 93.2273 309.04 89.5455H315.585C315.812 92.2955 316.722 94.625 318.312 96.5341C319.903 98.4432 321.972 99.8977 324.517 100.898C327.062 101.875 329.903 102.364 333.04 102.364C336.517 102.364 339.608 101.784 342.312 100.625C345.04 99.4432 347.176 97.8068 348.722 95.7159C350.29 93.6023 351.074 91.1477 351.074 88.3523C351.074 85.9886 350.46 84.0114 349.233 82.4205C348.006 80.8068 346.29 79.4545 344.085 78.3636C341.903 77.2727 339.369 76.3068 336.483 75.4659L328.131 73.0114C322.653 71.375 318.403 69.1136 315.381 66.2273C312.358 63.3409 310.847 59.6591 310.847 55.1818C310.847 51.4318 311.847 48.1364 313.847 45.2955C315.869 42.4318 318.597 40.2045 322.028 38.6136C325.483 37 329.358 36.1932 333.653 36.1932C337.994 36.1932 341.835 36.9886 345.176 38.5795C348.517 40.1705 351.165 42.3636 353.119 45.1591C355.097 47.9318 356.153 51.0909 356.29 54.6364H350.119ZM399.585 107V37.1818H423.142C427.688 37.1818 431.472 37.9773 434.494 39.5682C437.54 41.1591 439.824 43.3295 441.347 46.0795C442.869 48.8295 443.631 51.9545 443.631 55.4545C443.631 58.3636 443.142 60.8523 442.165 62.9205C441.188 64.9886 439.858 66.6591 438.176 67.9318C436.494 69.2045 434.619 70.125 432.551 70.6932V71.2386C434.801 71.3977 436.983 72.1932 439.097 73.625C441.21 75.0341 442.949 77.0114 444.312 79.5568C445.676 82.1023 446.358 85.1477 446.358 88.6932C446.358 92.2159 445.574 95.3636 444.006 98.1364C442.438 100.886 440.028 103.057 436.778 104.648C433.551 106.216 429.438 107 424.438 107H399.585ZM405.96 101.273H424.438C429.824 101.273 433.801 100.08 436.369 97.6932C438.96 95.3068 440.256 92.3068 440.256 88.6932C440.256 86.0341 439.608 83.625 438.312 81.4659C437.04 79.2841 435.233 77.5568 432.892 76.2841C430.574 75.0114 427.847 74.375 424.71 74.375H405.96V101.273ZM405.96 68.7159H423.722C426.472 68.7159 428.881 68.1477 430.949 67.0114C433.017 65.875 434.631 64.3068 435.79 62.3068C436.949 60.3068 437.528 58.0227 437.528 55.4545C437.528 51.75 436.324 48.7386 433.915 46.4205C431.506 44.0795 427.915 42.9091 423.142 42.9091H405.96V68.7159ZM460.241 107V102.33L483.048 76.6932C486.026 73.3295 488.423 70.4545 490.241 68.0682C492.06 65.6818 493.378 63.4773 494.196 61.4545C495.037 59.4318 495.457 57.3295 495.457 55.1477C495.457 52.4886 494.832 50.1705 493.582 48.1932C492.355 46.1932 490.662 44.6364 488.503 43.5227C486.344 42.4091 483.912 41.8523 481.207 41.8523C478.344 41.8523 475.832 42.4659 473.673 43.6932C471.537 44.9205 469.878 46.6023 468.696 48.7386C467.514 50.875 466.923 53.3295 466.923 56.1023H460.821C460.821 52.2386 461.707 48.8182 463.48 45.8409C465.276 42.8409 467.719 40.4886 470.81 38.7841C473.923 37.0795 477.446 36.2273 481.378 36.2273C485.264 36.2273 488.719 37.0682 491.741 38.75C494.764 40.4091 497.139 42.6705 498.866 45.5341C500.594 48.3977 501.457 51.6023 501.457 55.1477C501.457 57.7159 501.003 60.2045 500.094 62.6136C499.207 65.0227 497.673 67.7045 495.491 70.6591C493.31 73.6136 490.287 77.2273 486.423 81.5L469.105 100.83V101.273H503.639V107H460.241Z" fill="black"/>
</svg>
