<svg width="55" height="44" viewBox="0 0 55 44" fill="none" xmlns="http://www.w3.org/2000/svg">
<path d="M54.5 26H30M30 26V41.5H0.5V11H30V26Z" stroke="black"/>
<path d="M16.6552 35.4091C14.8995 35.4091 13.3697 34.9702 12.0657 34.0923C10.7702 33.2145 9.76456 32.0128 9.04865 30.4872C8.33274 28.9616 7.97479 27.223 7.97479 25.2713C7.97479 23.3026 8.337 21.5511 9.06143 20.017C9.79439 18.483 10.8086 17.2812 12.104 16.4119C13.3995 15.5341 14.9038 15.0952 16.6168 15.0952C17.9293 15.0952 19.1183 15.3509 20.1836 15.8622C21.2489 16.3651 22.1268 17.0767 22.8171 17.9972C23.516 18.9091 23.9549 19.9744 24.1339 21.1932H21.8327C21.5941 20.0852 21.0188 19.1392 20.1069 18.3551C19.2035 17.5625 18.0529 17.1662 16.6552 17.1662C15.4023 17.1662 14.2944 17.5071 13.3313 18.1889C12.3683 18.8622 11.614 19.804 11.0685 21.0142C10.5316 22.2159 10.2631 23.6094 10.2631 25.1946C10.2631 26.7884 10.5273 28.1989 11.0558 29.4261C11.5842 30.6449 12.3256 31.5994 13.2802 32.2898C14.2433 32.9801 15.3683 33.3253 16.6552 33.3253C17.5245 33.3253 18.3171 33.1634 19.033 32.8395C19.7575 32.5071 20.3626 32.0384 20.8484 31.4332C21.3427 30.8281 21.6751 30.108 21.8455 29.2727H24.1467C23.9762 30.4574 23.5543 31.5142 22.881 32.4432C22.2163 33.3636 21.3512 34.0881 20.2859 34.6165C19.229 35.1449 18.0188 35.4091 16.6552 35.4091Z" fill="black"/>
</svg>
