<svg width="548" height="694" viewBox="0 0 548 694" fill="none" xmlns="http://www.w3.org/2000/svg">
<path d="M296.273 625V555.182H318.807C323.761 555.182 327.898 556.08 331.216 557.875C334.557 559.648 337.068 562.114 338.75 565.273C340.455 568.409 341.307 572.011 341.307 576.08C341.307 580.148 340.455 583.739 338.75 586.852C337.068 589.966 334.568 592.398 331.25 594.148C327.932 595.898 323.818 596.773 318.909 596.773H299.716V590.943H318.739C322.375 590.943 325.398 590.341 327.807 589.136C330.239 587.932 332.045 586.216 333.227 583.989C334.432 581.761 335.034 579.125 335.034 576.08C335.034 573.034 334.432 570.375 333.227 568.102C332.023 565.807 330.205 564.034 327.773 562.784C325.364 561.534 322.318 560.909 318.636 560.909H302.648V625H296.273ZM327.057 593.5L344.239 625H336.875L319.864 593.5H327.057ZM356.835 625V555.182H379.369C384.324 555.182 388.46 556.136 391.778 558.045C395.119 559.932 397.631 562.5 399.312 565.75C401.017 569 401.869 572.659 401.869 576.727C401.869 580.795 401.028 584.466 399.347 587.739C397.665 590.989 395.165 593.568 391.847 595.477C388.528 597.364 384.403 598.307 379.472 598.307H361.744V592.58H379.301C382.96 592.58 385.994 591.898 388.403 590.534C390.813 589.148 392.608 587.261 393.79 584.875C394.994 582.489 395.597 579.773 395.597 576.727C395.597 573.682 394.994 570.966 393.79 568.58C392.608 566.193 390.801 564.318 388.369 562.955C385.96 561.591 382.903 560.909 379.199 560.909H363.21V625H356.835ZM416.835 555.182H424.199L449.528 616H450.142L475.472 555.182H482.835V625H476.835V568.648H476.29L452.733 625H446.938L423.381 568.648H422.835V625H416.835V555.182Z" fill="black"/>
<mask id="path-2-inside-1_2058_209" fill="white">
<path d="M548 431C548 361.248 519.132 294.353 467.747 245.031C416.362 195.709 346.669 168 274 168C201.331 168 131.638 195.709 80.2528 245.031C28.8678 294.353 1.09728e-05 361.248 0 431H66.508C66.508 378.179 88.3687 327.521 127.281 290.171C166.193 252.821 218.97 231.838 274 231.838C329.03 231.838 381.807 252.821 420.719 290.171C459.631 327.521 481.492 378.179 481.492 431H548Z"/>
</mask>
<path d="M548 431C548 361.248 519.132 294.353 467.747 245.031C416.362 195.709 346.669 168 274 168C201.331 168 131.638 195.709 80.2528 245.031C28.8678 294.353 1.09728e-05 361.248 0 431H66.508C66.508 378.179 88.3687 327.521 127.281 290.171C166.193 252.821 218.97 231.838 274 231.838C329.03 231.838 381.807 252.821 420.719 290.171C459.631 327.521 481.492 378.179 481.492 431H548Z" fill="#D9D9D9" stroke="black" stroke-width="4" mask="url(#path-2-inside-1_2058_209)"/>
<mask id="path-3-inside-2_2058_209" fill="white">
<path d="M547.997 432.198C548.127 404.846 543.811 377.643 535.205 351.568L471.802 370.849C478.32 390.594 481.588 411.195 481.49 431.907L547.997 432.198Z"/>
</mask>
<path d="M547.997 432.198C548.127 404.846 543.811 377.643 535.205 351.568L471.802 370.849C478.32 390.594 481.588 411.195 481.49 431.907L547.997 432.198Z" fill="#8C8C8C" stroke="black" stroke-width="4" mask="url(#path-3-inside-2_2058_209)"/>
<line x1="92.2784" y1="220.672" x2="151.953" y2="279.789" stroke="#4F4FDC" stroke-width="15"/>
<path d="M54.2727 107V37.1818H76.8068C81.7614 37.1818 85.8977 38.1364 89.2159 40.0455C92.5568 41.9318 95.0682 44.5 96.75 47.75C98.4545 51 99.3068 54.6591 99.3068 58.7273C99.3068 62.7955 98.4659 66.4659 96.7841 69.7386C95.1023 72.9886 92.6023 75.5682 89.2841 77.4773C85.9659 79.3636 81.8409 80.3068 76.9091 80.3068H59.1818V74.5795H76.7386C80.3977 74.5795 83.4318 73.8977 85.8409 72.5341C88.25 71.1477 90.0455 69.2614 91.2273 66.875C92.4318 64.4886 93.0341 61.7727 93.0341 58.7273C93.0341 55.6818 92.4318 52.9659 91.2273 50.5795C90.0455 48.1932 88.2386 46.3182 85.8068 44.9545C83.3977 43.5909 80.3409 42.9091 76.6364 42.9091H60.6477V107H54.2727ZM114.273 107V37.1818H136.807C141.761 37.1818 145.898 38.0795 149.216 39.875C152.557 41.6477 155.068 44.1136 156.75 47.2727C158.455 50.4091 159.307 54.0114 159.307 58.0795C159.307 62.1477 158.455 65.7386 156.75 68.8523C155.068 71.9659 152.568 74.3977 149.25 76.1477C145.932 77.8977 141.818 78.7727 136.909 78.7727H117.716V72.9432H136.739C140.375 72.9432 143.398 72.3409 145.807 71.1364C148.239 69.9318 150.045 68.2159 151.227 65.9886C152.432 63.7614 153.034 61.125 153.034 58.0795C153.034 55.0341 152.432 52.375 151.227 50.1023C150.023 47.8068 148.205 46.0341 145.773 44.7841C143.364 43.5341 140.318 42.9091 136.636 42.9091H120.648V107H114.273ZM145.057 75.5L162.239 107H154.875L137.864 75.5H145.057ZM174.835 107V37.1818H215.335V42.9091H181.21V69.1932H213.188V74.9205H181.21V101.273H216.017V107H174.835ZM269.744 54.6364C269.358 50.75 267.642 47.6591 264.597 45.3636C261.551 43.0682 257.722 41.9205 253.108 41.9205C249.858 41.9205 246.994 42.4773 244.517 43.5909C242.063 44.7045 240.131 46.25 238.722 48.2273C237.335 50.1818 236.642 52.4091 236.642 54.9091C236.642 56.75 237.04 58.3636 237.835 59.75C238.631 61.1364 239.699 62.3295 241.04 63.3295C242.403 64.3068 243.903 65.1477 245.54 65.8523C247.199 66.5568 248.869 67.1477 250.551 67.625L257.915 69.7386C260.142 70.3523 262.369 71.1364 264.597 72.0909C266.824 73.0455 268.858 74.25 270.699 75.7045C272.563 77.1364 274.051 78.8977 275.165 80.9886C276.301 83.0568 276.869 85.5455 276.869 88.4545C276.869 92.1818 275.903 95.5341 273.972 98.5114C272.04 101.489 269.267 103.852 265.653 105.602C262.04 107.33 257.71 108.193 252.665 108.193C247.915 108.193 243.79 107.409 240.29 105.841C236.79 104.25 234.04 102.057 232.04 99.2614C230.04 96.4659 228.915 93.2273 228.665 89.5455H235.21C235.438 92.2955 236.347 94.625 237.938 96.5341C239.528 98.4432 241.597 99.8977 244.142 100.898C246.688 101.875 249.528 102.364 252.665 102.364C256.142 102.364 259.233 101.784 261.938 100.625C264.665 99.4432 266.801 97.8068 268.347 95.7159C269.915 93.6023 270.699 91.1477 270.699 88.3523C270.699 85.9886 270.085 84.0114 268.858 82.4205C267.631 80.8068 265.915 79.4545 263.71 78.3636C261.528 77.2727 258.994 76.3068 256.108 75.4659L247.756 73.0114C242.278 71.375 238.028 69.1136 235.006 66.2273C231.983 63.3409 230.472 59.6591 230.472 55.1818C230.472 51.4318 231.472 48.1364 233.472 45.2955C235.494 42.4318 238.222 40.2045 241.653 38.6136C245.108 37 248.983 36.1932 253.278 36.1932C257.619 36.1932 261.46 36.9886 264.801 38.5795C268.142 40.1705 270.79 42.3636 272.744 45.1591C274.722 47.9318 275.778 51.0909 275.915 54.6364H269.744ZM330.119 54.6364C329.733 50.75 328.017 47.6591 324.972 45.3636C321.926 43.0682 318.097 41.9205 313.483 41.9205C310.233 41.9205 307.369 42.4773 304.892 43.5909C302.438 44.7045 300.506 46.25 299.097 48.2273C297.71 50.1818 297.017 52.4091 297.017 54.9091C297.017 56.75 297.415 58.3636 298.21 59.75C299.006 61.1364 300.074 62.3295 301.415 63.3295C302.778 64.3068 304.278 65.1477 305.915 65.8523C307.574 66.5568 309.244 67.1477 310.926 67.625L318.29 69.7386C320.517 70.3523 322.744 71.1364 324.972 72.0909C327.199 73.0455 329.233 74.25 331.074 75.7045C332.938 77.1364 334.426 78.8977 335.54 80.9886C336.676 83.0568 337.244 85.5455 337.244 88.4545C337.244 92.1818 336.278 95.5341 334.347 98.5114C332.415 101.489 329.642 103.852 326.028 105.602C322.415 107.33 318.085 108.193 313.04 108.193C308.29 108.193 304.165 107.409 300.665 105.841C297.165 104.25 294.415 102.057 292.415 99.2614C290.415 96.4659 289.29 93.2273 289.04 89.5455H295.585C295.812 92.2955 296.722 94.625 298.312 96.5341C299.903 98.4432 301.972 99.8977 304.517 100.898C307.062 101.875 309.903 102.364 313.04 102.364C316.517 102.364 319.608 101.784 322.312 100.625C325.04 99.4432 327.176 97.8068 328.722 95.7159C330.29 93.6023 331.074 91.1477 331.074 88.3523C331.074 85.9886 330.46 84.0114 329.233 82.4205C328.006 80.8068 326.29 79.4545 324.085 78.3636C321.903 77.2727 319.369 76.3068 316.483 75.4659L308.131 73.0114C302.653 71.375 298.403 69.1136 295.381 66.2273C292.358 63.3409 290.847 59.6591 290.847 55.1818C290.847 51.4318 291.847 48.1364 293.847 45.2955C295.869 42.4318 298.597 40.2045 302.028 38.6136C305.483 37 309.358 36.1932 313.653 36.1932C317.994 36.1932 321.835 36.9886 325.176 38.5795C328.517 40.1705 331.165 42.3636 333.119 45.1591C335.097 47.9318 336.153 51.0909 336.29 54.6364H330.119ZM434.267 59H427.858C427.381 56.6136 426.517 54.4091 425.267 52.3864C424.04 50.3409 422.494 48.5568 420.631 47.0341C418.767 45.5114 416.653 44.3295 414.29 43.4886C411.926 42.6477 409.369 42.2273 406.619 42.2273C402.21 42.2273 398.188 43.375 394.551 45.6705C390.938 47.9659 388.04 51.3409 385.858 55.7955C383.699 60.2273 382.619 65.6591 382.619 72.0909C382.619 78.5682 383.699 84.0227 385.858 88.4545C388.04 92.8864 390.938 96.25 394.551 98.5455C398.188 100.818 402.21 101.955 406.619 101.955C409.369 101.955 411.926 101.534 414.29 100.693C416.653 99.8523 418.767 98.6818 420.631 97.1818C422.494 95.6591 424.04 93.875 425.267 91.8295C426.517 89.7841 427.381 87.5682 427.858 85.1818H434.267C433.699 88.3864 432.631 91.375 431.062 94.1477C429.517 96.8977 427.54 99.3068 425.131 101.375C422.744 103.443 419.994 105.057 416.881 106.216C413.767 107.375 410.347 107.955 406.619 107.955C400.756 107.955 395.551 106.489 391.006 103.557C386.46 100.602 382.892 96.4432 380.301 91.0795C377.733 85.7159 376.449 79.3864 376.449 72.0909C376.449 64.7955 377.733 58.4659 380.301 53.1023C382.892 47.7386 386.46 43.5909 391.006 40.6591C395.551 37.7045 400.756 36.2273 406.619 36.2273C410.347 36.2273 413.767 36.8068 416.881 37.9659C419.994 39.1023 422.744 40.7159 425.131 42.8068C427.54 44.875 429.517 47.2841 431.062 50.0341C432.631 52.7841 433.699 55.7727 434.267 59ZM469.287 37.1818V107H462.912V43.8636H462.503L446.139 54.7386V48.125L462.639 37.1818H469.287Z" fill="black"/>
</svg>
