<svg width="548" height="694" viewBox="0 0 548 694" fill="none" xmlns="http://www.w3.org/2000/svg">
<path d="M303.273 626V556.182H325.807C330.761 556.182 334.898 557.08 338.216 558.875C341.557 560.648 344.068 563.114 345.75 566.273C347.455 569.409 348.307 573.011 348.307 577.08C348.307 581.148 347.455 584.739 345.75 587.852C344.068 590.966 341.568 593.398 338.25 595.148C334.932 596.898 330.818 597.773 325.909 597.773H306.716V591.943H325.739C329.375 591.943 332.398 591.341 334.807 590.136C337.239 588.932 339.045 587.216 340.227 584.989C341.432 582.761 342.034 580.125 342.034 577.08C342.034 574.034 341.432 571.375 340.227 569.102C339.023 566.807 337.205 565.034 334.773 563.784C332.364 562.534 329.318 561.909 325.636 561.909H309.648V626H303.273ZM334.057 594.5L351.239 626H343.875L326.864 594.5H334.057ZM363.835 626V556.182H386.369C391.324 556.182 395.46 557.136 398.778 559.045C402.119 560.932 404.631 563.5 406.312 566.75C408.017 570 408.869 573.659 408.869 577.727C408.869 581.795 408.028 585.466 406.347 588.739C404.665 591.989 402.165 594.568 398.847 596.477C395.528 598.364 391.403 599.307 386.472 599.307H368.744V593.58H386.301C389.96 593.58 392.994 592.898 395.403 591.534C397.813 590.148 399.608 588.261 400.79 585.875C401.994 583.489 402.597 580.773 402.597 577.727C402.597 574.682 401.994 571.966 400.79 569.58C399.608 567.193 397.801 565.318 395.369 563.955C392.96 562.591 389.903 561.909 386.199 561.909H370.21V626H363.835ZM423.835 556.182H431.199L456.528 617H457.142L482.472 556.182H489.835V626H483.835V569.648H483.29L459.733 626H453.938L430.381 569.648H429.835V626H423.835V556.182Z" fill="black"/>
<mask id="path-2-inside-1_2058_174" fill="white">
<path d="M548 431C548 361.248 519.132 294.353 467.747 245.031C416.362 195.709 346.669 168 274 168C201.331 168 131.638 195.709 80.2528 245.031C28.8678 294.353 1.09728e-05 361.248 0 431H66.508C66.508 378.179 88.3687 327.521 127.281 290.171C166.193 252.821 218.97 231.838 274 231.838C329.03 231.838 381.807 252.821 420.719 290.171C459.631 327.521 481.492 378.179 481.492 431H548Z"/>
</mask>
<path d="M548 431C548 361.248 519.132 294.353 467.747 245.031C416.362 195.709 346.669 168 274 168C201.331 168 131.638 195.709 80.2528 245.031C28.8678 294.353 1.09728e-05 361.248 0 431H66.508C66.508 378.179 88.3687 327.521 127.281 290.171C166.193 252.821 218.97 231.838 274 231.838C329.03 231.838 381.807 252.821 420.719 290.171C459.631 327.521 481.492 378.179 481.492 431H548Z" fill="#D9D9D9" stroke="black" stroke-width="4" mask="url(#path-2-inside-1_2058_174)"/>
<mask id="path-3-inside-2_2058_174" fill="white">
<path d="M547.997 432.198C548.127 404.846 543.811 377.643 535.205 351.568L471.802 370.849C478.32 390.594 481.588 411.195 481.49 431.907L547.997 432.198Z"/>
</mask>
<path d="M547.997 432.198C548.127 404.846 543.811 377.643 535.205 351.568L471.802 370.849C478.32 390.594 481.588 411.195 481.49 431.907L547.997 432.198Z" fill="#8C8C8C" stroke="black" stroke-width="4" mask="url(#path-3-inside-2_2058_174)"/>
<line x1="92.2784" y1="220.672" x2="151.953" y2="279.789" stroke="#4F4FDC" stroke-width="15"/>
<path d="M10.2727 107V37.1818H32.8068C37.7614 37.1818 41.8977 38.1364 45.2159 40.0455C48.5568 41.9318 51.0682 44.5 52.75 47.75C54.4545 51 55.3068 54.6591 55.3068 58.7273C55.3068 62.7955 54.4659 66.4659 52.7841 69.7386C51.1023 72.9886 48.6023 75.5682 45.2841 77.4773C41.9659 79.3636 37.8409 80.3068 32.9091 80.3068H15.1818V74.5795H32.7386C36.3977 74.5795 39.4318 73.8977 41.8409 72.5341C44.25 71.1477 46.0455 69.2614 47.2273 66.875C48.4318 64.4886 49.0341 61.7727 49.0341 58.7273C49.0341 55.6818 48.4318 52.9659 47.2273 50.5795C46.0455 48.1932 44.2386 46.3182 41.8068 44.9545C39.3977 43.5909 36.3409 42.9091 32.6364 42.9091H16.6477V107H10.2727ZM70.2727 107V37.1818H92.8068C97.7614 37.1818 101.898 38.0795 105.216 39.875C108.557 41.6477 111.068 44.1136 112.75 47.2727C114.455 50.4091 115.307 54.0114 115.307 58.0795C115.307 62.1477 114.455 65.7386 112.75 68.8523C111.068 71.9659 108.568 74.3977 105.25 76.1477C101.932 77.8977 97.8182 78.7727 92.9091 78.7727H73.7159V72.9432H92.7386C96.375 72.9432 99.3977 72.3409 101.807 71.1364C104.239 69.9318 106.045 68.2159 107.227 65.9886C108.432 63.7614 109.034 61.125 109.034 58.0795C109.034 55.0341 108.432 52.375 107.227 50.1023C106.023 47.8068 104.205 46.0341 101.773 44.7841C99.3636 43.5341 96.3182 42.9091 92.6364 42.9091H76.6477V107H70.2727ZM101.057 75.5L118.239 107H110.875L93.8636 75.5H101.057ZM130.835 107V37.1818H171.335V42.9091H137.21V69.1932H169.188V74.9205H137.21V101.273H172.017V107H130.835ZM225.744 54.6364C225.358 50.75 223.642 47.6591 220.597 45.3636C217.551 43.0682 213.722 41.9205 209.108 41.9205C205.858 41.9205 202.994 42.4773 200.517 43.5909C198.063 44.7045 196.131 46.25 194.722 48.2273C193.335 50.1818 192.642 52.4091 192.642 54.9091C192.642 56.75 193.04 58.3636 193.835 59.75C194.631 61.1364 195.699 62.3295 197.04 63.3295C198.403 64.3068 199.903 65.1477 201.54 65.8523C203.199 66.5568 204.869 67.1477 206.551 67.625L213.915 69.7386C216.142 70.3523 218.369 71.1364 220.597 72.0909C222.824 73.0455 224.858 74.25 226.699 75.7045C228.563 77.1364 230.051 78.8977 231.165 80.9886C232.301 83.0568 232.869 85.5455 232.869 88.4545C232.869 92.1818 231.903 95.5341 229.972 98.5114C228.04 101.489 225.267 103.852 221.653 105.602C218.04 107.33 213.71 108.193 208.665 108.193C203.915 108.193 199.79 107.409 196.29 105.841C192.79 104.25 190.04 102.057 188.04 99.2614C186.04 96.4659 184.915 93.2273 184.665 89.5455H191.21C191.438 92.2955 192.347 94.625 193.938 96.5341C195.528 98.4432 197.597 99.8977 200.142 100.898C202.688 101.875 205.528 102.364 208.665 102.364C212.142 102.364 215.233 101.784 217.938 100.625C220.665 99.4432 222.801 97.8068 224.347 95.7159C225.915 93.6023 226.699 91.1477 226.699 88.3523C226.699 85.9886 226.085 84.0114 224.858 82.4205C223.631 80.8068 221.915 79.4545 219.71 78.3636C217.528 77.2727 214.994 76.3068 212.108 75.4659L203.756 73.0114C198.278 71.375 194.028 69.1136 191.006 66.2273C187.983 63.3409 186.472 59.6591 186.472 55.1818C186.472 51.4318 187.472 48.1364 189.472 45.2955C191.494 42.4318 194.222 40.2045 197.653 38.6136C201.108 37 204.983 36.1932 209.278 36.1932C213.619 36.1932 217.46 36.9886 220.801 38.5795C224.142 40.1705 226.79 42.3636 228.744 45.1591C230.722 47.9318 231.778 51.0909 231.915 54.6364H225.744ZM286.119 54.6364C285.733 50.75 284.017 47.6591 280.972 45.3636C277.926 43.0682 274.097 41.9205 269.483 41.9205C266.233 41.9205 263.369 42.4773 260.892 43.5909C258.438 44.7045 256.506 46.25 255.097 48.2273C253.71 50.1818 253.017 52.4091 253.017 54.9091C253.017 56.75 253.415 58.3636 254.21 59.75C255.006 61.1364 256.074 62.3295 257.415 63.3295C258.778 64.3068 260.278 65.1477 261.915 65.8523C263.574 66.5568 265.244 67.1477 266.926 67.625L274.29 69.7386C276.517 70.3523 278.744 71.1364 280.972 72.0909C283.199 73.0455 285.233 74.25 287.074 75.7045C288.938 77.1364 290.426 78.8977 291.54 80.9886C292.676 83.0568 293.244 85.5455 293.244 88.4545C293.244 92.1818 292.278 95.5341 290.347 98.5114C288.415 101.489 285.642 103.852 282.028 105.602C278.415 107.33 274.085 108.193 269.04 108.193C264.29 108.193 260.165 107.409 256.665 105.841C253.165 104.25 250.415 102.057 248.415 99.2614C246.415 96.4659 245.29 93.2273 245.04 89.5455H251.585C251.812 92.2955 252.722 94.625 254.312 96.5341C255.903 98.4432 257.972 99.8977 260.517 100.898C263.062 101.875 265.903 102.364 269.04 102.364C272.517 102.364 275.608 101.784 278.312 100.625C281.04 99.4432 283.176 97.8068 284.722 95.7159C286.29 93.6023 287.074 91.1477 287.074 88.3523C287.074 85.9886 286.46 84.0114 285.233 82.4205C284.006 80.8068 282.29 79.4545 280.085 78.3636C277.903 77.2727 275.369 76.3068 272.483 75.4659L264.131 73.0114C258.653 71.375 254.403 69.1136 251.381 66.2273C248.358 63.3409 246.847 59.6591 246.847 55.1818C246.847 51.4318 247.847 48.1364 249.847 45.2955C251.869 42.4318 254.597 40.2045 258.028 38.6136C261.483 37 265.358 36.1932 269.653 36.1932C273.994 36.1932 277.835 36.9886 281.176 38.5795C284.517 40.1705 287.165 42.3636 289.119 45.1591C291.097 47.9318 292.153 51.0909 292.29 54.6364H286.119ZM390.267 59H383.858C383.381 56.6136 382.517 54.4091 381.267 52.3864C380.04 50.3409 378.494 48.5568 376.631 47.0341C374.767 45.5114 372.653 44.3295 370.29 43.4886C367.926 42.6477 365.369 42.2273 362.619 42.2273C358.21 42.2273 354.188 43.375 350.551 45.6705C346.938 47.9659 344.04 51.3409 341.858 55.7955C339.699 60.2273 338.619 65.6591 338.619 72.0909C338.619 78.5682 339.699 84.0227 341.858 88.4545C344.04 92.8864 346.938 96.25 350.551 98.5455C354.188 100.818 358.21 101.955 362.619 101.955C365.369 101.955 367.926 101.534 370.29 100.693C372.653 99.8523 374.767 98.6818 376.631 97.1818C378.494 95.6591 380.04 93.875 381.267 91.8295C382.517 89.7841 383.381 87.5682 383.858 85.1818H390.267C389.699 88.3864 388.631 91.375 387.062 94.1477C385.517 96.8977 383.54 99.3068 381.131 101.375C378.744 103.443 375.994 105.057 372.881 106.216C369.767 107.375 366.347 107.955 362.619 107.955C356.756 107.955 351.551 106.489 347.006 103.557C342.46 100.602 338.892 96.4432 336.301 91.0795C333.733 85.7159 332.449 79.3864 332.449 72.0909C332.449 64.7955 333.733 58.4659 336.301 53.1023C338.892 47.7386 342.46 43.5909 347.006 40.6591C351.551 37.7045 356.756 36.2273 362.619 36.2273C366.347 36.2273 369.767 36.8068 372.881 37.9659C375.994 39.1023 378.744 40.7159 381.131 42.8068C383.54 44.875 385.517 47.2841 387.062 50.0341C388.631 52.7841 389.699 55.7727 390.267 59ZM403.741 107V102.33L426.548 76.6932C429.526 73.3295 431.923 70.4545 433.741 68.0682C435.56 65.6818 436.878 63.4773 437.696 61.4545C438.537 59.4318 438.957 57.3295 438.957 55.1477C438.957 52.4886 438.332 50.1705 437.082 48.1932C435.855 46.1932 434.162 44.6364 432.003 43.5227C429.844 42.4091 427.412 41.8523 424.707 41.8523C421.844 41.8523 419.332 42.4659 417.173 43.6932C415.037 44.9205 413.378 46.6023 412.196 48.7386C411.014 50.875 410.423 53.3295 410.423 56.1023H404.321C404.321 52.2386 405.207 48.8182 406.98 45.8409C408.776 42.8409 411.219 40.4886 414.31 38.7841C417.423 37.0795 420.946 36.2273 424.878 36.2273C428.764 36.2273 432.219 37.0682 435.241 38.75C438.264 40.4091 440.639 42.6705 442.366 45.5341C444.094 48.3977 444.957 51.6023 444.957 55.1477C444.957 57.7159 444.503 60.2045 443.594 62.6136C442.707 65.0227 441.173 67.7045 438.991 70.6591C436.81 73.6136 433.787 77.2273 429.923 81.5L412.605 100.83V101.273H447.139V107H403.741Z" fill="black"/>
</svg>
