<svg width="28" height="28" viewBox="0 0 28 28" fill="none" xmlns="http://www.w3.org/2000/svg">
<path d="M15.4774 9.64338C15.4134 9.1036 15.1542 8.68457 14.6997 8.38627C14.2451 8.08798 13.6876 7.93883 13.0271 7.93883C12.5441 7.93883 12.1215 8.01696 11.7593 8.17321C11.4007 8.32946 11.1201 8.5443 10.9177 8.81774C10.7188 9.09118 10.6194 9.4019 10.6194 9.74991C10.6194 10.0411 10.6887 10.2915 10.8271 10.501C10.9692 10.7069 11.1503 10.8792 11.3705 11.0177C11.5906 11.1526 11.8215 11.2645 12.0629 11.3532C12.3044 11.4385 12.5264 11.5077 12.7288 11.561L13.8367 11.8593C14.1208 11.9339 14.4369 12.0368 14.7849 12.1682C15.1365 12.2996 15.472 12.479 15.7916 12.7062C16.1148 12.93 16.3811 13.2176 16.5906 13.5692C16.8002 13.9207 16.9049 14.3522 16.9049 14.8635C16.9049 15.453 16.7504 15.9857 16.4415 16.4616C16.1361 16.9374 15.6887 17.3156 15.0992 17.5961C14.5132 17.8767 13.8012 18.017 12.9632 18.017C12.1819 18.017 11.5054 17.8909 10.9337 17.6388C10.3655 17.3866 9.91806 17.0351 9.59135 16.5841C9.2682 16.1331 9.08532 15.6093 9.0427 15.0127H10.4063C10.4419 15.4246 10.5803 15.7655 10.8218 16.0354C11.0669 16.3018 11.3758 16.5006 11.7487 16.632C12.1251 16.7599 12.5299 16.8238 12.9632 16.8238C13.4674 16.8238 13.9202 16.7421 14.3215 16.5787C14.7227 16.4118 15.0406 16.181 15.2749 15.8863C15.5093 15.588 15.6265 15.24 15.6265 14.8422C15.6265 14.48 15.5253 14.1853 15.3229 13.958C15.1205 13.7307 14.8541 13.5461 14.5239 13.404C14.1936 13.262 13.8367 13.1377 13.4532 13.0312L12.1109 12.6476C11.2586 12.4026 10.5839 12.0528 10.0867 11.5983C9.58958 11.1437 9.341 10.5489 9.341 9.81383C9.341 9.20304 9.50613 8.67037 9.83638 8.21582C10.1702 7.75772 10.6176 7.40261 11.1787 7.15048C11.7433 6.8948 12.3737 6.76696 13.0697 6.76696C13.7728 6.76696 14.3978 6.89302 14.9447 7.14515C15.4916 7.39373 15.9248 7.73464 16.2444 8.16788C16.5676 8.60112 16.738 9.09295 16.7558 9.64338H15.4774Z" fill="white"/>
<line x1="2.9069" y1="21.7474" x2="23.1132" y2="3.91829" stroke="#6B2B9C" stroke-width="4" stroke-linecap="round"/>
<circle cx="13.6504" cy="13.6504" r="11.6504" stroke="#682E98" stroke-width="4"/>
</svg>
