<svg width="57" height="56" viewBox="0 0 57 56" fill="none" xmlns="http://www.w3.org/2000/svg">
<path d="M29.4031 24.742C29.3392 24.2022 29.08 23.7832 28.6254 23.4849C28.1709 23.1866 27.6134 23.0375 26.9529 23.0375C26.4699 23.0375 26.0473 23.1156 25.6851 23.2718C25.3264 23.4281 25.0459 23.6429 24.8435 23.9164C24.6446 24.1898 24.5452 24.5005 24.5452 24.8485C24.5452 25.1397 24.6144 25.3901 24.7529 25.5996C24.895 25.8056 25.0761 25.9778 25.2963 26.1163C25.5164 26.2512 25.7472 26.3631 25.9887 26.4519C26.2302 26.5371 26.4521 26.6064 26.6546 26.6596L27.7625 26.9579C28.0466 27.0325 28.3627 27.1355 28.7107 27.2669C29.0622 27.3983 29.3978 27.5776 29.7174 27.8049C30.0406 28.0286 30.3069 28.3162 30.5164 28.6678C30.7259 29.0194 30.8307 29.4508 30.8307 29.9622C30.8307 30.5517 30.6762 31.0843 30.3673 31.5602C30.0619 32.036 29.6144 32.4142 29.0249 32.6948C28.439 32.9753 27.727 33.1156 26.8889 33.1156C26.1077 33.1156 25.4312 32.9895 24.8595 32.7374C24.2913 32.4853 23.8438 32.1337 23.5171 31.6827C23.194 31.2317 23.0111 30.7079 22.9685 30.1113H24.3321C24.3676 30.5233 24.5061 30.8642 24.7476 31.1341C24.9926 31.4004 25.3016 31.5993 25.6744 31.7306C26.0509 31.8585 26.4557 31.9224 26.8889 31.9224C27.3932 31.9224 27.846 31.8407 28.2472 31.6774C28.6485 31.5105 28.9664 31.2797 29.2007 30.9849C29.4351 30.6866 29.5523 30.3386 29.5523 29.9409C29.5523 29.5787 29.4511 29.2839 29.2487 29.0566C29.0463 28.8294 28.7799 28.6447 28.4497 28.5027C28.1194 28.3606 27.7625 28.2363 27.379 28.1298L26.0367 27.7463C25.1844 27.5012 24.5097 27.1515 24.0125 26.6969C23.5154 26.2424 23.2668 25.6475 23.2668 24.9125C23.2668 24.3017 23.4319 23.769 23.7622 23.3145C24.096 22.8564 24.5434 22.5012 25.1045 22.2491C25.6691 21.9934 26.2994 21.8656 26.9955 21.8656C27.6986 21.8656 28.3236 21.9917 28.8705 22.2438C29.4173 22.4924 29.8506 22.8333 30.1702 23.2665C30.4933 23.6998 30.6638 24.1916 30.6816 24.742H29.4031Z" fill="white"/>
<mask id="path-2-inside-1_2119_31" fill="white">
<path d="M14.1427 41.8949C17.8936 45.6355 23.0034 47.759 28.3479 47.7983C33.6924 47.8375 38.8339 45.7892 42.6413 42.104C46.4487 38.4188 48.6101 33.3986 48.65 28.1477C48.6899 22.8969 46.6051 17.8455 42.8542 14.1048L28.4984 27.9998L14.1427 41.8949Z"/>
</mask>
<path d="M14.1427 41.8949C17.8936 45.6355 23.0034 47.759 28.3479 47.7983C33.6924 47.8375 38.8339 45.7892 42.6413 42.104C46.4487 38.4188 48.6101 33.3986 48.65 28.1477C48.6899 22.8969 46.6051 17.8455 42.8542 14.1048L28.4984 27.9998L14.1427 41.8949Z" fill="#682E98" stroke="#682E98" stroke-width="8" mask="url(#path-2-inside-1_2119_31)"/>
<path d="M30.2777 37.1393C31.0181 37.9171 31.5152 38.7205 31.769 39.5494C32.0228 40.3783 32.047 41.1752 31.8416 41.9399C31.6362 42.7047 31.2138 43.3808 30.5744 43.9684C29.935 44.5559 29.2201 44.9248 28.4297 45.075C27.6393 45.2251 26.8317 45.1482 26.0068 44.844C25.182 44.5398 24.3993 43.9988 23.6589 43.221C22.9185 42.4432 22.4214 41.6399 22.1677 40.8109C21.9139 39.982 21.8897 39.1852 22.0951 38.4204C22.3004 37.6557 22.7228 36.9795 23.3623 36.392C24.0017 35.8044 24.7166 35.4356 25.507 35.2854C26.2973 35.1352 27.105 35.2122 27.9298 35.5163C28.7547 35.8205 29.5373 36.3615 30.2777 37.1393ZM29.3991 37.9466C28.7913 37.3081 28.1696 36.8689 27.5342 36.6292C26.9013 36.3872 26.2931 36.3227 25.7098 36.4357C25.1289 36.5464 24.6115 36.8103 24.1575 37.2274C23.7036 37.6445 23.3997 38.1352 23.246 38.6995C23.0948 39.2615 23.1196 39.862 23.3206 40.5009C23.524 41.1375 23.9297 41.7751 24.5375 42.4137C25.1454 43.0523 25.7658 43.4925 26.3988 43.7345C27.0342 43.9743 27.6423 44.0388 28.2232 43.928C28.8066 43.8151 29.3252 43.55 29.7791 43.1329C30.2331 42.7158 30.5357 42.2263 30.687 41.6642C30.8407 41.0999 30.8158 40.4995 30.6124 39.8628C30.4114 39.2239 30.007 38.5852 29.3991 37.9466ZM34.1494 30.1255C33.7581 29.801 33.3103 29.6814 32.8059 29.7668C32.3016 29.8522 31.8224 30.1034 31.3685 30.5205C31.0366 30.8255 30.7964 31.1452 30.648 31.4796C30.5021 31.8117 30.4475 32.1341 30.4844 32.4468C30.5237 32.7572 30.6553 33.03 30.8793 33.2653C31.0666 33.4621 31.2753 33.5877 31.5054 33.6418C31.7355 33.6914 31.9708 33.6934 32.2113 33.648C32.4494 33.6002 32.68 33.5301 32.9031 33.4376C33.1239 33.3427 33.321 33.2494 33.4944 33.1576L34.4478 32.6595C34.6911 32.5306 34.9745 32.4006 35.2983 32.2696C35.6244 32.1365 35.9705 32.0458 36.3364 31.9976C36.7024 31.9448 37.0706 31.971 37.4408 32.0764C37.811 32.1817 38.1607 32.4072 38.4898 32.7529C38.8691 33.1514 39.1057 33.6091 39.1996 34.1259C39.2959 34.6404 39.2318 35.1786 39.0072 35.7405C38.785 36.3002 38.386 36.8446 37.81 37.3739C37.2731 37.8672 36.727 38.2092 36.1719 38.3998C35.6191 38.5882 35.0854 38.6331 34.5706 38.5345C34.0583 38.4337 33.5955 38.1951 33.1823 37.8187L34.1195 36.9576C34.409 37.2136 34.7236 37.3566 35.0632 37.3866C35.403 37.4119 35.7433 37.3512 36.0841 37.2046C36.4251 37.0533 36.7444 36.8409 37.0422 36.5673C37.3887 36.2488 37.6473 35.9077 37.818 35.5439C37.9864 35.1776 38.0563 34.8209 38.0277 34.4736C37.9968 34.124 37.8534 33.8147 37.5974 33.5458C37.3643 33.301 37.1051 33.1656 36.8198 33.1398C36.5344 33.114 36.2325 33.1574 35.9141 33.2699C35.5958 33.3824 35.2705 33.5238 34.9384 33.6939L33.769 34.2823C33.0256 34.6549 32.3368 34.8445 31.7026 34.8512C31.0684 34.8579 30.5148 34.6127 30.0418 34.1158C29.6487 33.7029 29.4194 33.2385 29.3539 32.7227C29.2885 32.2022 29.3675 31.6796 29.5909 31.1548C29.8144 30.6254 30.1653 30.141 30.6437 29.7014C31.1269 29.2574 31.6376 28.9479 32.1756 28.773C32.7115 28.5957 33.2286 28.5526 33.727 28.6437C34.2279 28.7325 34.6616 28.9573 35.028 29.3182L34.1494 30.1255ZM40.7233 24.085C40.332 23.7605 39.8842 23.6409 39.3799 23.7263C38.8755 23.8117 38.3964 24.0629 37.9424 24.48C37.6105 24.785 37.3704 25.1047 37.222 25.4391C37.076 25.7712 37.0215 26.0936 37.0583 26.4063C37.0976 26.7167 37.2292 26.9895 37.4532 27.2248C37.6406 27.4216 37.8493 27.5472 38.0793 27.6013C38.3095 27.6509 38.5448 27.6529 38.7852 27.6075C39.0234 27.5597 39.254 27.4896 39.4771 27.3971C39.6979 27.3022 39.895 27.2089 40.0684 27.117L41.0218 26.619C41.265 26.49 41.5485 26.3601 41.8722 26.2291C42.1984 26.096 42.5444 26.0053 42.9103 25.9571C43.2764 25.9042 43.6445 25.9305 44.0147 26.0359C44.385 26.1412 44.7346 26.3667 45.0637 26.7124C45.443 27.1109 45.6797 27.5686 45.7736 28.0854C45.8699 28.5999 45.8057 29.1381 45.5811 29.7C45.359 30.2597 44.9599 30.8041 44.3839 31.3334C43.847 31.8267 43.301 32.1687 42.7458 32.3593C42.1931 32.5477 41.6593 32.5926 41.1446 32.494C40.6322 32.3932 40.1695 32.1546 39.7563 31.7782L40.6935 30.9171C40.9829 31.1731 41.2975 31.3161 41.6371 31.3461C41.9769 31.3714 42.3172 31.3107 42.658 31.1641C42.999 31.0128 43.3184 30.8004 43.6161 30.5268C43.9627 30.2083 44.2213 29.8672 44.392 29.5034C44.5603 29.1371 44.6302 28.7804 44.6016 28.4331C44.5707 28.0835 44.4273 27.7742 44.1714 27.5053C43.9383 27.2605 43.6791 27.1251 43.3937 27.0993C43.1083 27.0735 42.8065 27.1169 42.4881 27.2294C42.1697 27.3419 41.8444 27.4833 41.5123 27.6534L40.343 28.2418C39.5996 28.6144 38.9108 28.804 38.2766 28.8107C37.6424 28.8174 37.0888 28.5722 36.6157 28.0753C36.2227 27.6624 35.9934 27.198 35.9278 26.6822C35.8625 26.1617 35.9415 25.6391 36.1648 25.1143C36.3883 24.5849 36.7393 24.1005 37.2176 23.6609C37.7008 23.2169 38.2115 22.9074 38.7496 22.7325C39.2854 22.5552 39.8025 22.5121 40.301 22.6032C40.8019 22.692 41.2355 22.9168 41.6019 23.2777L40.7233 24.085Z" fill="white"/>
<mask id="path-4-inside-2_2119_31" fill="white">
<path d="M14.2513 42C10.472 38.287 8.34884 33.251 8.34884 28C8.34884 22.749 10.472 17.713 14.2513 14C18.0305 10.287 23.1563 8.20101 28.501 8.20101C33.8457 8.20101 38.9714 10.287 42.7507 14L38.6749 18.0043C35.9766 15.3533 32.3169 13.864 28.501 13.864C24.685 13.864 21.0253 15.3533 18.327 18.0043C15.6287 20.6553 14.1128 24.2509 14.1128 28C14.1128 31.7491 15.6287 35.3446 18.327 37.9957L14.2513 42Z"/>
</mask>
<path d="M14.2513 42C10.472 38.287 8.34884 33.251 8.34884 28C8.34884 22.749 10.472 17.713 14.2513 14C18.0305 10.287 23.1563 8.20101 28.501 8.20101C33.8457 8.20101 38.9714 10.287 42.7507 14L38.6749 18.0043C35.9766 15.3533 32.3169 13.864 28.501 13.864C24.685 13.864 21.0253 15.3533 18.327 18.0043C15.6287 20.6553 14.1128 24.2509 14.1128 28C14.1128 31.7491 15.6287 35.3446 18.327 37.9957L14.2513 42Z" fill="#682E98" stroke="#682E98" stroke-width="8" mask="url(#path-4-inside-2_2119_31)"/>
</svg>
