<svg width="38" height="12" viewBox="0 0 38 12" fill="none" xmlns="http://www.w3.org/2000/svg">
<path d="M3.36621 11.0586H-0.000266254V0.149503H3.51536C4.5736 0.149503 5.47914 0.367898 6.23198 0.804688C6.98482 1.23793 7.56188 1.86115 7.96316 2.67436C8.36444 3.48402 8.56507 4.45348 8.56507 5.58274C8.56507 6.7191 8.36266 7.69744 7.95783 8.51776C7.553 9.33452 6.96351 9.96307 6.18936 10.4034C5.41522 10.8402 4.47417 11.0586 3.36621 11.0586ZM1.32076 9.88672H3.28098C4.18297 9.88672 4.93049 9.71271 5.52353 9.3647C6.11657 9.01669 6.55868 8.52131 6.84988 7.87855C7.14107 7.2358 7.28667 6.47053 7.28667 5.58274C7.28667 4.70206 7.14284 3.94389 6.8552 3.30824C6.56756 2.66903 6.13787 2.17898 5.56614 1.83807C4.99441 1.49361 4.2824 1.32138 3.43013 1.32138H1.32076V9.88672ZM10.781 11.0586V0.149503H17.3648V1.32138H12.102V5.00746H17.0239V6.17933H12.102V9.88672H17.45V11.0586H10.781ZM27.2032 3.55859C27.086 3.19993 26.9316 2.87855 26.7398 2.59446C26.5516 2.30682 26.3261 2.06179 26.0633 1.85938C25.8041 1.65696 25.5093 1.50249 25.1791 1.39595C24.8488 1.28942 24.4866 1.23615 24.0924 1.23615C23.4461 1.23615 22.8584 1.40305 22.3293 1.73686C21.8002 2.07067 21.3794 2.5625 21.0669 3.21236C20.7544 3.86222 20.5981 4.65945 20.5981 5.60405C20.5981 6.54865 20.7561 7.34588 21.0722 7.99574C21.3882 8.6456 21.8161 9.13743 22.3559 9.47124C22.8957 9.80504 23.5029 9.97195 24.1776 9.97195C24.8026 9.97195 25.3531 9.83878 25.8289 9.57244C26.3083 9.30256 26.6812 8.92259 26.9475 8.43253C27.2174 7.93892 27.3524 7.35831 27.3524 6.6907L27.7572 6.77592H24.4759V5.60405H28.6308V6.77592C28.6308 7.67436 28.439 8.45561 28.0555 9.11967C27.6755 9.78374 27.1499 10.2987 26.4788 10.6644C25.8112 11.0266 25.0441 11.2077 24.1776 11.2077C23.2117 11.2077 22.363 10.9805 21.6315 10.5259C20.9035 10.0714 20.3353 9.42507 19.9269 8.587C19.5221 7.74893 19.3197 6.75462 19.3197 5.60405C19.3197 4.74112 19.4351 3.9652 19.6659 3.27628C19.9003 2.58381 20.2306 1.99432 20.6567 1.50781C21.0828 1.02131 21.5871 0.648438 22.1695 0.389204C22.7519 0.129971 23.3928 0.000354707 24.0924 0.000354707C24.6677 0.000354707 25.2039 0.0873575 25.7011 0.261363C26.2018 0.431818 26.6475 0.67507 27.0381 0.991122C27.4323 1.30362 27.7607 1.67827 28.0235 2.11506C28.2863 2.5483 28.4674 3.02947 28.5669 3.55859H27.2032ZM30.8933 11.0586V0.149503H37.4771V1.32138H32.2143V5.00746H37.1362V6.17933H32.2143V9.88672H37.5623V11.0586H30.8933Z" fill="#616161"/>
</svg>
