<svg width="240" height="60" viewBox="0 0 240 60" fill="none" xmlns="http://www.w3.org/2000/svg">
<rect x="1.5" y="1.5" width="237" height="57" fill="#B3B3B3"/>
<rect x="1.5" y="1.5" width="237" height="57" stroke="url(#paint0_linear_2092_71)" stroke-opacity="0.41" stroke-width="3"/>
<path d="M77.6136 39V21.5455H88.1477V23.4205H79.7273V29.3182H87.6023V31.1932H79.7273V37.125H88.2841V39H77.6136ZM91.9574 39V21.5455H94.071V37.125H102.185V39H91.9574ZM105.457 39V21.5455H115.991V23.4205H107.571V29.3182H115.446V31.1932H107.571V37.125H116.128V39H105.457ZM133.847 27H131.733C131.608 26.392 131.389 25.858 131.077 25.3977C130.77 24.9375 130.395 24.5511 129.952 24.2386C129.514 23.9205 129.028 23.6818 128.494 23.5227C127.96 23.3636 127.403 23.2841 126.824 23.2841C125.767 23.2841 124.81 23.5511 123.952 24.0852C123.099 24.6193 122.42 25.4062 121.915 26.446C121.415 27.4858 121.165 28.7614 121.165 30.2727C121.165 31.7841 121.415 33.0597 121.915 34.0994C122.42 35.1392 123.099 35.9261 123.952 36.4602C124.81 36.9943 125.767 37.2614 126.824 37.2614C127.403 37.2614 127.96 37.1818 128.494 37.0227C129.028 36.8636 129.514 36.6278 129.952 36.3153C130.395 35.9972 130.77 35.608 131.077 35.1477C131.389 34.6818 131.608 34.1477 131.733 33.5455H133.847C133.688 34.4375 133.398 35.2358 132.977 35.9403C132.557 36.6449 132.034 37.2443 131.409 37.7386C130.784 38.2273 130.082 38.5994 129.304 38.8551C128.531 39.1108 127.705 39.2386 126.824 39.2386C125.335 39.2386 124.011 38.875 122.852 38.1477C121.693 37.4205 120.781 36.3864 120.116 35.0455C119.452 33.7045 119.119 32.1136 119.119 30.2727C119.119 28.4318 119.452 26.8409 120.116 25.5C120.781 24.1591 121.693 23.125 122.852 22.3977C124.011 21.6705 125.335 21.3068 126.824 21.3068C127.705 21.3068 128.531 21.4347 129.304 21.6903C130.082 21.946 130.784 22.321 131.409 22.8153C132.034 23.304 132.557 23.9006 132.977 24.6051C133.398 25.304 133.688 26.1023 133.847 27ZM136.308 23.4205V21.5455H149.398V23.4205H143.91V39H141.796V23.4205H136.308Z" fill="#5D5D5D"/>
<path d="M234.5 37.5H205.5L220 56L234.5 37.5Z" fill="#848484"/>
<defs>
<linearGradient id="paint0_linear_2092_71" x1="1.5" y1="1.5" x2="90.9937" y2="263.617" gradientUnits="userSpaceOnUse">
<stop offset="0.134615" stop-color="white"/>
<stop offset="0.384615" stop-color="#797979"/>
</linearGradient>
</defs>
</svg>
