<svg width="240" height="60" viewBox="0 0 240 60" fill="none" xmlns="http://www.w3.org/2000/svg">
<rect x="1.5" y="1.5" width="237" height="57" fill="#B3B3B3"/>
<rect x="1.5" y="1.5" width="237" height="57" stroke="url(#paint0_linear_2092_19)" stroke-opacity="0.41" stroke-width="3"/>
<path d="M234.5 37.5H205.5L220 56L234.5 37.5Z" fill="#848484"/>
<path d="M77.6136 39V21.5455H88.0795V23.4205H79.7273V29.3182H87.2955V31.1932H79.7273V39H77.6136ZM93.8132 21.5455V39H91.6996V21.5455H93.8132ZM98.0511 39V21.5455H103.949C105.313 21.5455 106.432 21.7784 107.307 22.2443C108.182 22.7045 108.83 23.3381 109.25 24.1449C109.67 24.9517 109.881 25.8693 109.881 26.8977C109.881 27.9261 109.67 28.8381 109.25 29.6335C108.83 30.429 108.185 31.054 107.315 31.5085C106.446 31.9574 105.335 32.1818 103.983 32.1818H99.2102V30.2727H103.915C104.847 30.2727 105.597 30.1364 106.165 29.8636C106.739 29.5909 107.153 29.2045 107.409 28.7045C107.67 28.1989 107.801 27.5966 107.801 26.8977C107.801 26.1989 107.67 25.5881 107.409 25.0653C107.148 24.5426 106.73 24.1392 106.156 23.8551C105.582 23.5653 104.824 23.4205 103.881 23.4205H100.165V39H98.0511ZM106.267 31.1591L110.562 39H108.108L103.881 31.1591H106.267ZM113.403 39V21.5455H123.937V23.4205H115.516V29.3182H123.391V31.1932H115.516V37.125H124.073V39H113.403Z" fill="#5D5D5D"/>
<defs>
<linearGradient id="paint0_linear_2092_19" x1="1.5" y1="1.5" x2="90.9937" y2="263.617" gradientUnits="userSpaceOnUse">
<stop offset="0.134615" stop-color="white"/>
<stop offset="0.384615" stop-color="#797979"/>
</linearGradient>
</defs>
</svg>
