<?xml version="1.0" encoding="utf-8"?>
<!-- Generator: Adobe Illustrator 25.2.3, SVG Export Plug-In . SVG Version: 6.00 Build 0)  -->
<svg version="1.1" id="FlatCentrifugalPump"  width="56" height="56" xmlns="http://www.w3.org/2000/svg" xmlns:xlink="http://www.w3.org/1999/xlink"
	 x="0px" y="0px" viewBox="0 0 56 56" style="enable-background:new 0 0 56 56;" xml:space="preserve">
<style type="text/css">
	.st0{fill:#E6E6E8;stroke:#0A0A0A;stroke-miterlimit:10;}
	.st1{fill:#E6E6E8;stroke:#000000;stroke-miterlimit:10;}
</style>
<path id="Element1" Tag="BG" class="st0" d="M24.9,49.4c5.3,0,10.1-1.7,14.1-4.5l8.7,10.6H1.9l8.8-10.7C14.7,47.7,19.6,49.4,24.9,49.4z
	 M55.5,0.6H24.9C11.4,0.6,0.5,11.5,0.5,25c0,8.2,4,15.4,10.2,19.9c4,2.9,8.9,4.6,14.2,4.6c5.3,0,10.1-1.7,14.1-4.5
	c6.2-4.4,10.3-11.7,10.3-19.9c0-2.1-0.3-4.2-0.8-6.1h6.9V0.6z"/>
<path id="Element2"  Tag="BG" class="st1" d="M32.6,25.1c0,4.3-3.5,7.7-7.7,7.7s-7.7-3.5-7.7-7.7s3.5-7.7,7.7-7.7S32.6,20.9,32.6,25.1z"/>
</svg>
