<svg width="240" height="60" viewBox="0 0 240 60" fill="none" xmlns="http://www.w3.org/2000/svg">
<rect x="1.5" y="1.5" width="237" height="57" fill="#B3B3B3"/>
<rect x="1.5" y="1.5" width="237" height="57" stroke="url(#paint0_linear_2092_78)" stroke-opacity="0.41" stroke-width="3"/>
<path d="M89.1136 39V21.5455H91.2273V29.3182H100.534V21.5455H102.648V39H100.534V31.1932H91.2273V39H89.1136ZM107.595 21.5455L112.777 36.2386H112.982L118.163 21.5455H120.379L113.97 39H111.788L105.379 21.5455H107.595ZM122.314 39H120.098L126.507 21.5455H128.689L135.098 39H132.882L127.666 24.3068H127.53L122.314 39ZM123.132 32.1818H132.064V34.0568H123.132V32.1818ZM151.042 27H148.928C148.803 26.392 148.585 25.858 148.272 25.3977C147.965 24.9375 147.59 24.5511 147.147 24.2386C146.71 23.9205 146.224 23.6818 145.69 23.5227C145.156 23.3636 144.599 23.2841 144.019 23.2841C142.962 23.2841 142.005 23.5511 141.147 24.0852C140.295 24.6193 139.616 25.4062 139.11 26.446C138.61 27.4858 138.36 28.7614 138.36 30.2727C138.36 31.7841 138.61 33.0597 139.11 34.0994C139.616 35.1392 140.295 35.9261 141.147 36.4602C142.005 36.9943 142.962 37.2614 144.019 37.2614C144.599 37.2614 145.156 37.1818 145.69 37.0227C146.224 36.8636 146.71 36.6278 147.147 36.3153C147.59 35.9972 147.965 35.608 148.272 35.1477C148.585 34.6818 148.803 34.1477 148.928 33.5455H151.042C150.883 34.4375 150.593 35.2358 150.173 35.9403C149.752 36.6449 149.229 37.2443 148.604 37.7386C147.979 38.2273 147.278 38.5994 146.499 38.8551C145.727 39.1108 144.9 39.2386 144.019 39.2386C142.531 39.2386 141.207 38.875 140.048 38.1477C138.888 37.4205 137.977 36.3864 137.312 35.0455C136.647 33.7045 136.315 32.1136 136.315 30.2727C136.315 28.4318 136.647 26.8409 137.312 25.5C137.977 24.1591 138.888 23.125 140.048 22.3977C141.207 21.6705 142.531 21.3068 144.019 21.3068C144.9 21.3068 145.727 21.4347 146.499 21.6903C147.278 21.946 147.979 22.321 148.604 22.8153C149.229 23.304 149.752 23.9006 150.173 24.6051C150.593 25.304 150.883 26.1023 151.042 27Z" fill="#5D5D5D"/>
<path d="M234.5 37.5H205.5L220 56L234.5 37.5Z" fill="#848484"/>
<defs>
<linearGradient id="paint0_linear_2092_78" x1="1.5" y1="1.5" x2="90.9937" y2="263.617" gradientUnits="userSpaceOnUse">
<stop offset="0.134615" stop-color="white"/>
<stop offset="0.384615" stop-color="#797979"/>
</linearGradient>
</defs>
</svg>
