<svg width="188" height="69" viewBox="0 0 188 69" fill="none" xmlns="http://www.w3.org/2000/svg">
<path d="M152.999 0.5H0.5V63.4995H152.999L187 26.4995L152.999 0.5Z" fill="#A6A6A6" stroke="black"/>
<path d="M14.4201 22.4971V7.95162H15.7482V21.3039H22.68V22.4971H14.4201ZM37.0284 15.2243C37.0284 16.7395 36.7585 18.0581 36.2188 19.1803C35.679 20.2977 34.9356 21.1642 33.9886 21.7797C33.0464 22.3905 31.9621 22.6959 30.7358 22.6959C29.5095 22.6959 28.4228 22.3905 27.4759 21.7797C26.5336 21.1642 25.7926 20.2977 25.2528 19.1803C24.7178 18.0581 24.4503 16.7395 24.4503 15.2243C24.4503 13.7092 24.7178 12.3929 25.2528 11.2755C25.7926 10.1533 26.536 9.28684 27.483 8.67605C28.4299 8.06052 29.5142 7.75275 30.7358 7.75275C31.9621 7.75275 33.0464 8.06052 33.9886 8.67605C34.9356 9.28684 35.679 10.1533 36.2188 11.2755C36.7585 12.3929 37.0284 13.7092 37.0284 15.2243ZM35.7358 15.2243C35.7358 13.9223 35.518 12.8072 35.0824 11.8792C34.6468 10.9464 34.0526 10.2338 33.2997 9.74139C32.5469 9.24896 31.6922 9.00275 30.7358 9.00275C29.7841 9.00275 28.9318 9.24896 28.179 9.74139C27.4261 10.2338 26.8295 10.944 26.3892 11.8721C25.9536 12.8001 25.7358 13.9175 25.7358 15.2243C25.7358 16.5264 25.9536 17.6415 26.3892 18.5695C26.8248 19.4975 27.419 20.2101 28.1719 20.7073C28.9247 21.1997 29.7794 21.4459 30.7358 21.4459C31.6922 21.4459 32.5469 21.1997 33.2997 20.7073C34.0573 20.2149 34.6539 19.5046 35.0895 18.5766C35.5251 17.6439 35.7405 16.5264 35.7358 15.2243ZM42.7688 22.4971L38.7844 7.95162H40.1339L43.4293 20.4587H43.543L46.8384 7.95162H48.3725L51.668 20.4587H51.7816L55.0771 7.95162H56.4336L52.4492 22.4971H51.0288L47.6552 10.1604H47.5629L44.1893 22.4971H42.7688ZM64.4592 22.4971V7.95162H69.1538C70.186 7.95162 71.0477 8.15048 71.739 8.54821C72.435 8.9412 72.9582 9.47624 73.3086 10.1533C73.6637 10.8304 73.8413 11.5927 73.8413 12.4403C73.8413 13.2878 73.6661 14.0525 73.3157 14.7343C72.9653 15.4114 72.4445 15.9488 71.7532 16.3465C71.0619 16.7395 70.2025 16.936 69.1751 16.936H65.4819V15.7428H69.1396C69.9019 15.7428 70.534 15.6008 71.0359 15.3167C71.5378 15.0278 71.9118 14.6349 72.158 14.1377C72.409 13.6405 72.5344 13.0747 72.5344 12.4403C72.5344 11.8058 72.409 11.24 72.158 10.7428C71.9118 10.2456 71.5354 9.85502 71.0288 9.57093C70.5269 9.28684 69.89 9.1448 69.1183 9.1448H65.7873V22.4971H64.4592ZM76.9592 22.4971V7.95162H81.6538C82.686 7.95162 83.5477 8.13864 84.239 8.5127C84.935 8.88201 85.4582 9.39574 85.8086 10.0539C86.1637 10.7073 86.3413 11.4578 86.3413 12.3053C86.3413 13.1528 86.1637 13.901 85.8086 14.5496C85.4582 15.1983 84.9374 15.7049 84.2461 16.0695C83.5548 16.4341 82.6978 16.6164 81.6751 16.6164H77.6765V15.4019H81.6396C82.3971 15.4019 83.0269 15.2764 83.5288 15.0255C84.0354 14.7745 84.4118 14.4171 84.658 13.953C84.909 13.489 85.0344 12.9398 85.0344 12.3053C85.0344 11.6708 84.909 11.1169 84.658 10.6434C84.4071 10.1652 84.0283 9.79584 83.5217 9.53542C83.0198 9.275 82.3853 9.1448 81.6183 9.1448H78.2873V22.4971H76.9592ZM83.3725 15.9346L86.9521 22.4971H85.418L81.8739 15.9346H83.3725ZM89.5763 22.4971V7.95162H98.0138V9.1448H90.9045V14.6206H97.5664V15.8138H90.9045V21.3039H98.1559V22.4971H89.5763ZM109.349 11.588C109.269 10.7783 108.911 10.1344 108.277 9.65616C107.642 9.17794 106.844 8.93883 105.883 8.93883C105.206 8.93883 104.609 9.05484 104.093 9.28684C103.582 9.51885 103.18 9.84082 102.886 10.2528C102.597 10.6599 102.453 11.124 102.453 11.6448C102.453 12.0283 102.536 12.3645 102.701 12.6533C102.867 12.9421 103.09 13.1907 103.369 13.3991C103.653 13.6027 103.966 13.7778 104.306 13.9246C104.652 14.0714 105 14.1945 105.35 14.2939L106.885 14.7343C107.349 14.8621 107.813 15.0255 108.277 15.2243C108.741 15.4232 109.164 15.6742 109.548 15.9772C109.936 16.2755 110.246 16.6424 110.478 17.078C110.715 17.5089 110.833 18.0274 110.833 18.6334C110.833 19.4099 110.632 20.1083 110.23 20.7286C109.827 21.3489 109.25 21.8413 108.497 22.2059C107.744 22.5657 106.842 22.7456 105.791 22.7456C104.801 22.7456 103.942 22.5823 103.213 22.2556C102.484 21.9242 101.911 21.4672 101.494 20.8849C101.077 20.3025 100.843 19.6278 100.791 18.8607H102.154C102.202 19.4336 102.391 19.9189 102.723 20.3167C103.054 20.7144 103.485 21.0174 104.015 21.2258C104.546 21.4294 105.137 21.5312 105.791 21.5312C106.515 21.5312 107.159 21.4104 107.723 21.1689C108.291 20.9227 108.736 20.5818 109.058 20.1462C109.385 19.7059 109.548 19.1945 109.548 18.6121C109.548 18.1197 109.42 17.7078 109.164 17.3763C108.909 17.0402 108.551 16.7584 108.092 16.5312C107.637 16.3039 107.109 16.1027 106.508 15.9275L104.768 15.4161C103.627 15.0752 102.742 14.6041 102.112 14.0028C101.482 13.4014 101.167 12.6344 101.167 11.7016C101.167 10.9204 101.376 10.2338 101.792 9.64196C102.214 9.04537 102.782 8.58135 103.497 8.24991C104.217 7.91374 105.024 7.74565 105.919 7.74565C106.823 7.74565 107.623 7.91137 108.319 8.24281C109.015 8.57425 109.567 9.03116 109.974 9.61355C110.386 10.1912 110.606 10.8493 110.635 11.588H109.349ZM121.927 11.588C121.847 10.7783 121.489 10.1344 120.855 9.65616C120.22 9.17794 119.422 8.93883 118.461 8.93883C117.784 8.93883 117.188 9.05484 116.672 9.28684C116.16 9.51885 115.758 9.84082 115.464 10.2528C115.175 10.6599 115.031 11.124 115.031 11.6448C115.031 12.0283 115.114 12.3645 115.279 12.6533C115.445 12.9421 115.668 13.1907 115.947 13.3991C116.231 13.6027 116.544 13.7778 116.885 13.9246C117.23 14.0714 117.578 14.1945 117.929 14.2939L119.463 14.7343C119.927 14.8621 120.391 15.0255 120.855 15.2243C121.319 15.4232 121.743 15.6742 122.126 15.9772C122.514 16.2755 122.824 16.6424 123.056 17.078C123.293 17.5089 123.412 18.0274 123.412 18.6334C123.412 19.4099 123.21 20.1083 122.808 20.7286C122.405 21.3489 121.828 21.8413 121.075 22.2059C120.322 22.5657 119.42 22.7456 118.369 22.7456C117.379 22.7456 116.52 22.5823 115.791 22.2556C115.062 21.9242 114.489 21.4672 114.072 20.8849C113.655 20.3025 113.421 19.6278 113.369 18.8607H114.733C114.78 19.4336 114.969 19.9189 115.301 20.3167C115.632 20.7144 116.063 21.0174 116.593 21.2258C117.124 21.4294 117.716 21.5312 118.369 21.5312C119.093 21.5312 119.737 21.4104 120.301 21.1689C120.869 20.9227 121.314 20.5818 121.636 20.1462C121.963 19.7059 122.126 19.1945 122.126 18.6121C122.126 18.1197 121.998 17.7078 121.743 17.3763C121.487 17.0402 121.129 16.7584 120.67 16.5312C120.216 16.3039 119.688 16.1027 119.086 15.9275L117.346 15.4161C116.205 15.0752 115.32 14.6041 114.69 14.0028C114.06 13.4014 113.745 12.6344 113.745 11.7016C113.745 10.9204 113.954 10.2338 114.37 9.64196C114.792 9.04537 115.36 8.58135 116.075 8.24991C116.795 7.91374 117.602 7.74565 118.497 7.74565C119.401 7.74565 120.201 7.91137 120.897 8.24281C121.593 8.57425 122.145 9.03116 122.552 9.61355C122.964 10.1912 123.184 10.8493 123.213 11.588H121.927ZM25.8121 42.4971H24.4769C24.3775 41.9999 24.1976 41.5406 23.9371 41.1192C23.6815 40.6931 23.3595 40.3214 22.9712 40.0042C22.583 39.6869 22.1426 39.4407 21.6502 39.2655C21.1578 39.0903 20.6251 39.0028 20.0522 39.0028C19.1336 39.0028 18.2956 39.2419 17.538 39.7201C16.7852 40.1983 16.1815 40.9014 15.7269 41.8295C15.2771 42.7528 15.0522 43.8844 15.0522 45.2243C15.0522 46.5738 15.2771 47.7101 15.7269 48.6334C16.1815 49.5567 16.7852 50.2575 17.538 50.7357C18.2956 51.2092 19.1336 51.4459 20.0522 51.4459C20.6251 51.4459 21.1578 51.3583 21.6502 51.1831C22.1426 51.008 22.583 50.7641 22.9712 50.4516C23.3595 50.1344 23.6815 49.7627 23.9371 49.3366C24.1976 48.9104 24.3775 48.4488 24.4769 47.9516H25.8121C25.6938 48.6192 25.4712 49.2419 25.1445 49.8195C24.8226 50.3924 24.4106 50.8943 23.9087 51.3252C23.4116 51.7561 22.8387 52.0922 22.19 52.3337C21.5413 52.5752 20.8287 52.6959 20.0522 52.6959C18.8306 52.6959 17.7463 52.3905 16.7994 51.7797C15.8524 51.1642 15.109 50.2977 14.5692 49.1803C14.0342 48.0629 13.7667 46.7442 13.7667 45.2243C13.7667 43.7045 14.0342 42.3858 14.5692 41.2684C15.109 40.151 15.8524 39.2868 16.7994 38.676C17.7463 38.0605 18.8306 37.7528 20.0522 37.7528C20.8287 37.7528 21.5413 37.8735 22.19 38.115C22.8387 38.3517 23.4116 38.6879 23.9087 39.1235C24.4106 39.5544 24.8226 40.0563 25.1445 40.6292C25.4712 41.2021 25.6938 41.8247 25.8121 42.4971ZM30.2599 37.9516V52.4971H28.9318V37.9516H30.2599ZM34.1271 52.4971V37.9516H38.8217C39.8539 37.9516 40.7157 38.1386 41.407 38.5127C42.103 38.882 42.6262 39.3957 42.9766 40.0539C43.3317 40.7073 43.5092 41.4578 43.5092 42.3053C43.5092 43.1528 43.3317 43.901 42.9766 44.5496C42.6262 45.1983 42.1054 45.7049 41.4141 46.0695C40.7228 46.4341 39.8658 46.6164 38.843 46.6164H34.8445V45.4019H38.8075C39.5651 45.4019 40.1948 45.2764 40.6967 45.0255C41.2034 44.7745 41.5798 44.4171 41.826 43.953C42.0769 43.489 42.2024 42.9398 42.2024 42.3053C42.2024 41.6708 42.0769 41.1169 41.826 40.6434C41.575 40.1652 41.1963 39.7958 40.6896 39.5354C40.1877 39.275 39.5533 39.1448 38.7862 39.1448H35.4553V52.4971H34.1271ZM40.5405 45.9346L44.12 52.4971H42.5859L39.0419 45.9346H40.5405ZM58.1364 42.4971H56.8011C56.7017 41.9999 56.5218 41.5406 56.2614 41.1192C56.0057 40.6931 55.6837 40.3214 55.2955 40.0042C54.9072 39.6869 54.4669 39.4407 53.9744 39.2655C53.482 39.0903 52.9493 39.0028 52.3764 39.0028C51.4579 39.0028 50.6198 39.2419 49.8622 39.7201C49.1094 40.1983 48.5057 40.9014 48.0511 41.8295C47.6013 42.7528 47.3764 43.8844 47.3764 45.2243C47.3764 46.5738 47.6013 47.7101 48.0511 48.6334C48.5057 49.5567 49.1094 50.2575 49.8622 50.7357C50.6198 51.2092 51.4579 51.4459 52.3764 51.4459C52.9493 51.4459 53.482 51.3583 53.9744 51.1831C54.4669 51.008 54.9072 50.7641 55.2955 50.4516C55.6837 50.1344 56.0057 49.7627 56.2614 49.3366C56.5218 48.9104 56.7017 48.4488 56.8011 47.9516H58.1364C58.018 48.6192 57.7955 49.2419 57.4688 49.8195C57.1468 50.3924 56.7348 50.8943 56.233 51.3252C55.7358 51.7561 55.1629 52.0922 54.5142 52.3337C53.8655 52.5752 53.1529 52.6959 52.3764 52.6959C51.1548 52.6959 50.0705 52.3905 49.1236 51.7797C48.1766 51.1642 47.4332 50.2977 46.8935 49.1803C46.3584 48.0629 46.0909 46.7442 46.0909 45.2243C46.0909 43.7045 46.3584 42.3858 46.8935 41.2684C47.4332 40.151 48.1766 39.2868 49.1236 38.676C50.0705 38.0605 51.1548 37.7528 52.3764 37.7528C53.1529 37.7528 53.8655 37.8735 54.5142 38.115C55.1629 38.3517 55.7358 38.6879 56.233 39.1235C56.7348 39.5544 57.1468 40.0563 57.4688 40.6292C57.7955 41.2021 58.018 41.8247 58.1364 42.4971ZM70.9506 37.9516H72.2788V47.5823C72.2788 48.5719 72.0468 49.4573 71.5827 50.2385C71.1187 51.0151 70.4724 51.6282 69.6438 52.078C68.82 52.5231 67.8612 52.7456 66.7674 52.7456C65.6784 52.7456 64.7196 52.5207 63.891 52.0709C63.0624 51.6211 62.4161 51.008 61.9521 50.2314C61.488 49.4549 61.256 48.5719 61.256 47.5823V37.9516H62.5842V47.49C62.5842 48.2617 62.757 48.9507 63.1026 49.5567C63.4483 50.1581 63.9336 50.6315 64.5586 50.9772C65.1883 51.3228 65.9246 51.4956 66.7674 51.4956C67.6102 51.4956 68.3465 51.3228 68.9762 50.9772C69.6059 50.6315 70.0913 50.1581 70.4322 49.5567C70.7778 48.9507 70.9506 48.2617 70.9506 47.49V37.9516ZM76.1388 52.4971V37.9516H77.467V51.3039H84.3988V52.4971H76.1388ZM88.3281 52.4971H86.9361L92.2273 37.9516H93.6477L98.9389 52.4971H97.5469L92.9872 39.6775H92.8878L88.3281 52.4971ZM89.3295 46.9218H96.5455V48.115H89.3295V46.9218ZM98.8519 39.1448V37.9516H109.399V39.1448H104.789V52.4971H103.461V39.1448H98.8519ZM113.717 37.9516V52.4971H112.389V37.9516H113.717ZM129.509 45.2243C129.509 46.7395 129.239 48.0581 128.699 49.1803C128.159 50.2977 127.416 51.1642 126.469 51.7797C125.527 52.3905 124.443 52.6959 123.216 52.6959C121.99 52.6959 120.903 52.3905 119.956 51.7797C119.014 51.1642 118.273 50.2977 117.733 49.1803C117.198 48.0581 116.931 46.7395 116.931 45.2243C116.931 43.7092 117.198 42.3929 117.733 41.2755C118.273 40.1533 119.016 39.2868 119.963 38.676C120.91 38.0605 121.995 37.7528 123.216 37.7528C124.443 37.7528 125.527 38.0605 126.469 38.676C127.416 39.2868 128.159 40.1533 128.699 41.2755C129.239 42.3929 129.509 43.7092 129.509 45.2243ZM128.216 45.2243C128.216 43.9223 127.998 42.8072 127.563 41.8792C127.127 40.9464 126.533 40.2338 125.78 39.7414C125.027 39.249 124.173 39.0028 123.216 39.0028C122.265 39.0028 121.412 39.249 120.659 39.7414C119.907 40.2338 119.31 40.944 118.87 41.8721C118.434 42.8001 118.216 43.9175 118.216 45.2243C118.216 46.5264 118.434 47.6415 118.87 48.5695C119.305 49.4975 119.9 50.2101 120.652 50.7073C121.405 51.1997 122.26 51.4459 123.216 51.4459C124.173 51.4459 125.027 51.1997 125.78 50.7073C126.538 50.2149 127.134 49.5046 127.57 48.5766C128.006 47.6439 128.221 46.5264 128.216 45.2243ZM144.049 37.9516V52.4971H142.756L134.163 40.3167H134.049V52.4971H132.721V37.9516H134.006L142.629 50.1462H142.742V37.9516H144.049Z" fill="black"/>
</svg>
