<svg width="55" height="44" viewBox="0 0 55 44" fill="none" xmlns="http://www.w3.org/2000/svg">
<path d="M54.5 26H30M30 26V41.5H0.5V11H30V26Z" stroke="black"/>
<path d="M15.5016 35.4091C13.8056 35.4091 12.3056 34.9787 11.0016 34.1179C9.70614 33.2571 8.69194 32.0682 7.95898 30.5511C7.22603 29.0256 6.85955 27.2656 6.85955 25.2713C6.85955 23.2599 7.22603 21.4915 7.95898 19.9659C8.69194 18.4318 9.70614 17.2386 11.0016 16.3864C12.3056 15.5256 13.8056 15.0952 15.5016 15.0952C17.1976 15.0952 18.6934 15.5256 19.9888 16.3864C21.2843 17.2472 22.2985 18.4403 23.0314 19.9659C23.7729 21.4915 24.1436 23.2599 24.1436 25.2713C24.1436 27.2656 23.7772 29.0256 23.0442 30.5511C22.3113 32.0682 21.2928 33.2571 19.9888 34.1179C18.6934 34.9787 17.1976 35.4091 15.5016 35.4091ZM15.5016 33.3253C16.8652 33.3253 18.0201 32.9588 18.9661 32.2259C19.9121 31.4929 20.628 30.517 21.1138 29.2983C21.6081 28.0795 21.8553 26.7372 21.8553 25.2713C21.8553 23.8054 21.6081 22.4588 21.1138 21.2315C20.628 20.0043 19.9121 19.0199 18.9661 18.2784C18.0201 17.5369 16.8652 17.1662 15.5016 17.1662C14.1465 17.1662 12.9917 17.5369 12.0371 18.2784C11.0911 19.0199 10.3709 20.0043 9.8766 21.2315C9.3908 22.4588 9.1479 23.8054 9.1479 25.2713C9.1479 26.7372 9.3908 28.0795 9.8766 29.2983C10.3709 30.517 11.0911 31.4929 12.0371 32.2259C12.9831 32.9588 14.138 33.3253 15.5016 33.3253Z" fill="black"/>
</svg>
