<svg width="247" height="89" viewBox="0 0 247 89" fill="none" xmlns="http://www.w3.org/2000/svg">
<path d="M236 38H185L210.5 76L236 38Z" fill="#B638B5" stroke="white" stroke-width="2"/>
<rect x="212.5" y="8.5" width="25" height="24" fill="#D9D9D9" stroke="black"/>
<path d="M217.701 12.7651H219.803L224.746 24.839H224.917L229.86 12.7651H231.962V27.3105H230.314V16.2594H230.172L225.627 27.3105H224.036L219.491 16.2594H219.349V27.3105H217.701V12.7651Z" fill="black"/>
<path d="M3 3V85.5H244V3H3Z" stroke="#B70FB5" stroke-width="6"/>
<path d="M210.688 67.0044C209 67.0044 207.496 66.7147 206.175 66.1351C204.862 65.5556 203.818 64.7502 203.043 63.7189C202.276 62.6792 201.858 61.4732 201.79 60.101H205.012C205.08 60.9448 205.369 61.6735 205.881 62.2871C206.392 62.8922 207.061 63.361 207.888 63.6934C208.715 64.0257 209.631 64.1919 210.637 64.1919C211.762 64.1919 212.759 63.9959 213.628 63.6039C214.497 63.2118 215.179 62.6664 215.673 61.9675C216.168 61.2686 216.415 60.459 216.415 59.5385C216.415 58.5755 216.176 57.7274 215.699 56.9945C215.222 56.253 214.523 55.6735 213.602 55.2559C212.682 54.8382 211.557 54.6294 210.227 54.6294H208.131V51.8169H210.227C211.267 51.8169 212.179 51.6294 212.963 51.2544C213.756 50.8794 214.374 50.351 214.817 49.6692C215.269 48.9874 215.494 48.1863 215.494 47.2658C215.494 46.3794 215.298 45.6081 214.906 44.9519C214.514 44.2956 213.96 43.7843 213.244 43.4178C212.537 43.0513 211.702 42.8681 210.739 42.8681C209.835 42.8681 208.983 43.0343 208.182 43.3667C207.389 43.6905 206.742 44.1635 206.239 44.7857C205.736 45.3993 205.463 46.1408 205.421 47.0101H202.352C202.404 45.638 202.817 44.4363 203.593 43.405C204.368 42.3652 205.382 41.5556 206.635 40.976C207.896 40.3965 209.281 40.1067 210.79 40.1067C212.409 40.1067 213.798 40.4348 214.958 41.0911C216.117 41.7388 217.007 42.5953 217.629 43.6607C218.252 44.726 218.563 45.8766 218.563 47.1124C218.563 48.5868 218.175 49.8439 217.399 50.8837C216.632 51.9235 215.588 52.6436 214.267 53.0442V53.2488C215.921 53.5215 217.212 54.2246 218.141 55.3581C219.07 56.4831 219.534 57.8766 219.534 59.5385C219.534 60.9618 219.146 62.2402 218.371 63.3738C217.604 64.4988 216.556 65.3851 215.226 66.0328C213.896 66.6806 212.384 67.0044 210.688 67.0044Z" fill="white"/>
</svg>
