<svg width="13" height="18" viewBox="0 0 13 18" fill="none" xmlns="http://www.w3.org/2000/svg">
<path d="M0.000355244 17.4546V4.3869e-05H5.89808C7.26172 4.3869e-05 8.38104 0.232998 9.25604 0.698907C10.131 1.15913 10.7788 1.79266 11.1992 2.59948C11.6197 3.40629 11.8299 4.32391 11.8299 5.35232C11.8299 6.38073 11.6197 7.29266 11.1992 8.08811C10.7788 8.88357 10.1339 9.50857 9.26456 9.96311C8.39524 10.412 7.28445 10.6364 5.93217 10.6364H1.15945V8.72732H5.86399C6.79581 8.72732 7.54581 8.59095 8.11399 8.31823C8.68786 8.0455 9.10263 7.65914 9.35831 7.15914C9.61967 6.65345 9.75036 6.05118 9.75036 5.35232C9.75036 4.65345 9.61967 4.04266 9.35831 3.51993C9.09695 2.9972 8.67933 2.59379 8.10547 2.3097C7.53161 2.01993 6.77308 1.87504 5.8299 1.87504H2.11399V17.4546H0.000355244ZM8.21626 9.61368L12.5117 17.4546H10.0572L5.8299 9.61368H8.21626Z" fill="white"/>
</svg>
