<svg width="13" height="18" viewBox="0 0 13 18" fill="none" xmlns="http://www.w3.org/2000/svg">
<path d="M10.2958 4.60245C10.1935 3.73881 9.77876 3.06836 9.05149 2.59109C8.32422 2.11381 7.43217 1.87518 6.37536 1.87518C5.60263 1.87518 4.92649 2.00018 4.34695 2.25018C3.77308 2.50018 3.32422 2.84393 3.00036 3.28143C2.68217 3.71893 2.52308 4.21609 2.52308 4.7729C2.52308 5.23881 2.63388 5.63938 2.85547 5.97461C3.08274 6.30415 3.37251 6.57972 3.72479 6.80131C4.07706 7.01722 4.44638 7.1962 4.83274 7.33825C5.21911 7.47461 5.57422 7.5854 5.89808 7.67063L7.67081 8.1479C8.12536 8.26722 8.63104 8.432 9.18786 8.64222C9.75036 8.85245 10.2873 9.13938 10.7987 9.50302C11.3157 9.86097 11.7418 10.3212 12.0771 10.8837C12.4123 11.4462 12.5799 12.1365 12.5799 12.9547C12.5799 13.8979 12.3327 14.7502 11.8384 15.5115C11.3498 16.2729 10.6339 16.878 9.6907 17.3269C8.7532 17.7757 7.61399 18.0002 6.27308 18.0002C5.02308 18.0002 3.9407 17.7985 3.02592 17.3951C2.11683 16.9917 1.40092 16.4292 0.878196 15.7076C0.361151 14.986 0.068537 14.1479 0.000355154 13.1934H2.18217C2.23899 13.8525 2.46058 14.3979 2.84695 14.8297C3.23899 15.2559 3.73331 15.574 4.3299 15.7843C4.93217 15.9888 5.5799 16.0911 6.27308 16.0911C7.0799 16.0911 7.80433 15.9604 8.44638 15.699C9.08842 15.432 9.59695 15.0627 9.97195 14.5911C10.3469 14.1138 10.5344 13.557 10.5344 12.9206C10.5344 12.3411 10.3725 11.8695 10.0487 11.5059C9.72479 11.1422 9.29865 10.8468 8.77024 10.6195C8.24183 10.3922 7.67081 10.1934 7.05717 10.0229L4.90945 9.40927C3.54581 9.01722 2.46626 8.45756 1.67081 7.73029C0.875355 7.00302 0.477628 6.05131 0.477628 4.87518C0.477628 3.8979 0.741832 3.04563 1.27024 2.31836C1.80433 1.5854 2.52024 1.01722 3.41797 0.613813C4.32138 0.204722 5.3299 0.000176907 6.44354 0.000176907C7.56854 0.000176907 8.56854 0.201881 9.44354 0.60529C10.3185 1.00302 11.0117 1.54847 11.5231 2.24165C12.0401 2.93484 12.3129 3.72177 12.3413 4.60245H10.2958Z" fill="white"/>
</svg>
