<svg width="240" height="60" viewBox="0 0 240 60" fill="none" xmlns="http://www.w3.org/2000/svg">
<rect x="1.5" y="1.5" width="237" height="57" fill="#B3B3B3"/>
<rect x="1.5" y="1.5" width="237" height="57" stroke="url(#paint0_linear_2092_18)" stroke-opacity="0.41" stroke-width="3"/>
<path d="M83.1591 26.9091C83.0568 26.0455 82.642 25.375 81.9148 24.8977C81.1875 24.4205 80.2955 24.1818 79.2386 24.1818C78.4659 24.1818 77.7898 24.3068 77.2102 24.5568C76.6364 24.8068 76.1875 25.1506 75.8636 25.5881C75.5455 26.0256 75.3864 26.5227 75.3864 27.0795C75.3864 27.5455 75.4972 27.946 75.7188 28.2812C75.946 28.6108 76.2358 28.8864 76.5881 29.108C76.9403 29.3239 77.3097 29.5028 77.696 29.6449C78.0824 29.7812 78.4375 29.892 78.7614 29.9773L80.5341 30.4545C80.9886 30.5739 81.4943 30.7386 82.0511 30.9489C82.6136 31.1591 83.1506 31.446 83.6619 31.8097C84.179 32.1676 84.6051 32.6278 84.9403 33.1903C85.2756 33.7528 85.4432 34.4432 85.4432 35.2614C85.4432 36.2045 85.196 37.0568 84.7017 37.8182C84.2131 38.5795 83.4972 39.1847 82.554 39.6335C81.6165 40.0824 80.4773 40.3068 79.1364 40.3068C77.8864 40.3068 76.804 40.1051 75.8892 39.7017C74.9801 39.2983 74.2642 38.7358 73.7415 38.0142C73.2244 37.2926 72.9318 36.4545 72.8636 35.5H75.0455C75.1023 36.1591 75.3239 36.7045 75.7102 37.1364C76.1023 37.5625 76.5966 37.8807 77.1932 38.0909C77.7955 38.2955 78.4432 38.3977 79.1364 38.3977C79.9432 38.3977 80.6676 38.267 81.3097 38.0057C81.9517 37.7386 82.4602 37.3693 82.8352 36.8977C83.2102 36.4205 83.3977 35.8636 83.3977 35.2273C83.3977 34.6477 83.2358 34.1761 82.9119 33.8125C82.5881 33.4489 82.1619 33.1534 81.6335 32.9261C81.1051 32.6989 80.5341 32.5 79.9205 32.3295L77.7727 31.7159C76.4091 31.3239 75.3295 30.7642 74.5341 30.0369C73.7386 29.3097 73.3409 28.358 73.3409 27.1818C73.3409 26.2045 73.6051 25.3523 74.1335 24.625C74.6676 23.892 75.3835 23.3239 76.2812 22.9205C77.1847 22.5114 78.1932 22.3068 79.3068 22.3068C80.4318 22.3068 81.4318 22.5085 82.3068 22.9119C83.1818 23.3097 83.875 23.8551 84.3864 24.5483C84.9034 25.2415 85.1761 26.0284 85.2045 26.9091H83.1591ZM88.9183 40V22.5455H99.4524V24.4205H91.032V30.3182H98.907V32.1932H91.032V38.125H99.5888V40H88.9183ZM117.308 28H115.194C115.069 27.392 114.85 26.858 114.538 26.3977C114.231 25.9375 113.856 25.5511 113.413 25.2386C112.975 24.9205 112.489 24.6818 111.955 24.5227C111.421 24.3636 110.864 24.2841 110.285 24.2841C109.228 24.2841 108.271 24.5511 107.413 25.0852C106.56 25.6193 105.881 26.4062 105.376 27.446C104.876 28.4858 104.626 29.7614 104.626 31.2727C104.626 32.7841 104.876 34.0597 105.376 35.0994C105.881 36.1392 106.56 36.9261 107.413 37.4602C108.271 37.9943 109.228 38.2614 110.285 38.2614C110.864 38.2614 111.421 38.1818 111.955 38.0227C112.489 37.8636 112.975 37.6278 113.413 37.3153C113.856 36.9972 114.231 36.608 114.538 36.1477C114.85 35.6818 115.069 35.1477 115.194 34.5455H117.308C117.148 35.4375 116.859 36.2358 116.438 36.9403C116.018 37.6449 115.495 38.2443 114.87 38.7386C114.245 39.2273 113.543 39.5994 112.765 39.8551C111.992 40.1108 111.165 40.2386 110.285 40.2386C108.796 40.2386 107.472 39.875 106.313 39.1477C105.154 38.4205 104.242 37.3864 103.577 36.0455C102.913 34.7045 102.58 33.1136 102.58 31.2727C102.58 29.4318 102.913 27.8409 103.577 26.5C104.242 25.1591 105.154 24.125 106.313 23.3977C107.472 22.6705 108.796 22.3068 110.285 22.3068C111.165 22.3068 111.992 22.4347 112.765 22.6903C113.543 22.946 114.245 23.321 114.87 23.8153C115.495 24.304 116.018 24.9006 116.438 25.6051C116.859 26.304 117.148 27.1023 117.308 28ZM132.178 22.5455H134.291V34.1023C134.291 35.2955 134.01 36.3608 133.447 37.2983C132.891 38.2301 132.104 38.9659 131.087 39.5057C130.07 40.0398 128.876 40.3068 127.507 40.3068C126.138 40.3068 124.945 40.0398 123.928 39.5057C122.911 38.9659 122.121 38.2301 121.558 37.2983C121.001 36.3608 120.723 35.2955 120.723 34.1023V22.5455H122.837V33.9318C122.837 34.7841 123.024 35.5426 123.399 36.2074C123.774 36.8665 124.308 37.3864 125.001 37.767C125.7 38.142 126.536 38.3295 127.507 38.3295C128.479 38.3295 129.314 38.142 130.013 37.767C130.712 37.3864 131.246 36.8665 131.615 36.2074C131.99 35.5426 132.178 34.7841 132.178 33.9318V22.5455ZM138.512 40V22.5455H144.41C145.773 22.5455 146.893 22.7784 147.768 23.2443C148.643 23.7045 149.29 24.3381 149.711 25.1449C150.131 25.9517 150.342 26.8693 150.342 27.8977C150.342 28.9261 150.131 29.8381 149.711 30.6335C149.29 31.429 148.646 32.054 147.776 32.5085C146.907 32.9574 145.796 33.1818 144.444 33.1818H139.671V31.2727H144.376C145.308 31.2727 146.058 31.1364 146.626 30.8636C147.2 30.5909 147.614 30.2045 147.87 29.7045C148.131 29.1989 148.262 28.5966 148.262 27.8977C148.262 27.1989 148.131 26.5881 147.87 26.0653C147.609 25.5426 147.191 25.1392 146.617 24.8551C146.043 24.5653 145.285 24.4205 144.342 24.4205H140.626V40H138.512ZM146.728 32.1591L151.023 40H148.569L144.342 32.1591H146.728ZM155.977 22.5455V40H153.864V22.5455H155.977ZM159.261 24.4205V22.5455H172.352V24.4205H166.863V40H164.749V24.4205H159.261ZM174.114 22.5455H176.534L181.375 30.6932H181.58L186.42 22.5455H188.841L182.534 32.8068V40H180.42V32.8068L174.114 22.5455Z" fill="#5D5D5D"/>
<path d="M234.5 37.5H205.5L220 56L234.5 37.5Z" fill="#848484"/>
<defs>
<linearGradient id="paint0_linear_2092_18" x1="1.5" y1="1.5" x2="90.9937" y2="263.617" gradientUnits="userSpaceOnUse">
<stop offset="0.134615" stop-color="white"/>
<stop offset="0.384615" stop-color="#797979"/>
</linearGradient>
</defs>
</svg>
