<svg width="240" height="60" viewBox="0 0 240 60" fill="none" xmlns="http://www.w3.org/2000/svg">
<rect x="1.5" y="1.5" width="237" height="57" fill="#B3B3B3"/>
<rect x="1.5" y="1.5" width="237" height="57" stroke="url(#paint0_linear_2092_85)" stroke-opacity="0.41" stroke-width="3"/>
<path d="M74.1591 25.9091C74.0568 25.0455 73.642 24.375 72.9148 23.8977C72.1875 23.4205 71.2955 23.1818 70.2386 23.1818C69.4659 23.1818 68.7898 23.3068 68.2102 23.5568C67.6364 23.8068 67.1875 24.1506 66.8636 24.5881C66.5455 25.0256 66.3864 25.5227 66.3864 26.0795C66.3864 26.5455 66.4972 26.946 66.7188 27.2812C66.946 27.6108 67.2358 27.8864 67.5881 28.108C67.9403 28.3239 68.3097 28.5028 68.696 28.6449C69.0824 28.7812 69.4375 28.892 69.7614 28.9773L71.5341 29.4545C71.9886 29.5739 72.4943 29.7386 73.0511 29.9489C73.6136 30.1591 74.1506 30.446 74.6619 30.8097C75.179 31.1676 75.6051 31.6278 75.9403 32.1903C76.2756 32.7528 76.4432 33.4432 76.4432 34.2614C76.4432 35.2045 76.196 36.0568 75.7017 36.8182C75.2131 37.5795 74.4972 38.1847 73.554 38.6335C72.6165 39.0824 71.4773 39.3068 70.1364 39.3068C68.8864 39.3068 67.804 39.1051 66.8892 38.7017C65.9801 38.2983 65.2642 37.7358 64.7415 37.0142C64.2244 36.2926 63.9318 35.4545 63.8636 34.5H66.0455C66.1023 35.1591 66.3239 35.7045 66.7102 36.1364C67.1023 36.5625 67.5966 36.8807 68.1932 37.0909C68.7955 37.2955 69.4432 37.3977 70.1364 37.3977C70.9432 37.3977 71.6676 37.267 72.3097 37.0057C72.9517 36.7386 73.4602 36.3693 73.8352 35.8977C74.2102 35.4205 74.3977 34.8636 74.3977 34.2273C74.3977 33.6477 74.2358 33.1761 73.9119 32.8125C73.5881 32.4489 73.1619 32.1534 72.6335 31.9261C72.1051 31.6989 71.5341 31.5 70.9205 31.3295L68.7727 30.7159C67.4091 30.3239 66.3295 29.7642 65.5341 29.0369C64.7386 28.3097 64.3409 27.358 64.3409 26.1818C64.3409 25.2045 64.6051 24.3523 65.1335 23.625C65.6676 22.892 66.3835 22.3239 67.2812 21.9205C68.1847 21.5114 69.1932 21.3068 70.3068 21.3068C71.4318 21.3068 72.4318 21.5085 73.3068 21.9119C74.1818 22.3097 74.875 22.8551 75.3864 23.5483C75.9034 24.2415 76.1761 25.0284 76.2045 25.9091H74.1591ZM79.9183 39V21.5455H90.4524V23.4205H82.032V29.3182H89.907V31.1932H82.032V37.125H90.5888V39H79.9183ZM94.2621 39V21.5455H100.16C101.523 21.5455 102.643 21.7784 103.518 22.2443C104.393 22.7045 105.04 23.3381 105.461 24.1449C105.881 24.9517 106.092 25.8693 106.092 26.8977C106.092 27.9261 105.881 28.8381 105.461 29.6335C105.04 30.429 104.396 31.054 103.526 31.5085C102.657 31.9574 101.546 32.1818 100.194 32.1818H95.4212V30.2727H100.126C101.058 30.2727 101.808 30.1364 102.376 29.8636C102.95 29.5909 103.364 29.2045 103.62 28.7045C103.881 28.1989 104.012 27.5966 104.012 26.8977C104.012 26.1989 103.881 25.5881 103.62 25.0653C103.359 24.5426 102.941 24.1392 102.367 23.8551C101.793 23.5653 101.035 23.4205 100.092 23.4205H96.3757V39H94.2621ZM102.478 31.1591L106.773 39H104.319L100.092 31.1591H102.478ZM109.931 21.5455L115.113 36.2386H115.317L120.499 21.5455H122.715L116.306 39H114.124L107.715 21.5455H109.931ZM127.548 21.5455V39H125.434V21.5455H127.548ZM145.831 27H143.717C143.592 26.392 143.374 25.858 143.061 25.3977C142.754 24.9375 142.379 24.5511 141.936 24.2386C141.499 23.9205 141.013 23.6818 140.479 23.5227C139.945 23.3636 139.388 23.2841 138.808 23.2841C137.751 23.2841 136.794 23.5511 135.936 24.0852C135.084 24.6193 134.405 25.4062 133.899 26.446C133.399 27.4858 133.149 28.7614 133.149 30.2727C133.149 31.7841 133.399 33.0597 133.899 34.0994C134.405 35.1392 135.084 35.9261 135.936 36.4602C136.794 36.9943 137.751 37.2614 138.808 37.2614C139.388 37.2614 139.945 37.1818 140.479 37.0227C141.013 36.8636 141.499 36.6278 141.936 36.3153C142.379 35.9972 142.754 35.608 143.061 35.1477C143.374 34.6818 143.592 34.1477 143.717 33.5455H145.831C145.672 34.4375 145.382 35.2358 144.962 35.9403C144.541 36.6449 144.018 37.2443 143.393 37.7386C142.768 38.2273 142.067 38.5994 141.288 38.8551C140.516 39.1108 139.689 39.2386 138.808 39.2386C137.32 39.2386 135.996 38.875 134.837 38.1477C133.678 37.4205 132.766 36.3864 132.101 35.0455C131.436 33.7045 131.104 32.1136 131.104 30.2727C131.104 28.4318 131.436 26.8409 132.101 25.5C132.766 24.1591 133.678 23.125 134.837 22.3977C135.996 21.6705 137.32 21.3068 138.808 21.3068C139.689 21.3068 140.516 21.4347 141.288 21.6903C142.067 21.946 142.768 22.321 143.393 22.8153C144.018 23.304 144.541 23.9006 144.962 24.6051C145.382 25.304 145.672 26.1023 145.831 27ZM149.246 39V21.5455H159.781V23.4205H151.36V29.3182H159.235V31.1932H151.36V37.125H159.917V39H149.246ZM173.136 25.9091C173.033 25.0455 172.619 24.375 171.891 23.8977C171.164 23.4205 170.272 23.1818 169.215 23.1818C168.442 23.1818 167.766 23.3068 167.187 23.5568C166.613 23.8068 166.164 24.1506 165.84 24.5881C165.522 25.0256 165.363 25.5227 165.363 26.0795C165.363 26.5455 165.474 26.946 165.695 27.2812C165.923 27.6108 166.212 27.8864 166.565 28.108C166.917 28.3239 167.286 28.5028 167.673 28.6449C168.059 28.7812 168.414 28.892 168.738 28.9773L170.511 29.4545C170.965 29.5739 171.471 29.7386 172.028 29.9489C172.59 30.1591 173.127 30.446 173.638 30.8097C174.156 31.1676 174.582 31.6278 174.917 32.1903C175.252 32.7528 175.42 33.4432 175.42 34.2614C175.42 35.2045 175.173 36.0568 174.678 36.8182C174.19 37.5795 173.474 38.1847 172.531 38.6335C171.593 39.0824 170.454 39.3068 169.113 39.3068C167.863 39.3068 166.781 39.1051 165.866 38.7017C164.957 38.2983 164.241 37.7358 163.718 37.0142C163.201 36.2926 162.908 35.4545 162.84 34.5H165.022C165.079 35.1591 165.3 35.7045 165.687 36.1364C166.079 36.5625 166.573 36.8807 167.17 37.0909C167.772 37.2955 168.42 37.3977 169.113 37.3977C169.92 37.3977 170.644 37.267 171.286 37.0057C171.928 36.7386 172.437 36.3693 172.812 35.8977C173.187 35.4205 173.374 34.8636 173.374 34.2273C173.374 33.6477 173.212 33.1761 172.888 32.8125C172.565 32.4489 172.138 32.1534 171.61 31.9261C171.082 31.6989 170.511 31.5 169.897 31.3295L167.749 30.7159C166.386 30.3239 165.306 29.7642 164.511 29.0369C163.715 28.3097 163.317 27.358 163.317 26.1818C163.317 25.2045 163.582 24.3523 164.11 23.625C164.644 22.892 165.36 22.3239 166.258 21.9205C167.161 21.5114 168.17 21.3068 169.283 21.3068C170.408 21.3068 171.408 21.5085 172.283 21.9119C173.158 22.3097 173.852 22.8551 174.363 23.5483C174.88 24.2415 175.153 25.0284 175.181 25.9091H173.136Z" fill="#5D5D5D"/>
<path d="M234.5 37.5H205.5L220 56L234.5 37.5Z" fill="#848484"/>
<defs>
<linearGradient id="paint0_linear_2092_85" x1="1.5" y1="1.5" x2="90.9937" y2="263.617" gradientUnits="userSpaceOnUse">
<stop offset="0.134615" stop-color="white"/>
<stop offset="0.384615" stop-color="#797979"/>
</linearGradient>
</defs>
</svg>
