<svg width="387" height="518" viewBox="0 0 387 518" fill="none" xmlns="http://www.w3.org/2000/svg">
<g filter="url(#filter0_i_2064_60)">
<path d="M0 82C0 36.7127 36.7127 0 82 0H305C350.287 0 387 36.7127 387 82V518H0V82Z" fill="#E7E7E7"/>
</g>
<path d="M82 1.5H305C349.459 1.5 385.5 37.5411 385.5 82V516.5H1.5V82C1.5 37.5411 37.5411 1.5 82 1.5Z" stroke="#525252" stroke-width="3"/>
<path d="M79.1136 75V57.5455H85.2159C86.4318 57.5455 87.4347 57.7557 88.2244 58.1761C89.0142 58.5909 89.6023 59.1506 89.9886 59.8551C90.375 60.554 90.5682 61.3295 90.5682 62.1818C90.5682 62.9318 90.4347 63.5511 90.1676 64.0398C89.9063 64.5284 89.5597 64.9148 89.1278 65.1989C88.7017 65.483 88.2386 65.6932 87.7386 65.8295V66C88.2727 66.0341 88.8097 66.2216 89.3494 66.5625C89.8892 66.9034 90.3409 67.392 90.7045 68.0284C91.0682 68.6648 91.25 69.4432 91.25 70.3636C91.25 71.2386 91.0511 72.0256 90.6534 72.7244C90.2557 73.4233 89.6278 73.9773 88.7699 74.3864C87.9119 74.7955 86.7955 75 85.4205 75H79.1136ZM81.2273 73.125H85.4205C86.8011 73.125 87.7813 72.858 88.3608 72.3239C88.946 71.7841 89.2386 71.1307 89.2386 70.3636C89.2386 69.7727 89.0881 69.2273 88.7869 68.7273C88.4858 68.2216 88.0568 67.8182 87.5 67.517C86.9432 67.2102 86.2841 67.0568 85.5227 67.0568H81.2273V73.125ZM81.2273 65.2159H85.1477C85.7841 65.2159 86.358 65.0909 86.8693 64.8409C87.3864 64.5909 87.7955 64.2386 88.0966 63.7841C88.4034 63.3295 88.5568 62.7955 88.5568 62.1818C88.5568 61.4148 88.2898 60.7642 87.7557 60.2301C87.2216 59.6903 86.375 59.4205 85.2159 59.4205H81.2273V65.2159ZM106.178 57.5455H108.291V69.1023C108.291 70.2955 108.01 71.3608 107.447 72.2983C106.891 73.2301 106.104 73.9659 105.087 74.5057C104.07 75.0398 102.876 75.3068 101.507 75.3068C100.138 75.3068 98.9446 75.0398 97.9276 74.5057C96.9105 73.9659 96.1207 73.2301 95.5582 72.2983C95.0014 71.3608 94.723 70.2955 94.723 69.1023V57.5455H96.8366V68.9318C96.8366 69.7841 97.0241 70.5426 97.3991 71.2074C97.7741 71.8665 98.3082 72.3864 99.0014 72.767C99.7003 73.142 100.536 73.3295 101.507 73.3295C102.479 73.3295 103.314 73.142 104.013 72.767C104.712 72.3864 105.246 71.8665 105.615 71.2074C105.99 70.5426 106.178 69.7841 106.178 68.9318V57.5455ZM122.058 61.9091C121.955 61.0455 121.54 60.375 120.813 59.8977C120.086 59.4205 119.194 59.1818 118.137 59.1818C117.364 59.1818 116.688 59.3068 116.109 59.5568C115.535 59.8068 115.086 60.1506 114.762 60.5881C114.444 61.0256 114.285 61.5227 114.285 62.0795C114.285 62.5455 114.396 62.946 114.617 63.2812C114.844 63.6108 115.134 63.8864 115.487 64.108C115.839 64.3239 116.208 64.5028 116.594 64.6449C116.981 64.7812 117.336 64.892 117.66 64.9773L119.433 65.4545C119.887 65.5739 120.393 65.7386 120.95 65.9489C121.512 66.1591 122.049 66.446 122.56 66.8097C123.077 67.1676 123.504 67.6278 123.839 68.1903C124.174 68.7528 124.342 69.4432 124.342 70.2614C124.342 71.2045 124.094 72.0568 123.6 72.8182C123.112 73.5795 122.396 74.1847 121.452 74.6335C120.515 75.0824 119.376 75.3068 118.035 75.3068C116.785 75.3068 115.702 75.1051 114.788 74.7017C113.879 74.2983 113.163 73.7358 112.64 73.0142C112.123 72.2926 111.83 71.4545 111.762 70.5H113.944C114.001 71.1591 114.222 71.7045 114.609 72.1364C115.001 72.5625 115.495 72.8807 116.092 73.0909C116.694 73.2955 117.342 73.3977 118.035 73.3977C118.842 73.3977 119.566 73.267 120.208 73.0057C120.85 72.7386 121.359 72.3693 121.734 71.8977C122.109 71.4205 122.296 70.8636 122.296 70.2273C122.296 69.6477 122.134 69.1761 121.81 68.8125C121.487 68.4489 121.06 68.1534 120.532 67.9261C120.004 67.6989 119.433 67.5 118.819 67.3295L116.671 66.7159C115.308 66.3239 114.228 65.7642 113.433 65.0369C112.637 64.3097 112.239 63.358 112.239 62.1818C112.239 61.2045 112.504 60.3523 113.032 59.625C113.566 58.892 114.282 58.3239 115.18 57.9205C116.083 57.5114 117.092 57.3068 118.205 57.3068C119.33 57.3068 120.33 57.5085 121.205 57.9119C122.08 58.3097 122.773 58.8551 123.285 59.5483C123.802 60.2415 124.075 61.0284 124.103 61.9091H122.058ZM129.93 57.5455V75H127.817V57.5455H129.93ZM148.009 57.5455V75H145.964L136.452 61.2955H136.282V75H134.168V57.5455H136.214L145.759 71.2841H145.93V57.5455H148.009ZM152.239 75V57.5455H162.773V59.4205H154.352V65.3182H162.227V67.1932H154.352V73.125H162.909V75H152.239ZM176.128 61.9091C176.026 61.0455 175.611 60.375 174.884 59.8977C174.156 59.4205 173.264 59.1818 172.207 59.1818C171.435 59.1818 170.759 59.3068 170.179 59.5568C169.605 59.8068 169.156 60.1506 168.832 60.5881C168.514 61.0256 168.355 61.5227 168.355 62.0795C168.355 62.5455 168.466 62.946 168.688 63.2812C168.915 63.6108 169.205 63.8864 169.557 64.108C169.909 64.3239 170.278 64.5028 170.665 64.6449C171.051 64.7812 171.406 64.892 171.73 64.9773L173.503 65.4545C173.957 65.5739 174.463 65.7386 175.02 65.9489C175.582 66.1591 176.119 66.446 176.631 66.8097C177.148 67.1676 177.574 67.6278 177.909 68.1903C178.244 68.7528 178.412 69.4432 178.412 70.2614C178.412 71.2045 178.165 72.0568 177.67 72.8182C177.182 73.5795 176.466 74.1847 175.523 74.6335C174.585 75.0824 173.446 75.3068 172.105 75.3068C170.855 75.3068 169.773 75.1051 168.858 74.7017C167.949 74.2983 167.233 73.7358 166.71 73.0142C166.193 72.2926 165.901 71.4545 165.832 70.5H168.014C168.071 71.1591 168.293 71.7045 168.679 72.1364C169.071 72.5625 169.565 72.8807 170.162 73.0909C170.764 73.2955 171.412 73.3977 172.105 73.3977C172.912 73.3977 173.636 73.267 174.278 73.0057C174.92 72.7386 175.429 72.3693 175.804 71.8977C176.179 71.4205 176.366 70.8636 176.366 70.2273C176.366 69.6477 176.205 69.1761 175.881 68.8125C175.557 68.4489 175.131 68.1534 174.602 67.9261C174.074 67.6989 173.503 67.5 172.889 67.3295L170.741 66.7159C169.378 66.3239 168.298 65.7642 167.503 65.0369C166.707 64.3097 166.31 63.358 166.31 62.1818C166.31 61.2045 166.574 60.3523 167.102 59.625C167.636 58.892 168.352 58.3239 169.25 57.9205C170.153 57.5114 171.162 57.3068 172.276 57.3068C173.401 57.3068 174.401 57.5085 175.276 57.9119C176.151 58.3097 176.844 58.8551 177.355 59.5483C177.872 60.2415 178.145 61.0284 178.173 61.9091H176.128ZM191.433 61.9091C191.33 61.0455 190.915 60.375 190.188 59.8977C189.461 59.4205 188.569 59.1818 187.512 59.1818C186.739 59.1818 186.063 59.3068 185.484 59.5568C184.91 59.8068 184.461 60.1506 184.137 60.5881C183.819 61.0256 183.66 61.5227 183.66 62.0795C183.66 62.5455 183.771 62.946 183.992 63.2812C184.219 63.6108 184.509 63.8864 184.862 64.108C185.214 64.3239 185.583 64.5028 185.969 64.6449C186.356 64.7812 186.711 64.892 187.035 64.9773L188.808 65.4545C189.262 65.5739 189.768 65.7386 190.325 65.9489C190.887 66.1591 191.424 66.446 191.935 66.8097C192.452 67.1676 192.879 67.6278 193.214 68.1903C193.549 68.7528 193.717 69.4432 193.717 70.2614C193.717 71.2045 193.469 72.0568 192.975 72.8182C192.487 73.5795 191.771 74.1847 190.827 74.6335C189.89 75.0824 188.751 75.3068 187.41 75.3068C186.16 75.3068 185.077 75.1051 184.163 74.7017C183.254 74.2983 182.538 73.7358 182.015 73.0142C181.498 72.2926 181.205 71.4545 181.137 70.5H183.319C183.376 71.1591 183.597 71.7045 183.984 72.1364C184.376 72.5625 184.87 72.8807 185.467 73.0909C186.069 73.2955 186.717 73.3977 187.41 73.3977C188.217 73.3977 188.941 73.267 189.583 73.0057C190.225 72.7386 190.734 72.3693 191.109 71.8977C191.484 71.4205 191.671 70.8636 191.671 70.2273C191.671 69.6477 191.509 69.1761 191.185 68.8125C190.862 68.4489 190.435 68.1534 189.907 67.9261C189.379 67.6989 188.808 67.5 188.194 67.3295L186.046 66.7159C184.683 66.3239 183.603 65.7642 182.808 65.0369C182.012 64.3097 181.614 63.358 181.614 62.1818C181.614 61.2045 181.879 60.3523 182.407 59.625C182.941 58.892 183.657 58.3239 184.555 57.9205C185.458 57.5114 186.467 57.3068 187.58 57.3068C188.705 57.3068 189.705 57.5085 190.58 57.9119C191.455 58.3097 192.148 58.8551 192.66 59.5483C193.177 60.2415 193.45 61.0284 193.478 61.9091H191.433ZM213.487 61.9091C213.385 61.0455 212.97 60.375 212.243 59.8977C211.516 59.4205 210.624 59.1818 209.567 59.1818C208.794 59.1818 208.118 59.3068 207.538 59.5568C206.964 59.8068 206.516 60.1506 206.192 60.5881C205.874 61.0256 205.714 61.5227 205.714 62.0795C205.714 62.5455 205.825 62.946 206.047 63.2812C206.274 63.6108 206.564 63.8864 206.916 64.108C207.268 64.3239 207.638 64.5028 208.024 64.6449C208.411 64.7812 208.766 64.892 209.089 64.9773L210.862 65.4545C211.317 65.5739 211.822 65.7386 212.379 65.9489C212.942 66.1591 213.479 66.446 213.99 66.8097C214.507 67.1676 214.933 67.6278 215.268 68.1903C215.604 68.7528 215.771 69.4432 215.771 70.2614C215.771 71.2045 215.524 72.0568 215.03 72.8182C214.541 73.5795 213.825 74.1847 212.882 74.6335C211.945 75.0824 210.805 75.3068 209.464 75.3068C208.214 75.3068 207.132 75.1051 206.217 74.7017C205.308 74.2983 204.592 73.7358 204.07 73.0142C203.553 72.2926 203.26 71.4545 203.192 70.5H205.374C205.43 71.1591 205.652 71.7045 206.038 72.1364C206.43 72.5625 206.925 72.8807 207.521 73.0909C208.124 73.2955 208.771 73.3977 209.464 73.3977C210.271 73.3977 210.996 73.267 211.638 73.0057C212.28 72.7386 212.788 72.3693 213.163 71.8977C213.538 71.4205 213.726 70.8636 213.726 70.2273C213.726 69.6477 213.564 69.1761 213.24 68.8125C212.916 68.4489 212.49 68.1534 211.962 67.9261C211.433 67.6989 210.862 67.5 210.249 67.3295L208.101 66.7159C206.737 66.3239 205.658 65.7642 204.862 65.0369C204.067 64.3097 203.669 63.358 203.669 62.1818C203.669 61.2045 203.933 60.3523 204.462 59.625C204.996 58.892 205.712 58.3239 206.609 57.9205C207.513 57.5114 208.521 57.3068 209.635 57.3068C210.76 57.3068 211.76 57.5085 212.635 57.9119C213.51 58.3097 214.203 58.8551 214.714 59.5483C215.232 60.2415 215.504 61.0284 215.533 61.9091H213.487ZM218.292 59.4205V57.5455H231.383V59.4205H225.894V75H223.781V59.4205H218.292ZM248.646 66.2727C248.646 68.1136 248.313 69.7045 247.648 71.0455C246.984 72.3864 246.072 73.4205 244.913 74.1477C243.754 74.875 242.43 75.2386 240.941 75.2386C239.452 75.2386 238.129 74.875 236.969 74.1477C235.81 73.4205 234.898 72.3864 234.234 71.0455C233.569 69.7045 233.237 68.1136 233.237 66.2727C233.237 64.4318 233.569 62.8409 234.234 61.5C234.898 60.1591 235.81 59.125 236.969 58.3977C238.129 57.6705 239.452 57.3068 240.941 57.3068C242.43 57.3068 243.754 57.6705 244.913 58.3977C246.072 59.125 246.984 60.1591 247.648 61.5C248.313 62.8409 248.646 64.4318 248.646 66.2727ZM246.6 66.2727C246.6 64.7614 246.347 63.4858 245.842 62.446C245.342 61.4062 244.663 60.6193 243.805 60.0852C242.952 59.5511 241.998 59.2841 240.941 59.2841C239.884 59.2841 238.927 59.5511 238.069 60.0852C237.217 60.6193 236.538 61.4062 236.032 62.446C235.532 63.4858 235.282 64.7614 235.282 66.2727C235.282 67.7841 235.532 69.0597 236.032 70.0994C236.538 71.1392 237.217 71.9261 238.069 72.4602C238.927 72.9943 239.884 73.2614 240.941 73.2614C241.998 73.2614 242.952 72.9943 243.805 72.4602C244.663 71.9261 245.342 71.1392 245.842 70.0994C246.347 69.0597 246.6 67.7841 246.6 66.2727ZM252.2 75V57.5455H258.097C259.461 57.5455 260.58 57.7784 261.455 58.2443C262.33 58.7045 262.978 59.3381 263.398 60.1449C263.819 60.9517 264.029 61.8693 264.029 62.8977C264.029 63.9261 263.819 64.8381 263.398 65.6335C262.978 66.429 262.333 67.054 261.464 67.5085C260.594 67.9574 259.484 68.1818 258.131 68.1818H253.359V66.2727H258.063C258.995 66.2727 259.745 66.1364 260.313 65.8636C260.887 65.5909 261.302 65.2045 261.558 64.7045C261.819 64.1989 261.95 63.5966 261.95 62.8977C261.95 62.1989 261.819 61.5881 261.558 61.0653C261.296 60.5426 260.879 60.1392 260.305 59.8551C259.731 59.5653 258.972 59.4205 258.029 59.4205H254.313V75H252.2ZM260.415 67.1591L264.711 75H262.256L258.029 67.1591H260.415ZM268.267 75H266.051L272.46 57.5455H274.642L281.051 75H278.835L273.619 60.3068H273.483L268.267 75ZM269.085 68.1818H278.017V70.0568H269.085V68.1818ZM294.881 63C294.694 62.4261 294.447 61.9119 294.14 61.4574C293.839 60.9972 293.478 60.6051 293.058 60.2812C292.643 59.9574 292.171 59.7102 291.643 59.5398C291.114 59.3693 290.535 59.2841 289.904 59.2841C288.87 59.2841 287.93 59.5511 287.083 60.0852C286.237 60.6193 285.563 61.4062 285.063 62.446C284.563 63.4858 284.313 64.7614 284.313 66.2727C284.313 67.7841 284.566 69.0597 285.072 70.0994C285.577 71.1392 286.262 71.9261 287.126 72.4602C287.989 72.9943 288.961 73.2614 290.04 73.2614C291.04 73.2614 291.921 73.0483 292.683 72.6222C293.45 72.1903 294.046 71.5824 294.472 70.7983C294.904 70.0085 295.12 69.0795 295.12 68.0114L295.768 68.1477H290.518V66.2727H297.165V68.1477C297.165 69.5852 296.859 70.8352 296.245 71.8977C295.637 72.9602 294.796 73.7841 293.722 74.3693C292.654 74.9489 291.427 75.2386 290.04 75.2386C288.495 75.2386 287.137 74.875 285.967 74.1477C284.802 73.4205 283.893 72.3864 283.239 71.0455C282.592 69.7045 282.268 68.1136 282.268 66.2727C282.268 64.892 282.452 63.6506 282.822 62.5483C283.197 61.4403 283.725 60.4972 284.407 59.7188C285.089 58.9403 285.896 58.3438 286.827 57.929C287.759 57.5142 288.785 57.3068 289.904 57.3068C290.825 57.3068 291.683 57.446 292.478 57.7244C293.279 57.9972 293.992 58.3864 294.617 58.892C295.248 59.392 295.773 59.9915 296.194 60.6903C296.614 61.3835 296.904 62.1534 297.063 63H294.881ZM300.786 75V57.5455H311.32V59.4205H302.899V65.3182H310.774V67.1932H302.899V73.125H311.456V75H300.786ZM172.659 88.4205V86.5455H185.75V88.4205H180.261V104H178.148V88.4205H172.659ZM187.689 104H185.473L191.882 86.5455H194.064L200.473 104H198.257L193.041 89.3068H192.905L187.689 104ZM188.507 97.1818H197.439V99.0568H188.507V97.1818ZM217.033 86.5455V104H214.987L205.476 90.2955H205.305V104H203.192V86.5455H205.237L214.783 100.284H214.953V86.5455H217.033ZM221.262 104V86.5455H223.376V95.2045H223.58L231.421 86.5455H234.183L226.853 94.4205L234.183 104H231.626L225.558 95.8864L223.376 98.3409V104H221.262Z" fill="#828282"/>
<path d="M54.3898 360.014L36.9356 360.114L36.9017 354.217C36.8938 352.853 37.1204 351.732 37.5812 350.855C38.0364 349.977 38.6662 349.326 39.4706 348.901C40.275 348.476 41.1914 348.26 42.2198 348.254C43.2482 348.248 44.1613 348.453 44.9592 348.869C45.757 349.285 46.3857 349.926 46.8452 350.793C47.2991 351.66 47.5299 352.769 47.5377 354.121L47.5651 358.894L45.656 358.905L45.629 354.201C45.6237 353.269 45.483 352.52 45.207 351.953C44.931 351.381 44.5422 350.968 44.0408 350.715C43.5336 350.457 42.9306 350.33 42.2317 350.334C41.5329 350.338 40.9229 350.472 40.4016 350.736C39.8804 351.001 39.4794 351.421 39.1986 351.996C38.9122 352.572 38.7716 353.331 38.777 354.274L38.7984 357.99L54.3777 357.9L54.3898 360.014ZM46.5018 351.843L54.3179 347.503L54.332 349.957L46.5156 354.23L46.5018 351.843ZM45.4899 329.986C47.3308 329.975 48.9236 330.298 50.2683 330.956C51.613 331.613 52.6523 332.519 53.3862 333.673C54.1201 334.828 54.4914 336.15 54.4999 337.639C54.5085 339.127 54.1524 340.453 53.4318 341.617C52.7112 342.78 51.6824 343.698 50.3453 344.37C49.0083 345.043 47.4193 345.384 45.5784 345.395C43.7375 345.405 42.1447 345.082 40.8 344.425C39.4553 343.768 38.416 342.862 37.6821 341.707C36.9482 340.552 36.5769 339.23 36.5684 337.742C36.5598 336.253 36.9159 334.927 37.6365 333.764C38.3571 332.601 39.3859 331.683 40.723 331.01C42.06 330.338 43.649 329.996 45.4899 329.986ZM45.5016 332.031C43.9903 332.04 42.7162 332.3 41.6794 332.812C40.6425 333.318 39.8595 334.001 39.3303 334.862C38.8011 335.718 38.5396 336.674 38.5456 337.73C38.5517 338.787 38.8242 339.743 39.3633 340.598C39.9022 341.447 40.6931 342.122 41.7357 342.621C42.7783 343.115 44.0553 343.358 45.5667 343.349C47.078 343.341 48.3521 343.083 49.389 342.577C50.4259 342.066 51.2089 341.382 51.7381 340.527C52.2672 339.666 52.5288 338.707 52.5227 337.65C52.5166 336.593 52.2441 335.64 51.7051 334.791C51.1661 333.936 50.3753 333.262 49.3326 332.768C48.29 332.268 47.013 332.023 45.5016 332.031ZM45.3849 311.705C47.2258 311.694 48.8185 312.018 50.1633 312.675C51.508 313.332 52.5473 314.238 53.2812 315.393C54.0151 316.547 54.3863 317.869 54.3949 319.358C54.4035 320.846 54.0474 322.172 53.3268 323.336C52.6062 324.499 51.5774 325.417 50.2403 326.089C48.9033 326.762 47.3143 327.103 45.4734 327.114C43.6325 327.124 42.0397 326.801 40.695 326.144C39.3503 325.487 38.311 324.581 37.5771 323.426C36.8432 322.271 36.4719 320.949 36.4634 319.461C36.4548 317.972 36.8108 316.646 37.5315 315.483C38.2521 314.32 39.2809 313.402 40.618 312.729C41.955 312.057 43.544 311.715 45.3849 311.705ZM45.3966 313.75C43.8853 313.759 42.6112 314.019 41.5743 314.531C40.5375 315.037 39.7544 315.72 39.2253 316.581C38.6961 317.437 38.4345 318.393 38.4406 319.449C38.4467 320.506 38.7192 321.462 39.2582 322.317C39.7972 323.166 40.588 323.841 41.6307 324.34C42.6733 324.834 43.9503 325.077 45.4616 325.068C46.973 325.06 48.2471 324.802 49.284 324.296C50.3208 323.785 51.1039 323.101 51.633 322.246C52.1622 321.385 52.4237 320.426 52.4177 319.369C52.4116 318.312 52.1391 317.359 51.6001 316.51C51.0611 315.655 50.2703 314.981 49.2276 314.487C48.185 313.987 46.908 313.742 45.3966 313.75ZM54.0916 308.101L36.6373 308.201L36.5772 297.735L38.4522 297.725L38.5002 306.077L44.3978 306.043L44.3543 298.475L46.2293 298.464L46.2728 306.032L54.0794 305.987L54.0916 308.101ZM38.3981 288.309L36.5231 288.32L36.4479 275.229L38.3229 275.219L38.3544 280.707L53.9337 280.618L53.9458 282.731L38.3666 282.821L38.3981 288.309ZM45.0759 257.917C46.9168 257.906 48.5095 258.229 49.8542 258.886C51.199 259.543 52.2383 260.449 52.9722 261.604C53.7061 262.759 54.0773 264.081 54.0859 265.57C54.0944 267.058 53.7384 268.384 53.0178 269.547C52.2972 270.711 51.2684 271.629 49.9313 272.301C48.5942 272.973 47.0053 273.315 45.1644 273.326C43.3235 273.336 41.7307 273.013 40.386 272.356C39.0413 271.699 38.002 270.793 37.2681 269.638C36.5342 268.483 36.1629 267.161 36.1544 265.673C36.1458 264.184 36.5018 262.858 37.2224 261.695C37.943 260.532 38.9719 259.614 40.309 258.941C41.646 258.269 43.235 257.927 45.0759 257.917ZM45.0876 259.962C43.5763 259.971 42.3022 260.231 41.2653 260.743C40.2285 261.249 39.4454 261.932 38.9163 262.793C38.3871 263.648 38.1255 264.604 38.1316 265.661C38.1377 266.718 38.4102 267.674 38.9492 268.529C39.4882 269.378 40.279 270.052 41.3217 270.552C42.3643 271.046 43.6413 271.289 45.1526 271.28C46.664 271.271 47.9381 271.014 48.975 270.508C50.0118 269.997 50.7948 269.313 51.324 268.458C51.8532 267.597 52.1147 266.638 52.1087 265.581C52.1026 264.524 51.8301 263.571 51.2911 262.722C50.7521 261.867 49.9613 261.193 48.9186 260.699C47.876 260.199 46.599 259.953 45.0876 259.962ZM53.7826 254.313L36.3283 254.413L36.2944 248.515C36.2866 247.146 36.5273 246.025 37.0166 245.153C37.5002 244.275 38.1584 243.624 38.9912 243.199C39.824 242.773 40.7546 242.558 41.783 242.552C42.8114 242.546 43.7472 242.751 44.5906 243.166C45.4338 243.576 46.108 244.215 46.613 245.081C47.1123 245.947 47.3658 247.06 47.3736 248.418L47.3979 252.645L45.5229 252.656L45.499 248.497C45.4937 247.559 45.3274 246.807 45.0003 246.241C44.6732 245.674 44.2333 245.265 43.6807 245.013C43.1224 244.754 42.4938 244.627 41.795 244.631C41.0961 244.635 40.4719 244.77 39.9222 245.034C39.3726 245.293 38.9431 245.71 38.6339 246.286C38.3191 246.862 38.1644 247.624 38.1698 248.573L38.1912 252.289L53.7704 252.199L53.7826 254.313ZM43.9502 225.157L45.8251 225.146L45.869 232.782L43.994 232.793L43.9502 225.157ZM53.5541 214.54L36.0998 214.64L36.0393 204.106L37.9143 204.095L37.9627 212.516L43.8603 212.482L43.8151 204.607L45.69 204.596L45.7353 212.471L51.667 212.437L51.6178 203.88L53.4928 203.87L53.5541 214.54ZM53.4676 199.48L53.4803 201.696L35.9892 195.388L35.9767 193.206L53.3941 186.697L53.4069 188.912L38.7439 194.213L38.7447 194.349L53.4676 199.48ZM46.6448 198.701L46.5935 189.77L48.4685 189.759L48.5198 198.691L46.6448 198.701ZM40.233 174.508C39.37 174.615 38.7019 175.034 38.2288 175.764C37.7557 176.494 37.5222 177.387 37.5283 178.444C37.5327 179.217 37.6616 179.892 37.9149 180.47C38.1682 181.042 38.5145 181.489 38.9539 181.811C39.3932 182.126 39.8913 182.283 40.4481 182.279C40.914 182.277 41.3139 182.164 41.6479 181.94C41.9761 181.711 42.25 181.42 42.4696 181.066C42.6835 180.713 42.8603 180.342 43.0001 179.955C43.1343 179.568 43.243 179.212 43.3264 178.888L43.7935 177.112C43.9102 176.657 44.072 176.151 44.2791 175.593C44.4861 175.029 44.7699 174.49 45.1306 173.977C45.4856 173.458 45.9433 173.029 46.5039 172.69C47.0645 172.352 47.7538 172.18 48.572 172.176C49.5152 172.17 50.3689 172.413 51.133 172.903C51.8972 173.387 52.5064 174.099 52.9607 175.04C53.4149 175.975 53.6459 177.113 53.6536 178.453C53.6608 179.703 53.4653 180.787 53.0672 181.704C52.669 182.615 52.1106 183.335 51.392 183.861C50.6734 184.383 49.837 184.68 48.8829 184.754L48.8704 182.572C49.5291 182.511 50.0733 182.287 50.5029 181.898C50.9268 181.503 51.2421 181.007 51.4489 180.409C51.65 179.806 51.7485 179.158 51.7445 178.464C51.7399 177.658 51.6051 176.934 51.34 176.293C51.0693 175.653 50.6971 175.147 50.2233 174.774C49.7439 174.402 49.186 174.218 48.5497 174.221C47.9701 174.225 47.4995 174.389 47.1377 174.715C46.7759 175.041 46.4829 175.469 46.2587 175.999C46.0345 176.528 45.8389 177.101 45.672 177.715L45.0707 179.866C44.6865 181.232 44.133 182.315 43.4103 183.115C42.6876 183.914 41.7382 184.317 40.5621 184.324C39.5849 184.33 38.7311 184.071 38.0008 183.546C37.2648 183.016 36.6925 182.304 36.2839 181.408C35.8697 180.507 35.6593 179.5 35.6529 178.386C35.6465 177.261 35.8424 176.26 36.2408 175.383C36.6335 174.506 37.175 173.809 37.8652 173.294C38.5554 172.773 39.3407 172.496 40.2212 172.462L40.233 174.508ZM37.7168 169.717L35.8418 169.728L35.7666 156.638L37.6416 156.627L37.6731 162.115L53.2524 162.026L53.2646 164.139L37.6853 164.229L37.7168 169.717Z" fill="#828282"/>
<path d="M127.83 485.545L133.011 500.239H133.216L138.398 485.545H140.614L134.205 503H132.023L125.614 485.545H127.83ZM157.239 494.273C157.239 496.114 156.907 497.705 156.242 499.045C155.577 500.386 154.665 501.42 153.506 502.148C152.347 502.875 151.023 503.239 149.535 503.239C148.046 503.239 146.722 502.875 145.563 502.148C144.404 501.42 143.492 500.386 142.827 499.045C142.163 497.705 141.83 496.114 141.83 494.273C141.83 492.432 142.163 490.841 142.827 489.5C143.492 488.159 144.404 487.125 145.563 486.398C146.722 485.67 148.046 485.307 149.535 485.307C151.023 485.307 152.347 485.67 153.506 486.398C154.665 487.125 155.577 488.159 156.242 489.5C156.907 490.841 157.239 492.432 157.239 494.273ZM155.194 494.273C155.194 492.761 154.941 491.486 154.435 490.446C153.935 489.406 153.256 488.619 152.398 488.085C151.546 487.551 150.592 487.284 149.535 487.284C148.478 487.284 147.521 487.551 146.663 488.085C145.81 488.619 145.131 489.406 144.626 490.446C144.126 491.486 143.876 492.761 143.876 494.273C143.876 495.784 144.126 497.06 144.626 498.099C145.131 499.139 145.81 499.926 146.663 500.46C147.521 500.994 148.478 501.261 149.535 501.261C150.592 501.261 151.546 500.994 152.398 500.46C153.256 499.926 153.935 499.139 154.435 498.099C154.941 497.06 155.194 495.784 155.194 494.273ZM160.793 503V485.545H162.907V501.125H171.021V503H160.793ZM175.487 500.767C175.066 500.767 174.705 500.616 174.404 500.315C174.103 500.014 173.952 499.653 173.952 499.233C173.952 498.812 174.103 498.452 174.404 498.151C174.705 497.849 175.066 497.699 175.487 497.699C175.907 497.699 176.268 497.849 176.569 498.151C176.87 498.452 177.021 498.812 177.021 499.233C177.021 499.511 176.95 499.767 176.808 500C176.671 500.233 176.487 500.42 176.254 500.562C176.026 500.699 175.771 500.767 175.487 500.767ZM175.487 491.938C175.066 491.938 174.705 491.787 174.404 491.486C174.103 491.185 173.952 490.824 173.952 490.403C173.952 489.983 174.103 489.622 174.404 489.321C174.705 489.02 175.066 488.869 175.487 488.869C175.907 488.869 176.268 489.02 176.569 489.321C176.87 489.622 177.021 489.983 177.021 490.403C177.021 490.682 176.95 490.938 176.808 491.17C176.671 491.403 176.487 491.591 176.254 491.733C176.026 491.869 175.771 491.938 175.487 491.938ZM193.482 485.545V503H191.369V487.761H191.266L187.005 490.591V488.443L191.369 485.545H193.482ZM204.195 503.239C202.911 503.239 201.817 502.889 200.914 502.19C200.011 501.486 199.32 500.466 198.843 499.131C198.366 497.79 198.127 496.17 198.127 494.273C198.127 492.386 198.366 490.776 198.843 489.44C199.326 488.099 200.019 487.077 200.923 486.372C201.832 485.662 202.923 485.307 204.195 485.307C205.468 485.307 206.556 485.662 207.46 486.372C208.369 487.077 209.062 488.099 209.539 489.44C210.022 490.776 210.263 492.386 210.263 494.273C210.263 496.17 210.025 497.79 209.548 499.131C209.07 500.466 208.38 501.486 207.477 502.19C206.573 502.889 205.479 503.239 204.195 503.239ZM204.195 501.364C205.468 501.364 206.457 500.75 207.161 499.523C207.866 498.295 208.218 496.545 208.218 494.273C208.218 492.761 208.056 491.474 207.732 490.412C207.414 489.349 206.954 488.54 206.352 487.983C205.755 487.426 205.036 487.148 204.195 487.148C202.934 487.148 201.948 487.77 201.238 489.014C200.528 490.253 200.173 492.006 200.173 494.273C200.173 495.784 200.332 497.068 200.65 498.125C200.968 499.182 201.425 499.986 202.022 500.537C202.624 501.088 203.349 501.364 204.195 501.364ZM219.195 503.239C217.911 503.239 216.817 502.889 215.914 502.19C215.011 501.486 214.32 500.466 213.843 499.131C213.366 497.79 213.127 496.17 213.127 494.273C213.127 492.386 213.366 490.776 213.843 489.44C214.326 488.099 215.019 487.077 215.923 486.372C216.832 485.662 217.923 485.307 219.195 485.307C220.468 485.307 221.556 485.662 222.46 486.372C223.369 487.077 224.062 488.099 224.539 489.44C225.022 490.776 225.263 492.386 225.263 494.273C225.263 496.17 225.025 497.79 224.548 499.131C224.07 500.466 223.38 501.486 222.477 502.19C221.573 502.889 220.479 503.239 219.195 503.239ZM219.195 501.364C220.468 501.364 221.457 500.75 222.161 499.523C222.866 498.295 223.218 496.545 223.218 494.273C223.218 492.761 223.056 491.474 222.732 490.412C222.414 489.349 221.954 488.54 221.352 487.983C220.755 487.426 220.036 487.148 219.195 487.148C217.934 487.148 216.948 487.77 216.238 489.014C215.528 490.253 215.173 492.006 215.173 494.273C215.173 495.784 215.332 497.068 215.65 498.125C215.968 499.182 216.425 499.986 217.022 500.537C217.624 501.088 218.349 501.364 219.195 501.364ZM235.559 503V485.545H237.673V494.205H237.877L245.718 485.545H248.479L241.15 493.42L248.479 503H245.923L239.854 494.886L237.673 497.341V503H235.559ZM262.327 491C262.139 490.426 261.892 489.912 261.585 489.457C261.284 488.997 260.923 488.605 260.503 488.281C260.088 487.957 259.616 487.71 259.088 487.54C258.56 487.369 257.98 487.284 257.349 487.284C256.315 487.284 255.375 487.551 254.528 488.085C253.682 488.619 253.009 489.406 252.509 490.446C252.009 491.486 251.759 492.761 251.759 494.273C251.759 495.784 252.011 497.06 252.517 498.099C253.023 499.139 253.707 499.926 254.571 500.46C255.435 500.994 256.406 501.261 257.486 501.261C258.486 501.261 259.366 501.048 260.128 500.622C260.895 500.19 261.491 499.582 261.918 498.798C262.349 498.009 262.565 497.08 262.565 496.011L263.213 496.148H257.963V494.273H264.611V496.148C264.611 497.585 264.304 498.835 263.69 499.898C263.082 500.96 262.241 501.784 261.168 502.369C260.099 502.949 258.872 503.239 257.486 503.239C255.94 503.239 254.582 502.875 253.412 502.148C252.247 501.42 251.338 500.386 250.685 499.045C250.037 497.705 249.713 496.114 249.713 494.273C249.713 492.892 249.898 491.651 250.267 490.548C250.642 489.44 251.17 488.497 251.852 487.719C252.534 486.94 253.341 486.344 254.273 485.929C255.205 485.514 256.23 485.307 257.349 485.307C258.27 485.307 259.128 485.446 259.923 485.724C260.724 485.997 261.438 486.386 262.062 486.892C262.693 487.392 263.219 487.991 263.639 488.69C264.06 489.384 264.349 490.153 264.509 491H262.327ZM268.408 503H266.192L272.601 485.545H274.783L281.192 503H278.976L273.76 488.307H273.624L268.408 503ZM269.226 496.182H278.158V498.057H269.226V496.182ZM283.911 503V485.545H286.024V501.125H294.138V503H283.911Z" fill="#828282"/>
<path d="M219.114 464V446.545H221.227V455.205H221.432L229.273 446.545H232.034L224.705 454.42L232.034 464H229.477L223.409 455.886L221.227 458.341V464H219.114ZM245.881 452C245.694 451.426 245.447 450.912 245.14 450.457C244.839 449.997 244.478 449.605 244.058 449.281C243.643 448.957 243.171 448.71 242.643 448.54C242.114 448.369 241.535 448.284 240.904 448.284C239.87 448.284 238.93 448.551 238.083 449.085C237.237 449.619 236.563 450.406 236.063 451.446C235.563 452.486 235.313 453.761 235.313 455.273C235.313 456.784 235.566 458.06 236.072 459.099C236.577 460.139 237.262 460.926 238.126 461.46C238.989 461.994 239.961 462.261 241.04 462.261C242.04 462.261 242.921 462.048 243.683 461.622C244.45 461.19 245.046 460.582 245.472 459.798C245.904 459.009 246.12 458.08 246.12 457.011L246.768 457.148H241.518V455.273H248.165V457.148C248.165 458.585 247.859 459.835 247.245 460.898C246.637 461.96 245.796 462.784 244.722 463.369C243.654 463.949 242.427 464.239 241.04 464.239C239.495 464.239 238.137 463.875 236.967 463.148C235.802 462.42 234.893 461.386 234.239 460.045C233.592 458.705 233.268 457.114 233.268 455.273C233.268 453.892 233.452 452.651 233.822 451.548C234.197 450.44 234.725 449.497 235.407 448.719C236.089 447.94 236.896 447.344 237.827 446.929C238.759 446.514 239.785 446.307 240.904 446.307C241.825 446.307 242.683 446.446 243.478 446.724C244.279 446.997 244.992 447.386 245.617 447.892C246.248 448.392 246.773 448.991 247.194 449.69C247.614 450.384 247.904 451.153 248.063 452H245.881ZM251.962 464H249.746L256.156 446.545H258.337L264.746 464H262.531L257.315 449.307H257.178L251.962 464ZM252.781 457.182H261.712V459.057H252.781V457.182ZM267.465 464V446.545H269.579V462.125H277.692V464H267.465Z" fill="#828282"/>
<path d="M230.114 149V131.545H232.227V147.125H240.341V149H230.114ZM242.689 131.545L247.871 146.239H248.075L253.257 131.545H255.473L249.064 149H246.882L240.473 131.545H242.689ZM258.192 149V131.545H260.305V147.125H268.419V149H258.192Z" fill="#828282"/>
<path d="M269 337V364H232V337H269Z" fill="#979797" stroke="black"/>
<path d="M269 195V337H232V195H269Z" fill="#B3B3B3" stroke="black"/>
<path d="M269 158V195H232V158H269Z" fill="#8C8C8C" stroke="black"/>
<path d="M232 364H269V394H232V364Z" fill="#828282" stroke="black"/>
<path d="M268.5 195.5V245.5H232.5V195.5H268.5Z" fill="#A0B6CD" stroke="#A0B6CD"/>
<path d="M280.5 227V213L269.561 219.183L280.5 227Z" fill="#D9D9D9"/>
<path d="M280.5 227V213L269.561 219.183L280.5 227Z" fill="white"/>
<path d="M269 219.5L269.561 219.183M269.561 219.183L280.5 213V227L269.561 219.183Z" stroke="white"/>
<path d="M152 237C157.521 239.612 161.638 240.657 168 240C177 239.072 182.5 229.501 191 219.5C199.5 209.5 211.5 209 211.5 209H235.5" stroke="#0000EE" stroke-width="6"/>
<rect x="211.5" y="200" width="18" height="18" fill="#0000EE"/>
<rect x="206.5" y="205" width="5" height="10" fill="#0000EE"/>
<defs>
<filter id="filter0_i_2064_60" x="0" y="0" width="387" height="518" filterUnits="userSpaceOnUse" color-interpolation-filters="sRGB">
<feFlood flood-opacity="0" result="BackgroundImageFix"/>
<feBlend mode="normal" in="SourceGraphic" in2="BackgroundImageFix" result="shape"/>
<feColorMatrix in="SourceAlpha" type="matrix" values="0 0 0 0 0 0 0 0 0 0 0 0 0 0 0 0 0 0 127 0" result="hardAlpha"/>
<feMorphology radius="7" operator="erode" in="SourceAlpha" result="effect1_innerShadow_2064_60"/>
<feOffset/>
<feGaussianBlur stdDeviation="8.15"/>
<feComposite in2="hardAlpha" operator="arithmetic" k2="-1" k3="1"/>
<feColorMatrix type="matrix" values="0 0 0 0 0 0 0 0 0 0 0 0 0 0 0 0 0 0 0.54 0"/>
<feBlend mode="normal" in2="shape" result="effect1_innerShadow_2064_60"/>
</filter>
</defs>
</svg>
