<svg width="387" height="518" viewBox="0 0 387 518" fill="none" xmlns="http://www.w3.org/2000/svg">
<g filter="url(#filter0_i_2064_59)">
<path d="M0 82C0 36.7127 36.7127 0 82 0H305C350.287 0 387 36.7127 387 82V518H0V82Z" fill="#E7E7E7"/>
</g>
<path d="M82 1.5H305C349.459 1.5 385.5 37.5411 385.5 82V516.5H1.5V82C1.5 37.5411 37.5411 1.5 82 1.5Z" stroke="#525252" stroke-width="3"/>
<path d="M79.1136 75V57.5455H85.0114C86.375 57.5455 87.4943 57.7784 88.3693 58.2443C89.2443 58.7045 89.892 59.3381 90.3125 60.1449C90.733 60.9517 90.9432 61.8693 90.9432 62.8977C90.9432 63.9261 90.733 64.8381 90.3125 65.6335C89.892 66.429 89.2472 67.054 88.3778 67.5085C87.5085 67.9574 86.3977 68.1818 85.0455 68.1818H80.2727V66.2727H84.9773C85.9091 66.2727 86.6591 66.1364 87.2273 65.8636C87.8011 65.5909 88.2159 65.2045 88.4716 64.7045C88.733 64.1989 88.8636 63.5966 88.8636 62.8977C88.8636 62.1989 88.733 61.5881 88.4716 61.0653C88.2102 60.5426 87.7926 60.1392 87.2188 59.8551C86.6449 59.5653 85.8864 59.4205 84.9432 59.4205H81.2273V75H79.1136ZM87.3295 67.1591L91.625 75H89.1705L84.9432 67.1591H87.3295ZM94.4652 75V57.5455H104.999V59.4205H96.5788V65.3182H104.454V67.1932H96.5788V73.125H105.136V75H94.4652ZM118.354 61.9091C118.252 61.0455 117.837 60.375 117.11 59.8977C116.383 59.4205 115.491 59.1818 114.434 59.1818C113.661 59.1818 112.985 59.3068 112.406 59.5568C111.832 59.8068 111.383 60.1506 111.059 60.5881C110.741 61.0256 110.582 61.5227 110.582 62.0795C110.582 62.5455 110.692 62.946 110.914 63.2812C111.141 63.6108 111.431 63.8864 111.783 64.108C112.136 64.3239 112.505 64.5028 112.891 64.6449C113.278 64.7812 113.633 64.892 113.957 64.9773L115.729 65.4545C116.184 65.5739 116.69 65.7386 117.246 65.9489C117.809 66.1591 118.346 66.446 118.857 66.8097C119.374 67.1676 119.8 67.6278 120.136 68.1903C120.471 68.7528 120.638 69.4432 120.638 70.2614C120.638 71.2045 120.391 72.0568 119.897 72.8182C119.408 73.5795 118.692 74.1847 117.749 74.6335C116.812 75.0824 115.673 75.3068 114.332 75.3068C113.082 75.3068 111.999 75.1051 111.085 74.7017C110.175 74.2983 109.46 73.7358 108.937 73.0142C108.42 72.2926 108.127 71.4545 108.059 70.5H110.241C110.298 71.1591 110.519 71.7045 110.906 72.1364C111.298 72.5625 111.792 72.8807 112.388 73.0909C112.991 73.2955 113.638 73.3977 114.332 73.3977C115.138 73.3977 115.863 73.267 116.505 73.0057C117.147 72.7386 117.656 72.3693 118.031 71.8977C118.406 71.4205 118.593 70.8636 118.593 70.2273C118.593 69.6477 118.431 69.1761 118.107 68.8125C117.783 68.4489 117.357 68.1534 116.829 67.9261C116.3 67.6989 115.729 67.5 115.116 67.3295L112.968 66.7159C111.604 66.3239 110.525 65.7642 109.729 65.0369C108.934 64.3097 108.536 63.358 108.536 62.1818C108.536 61.2045 108.8 60.3523 109.329 59.625C109.863 58.892 110.579 58.3239 111.477 57.9205C112.38 57.5114 113.388 57.3068 114.502 57.3068C115.627 57.3068 116.627 57.5085 117.502 57.9119C118.377 58.3097 119.07 58.8551 119.582 59.5483C120.099 60.2415 120.371 61.0284 120.4 61.9091H118.354ZM126.227 57.5455V75H124.114V57.5455H126.227ZM135.852 75H130.465V57.5455H136.09C137.783 57.5455 139.232 57.8949 140.437 58.5938C141.641 59.2869 142.565 60.2841 143.207 61.5852C143.849 62.8807 144.17 64.4318 144.17 66.2386C144.17 68.0568 143.846 69.6222 143.198 70.9347C142.55 72.2415 141.607 73.2472 140.369 73.9517C139.13 74.6506 137.624 75 135.852 75ZM132.579 73.125H135.715C137.158 73.125 138.354 72.8466 139.303 72.2898C140.252 71.733 140.96 70.9403 141.425 69.9119C141.891 68.8835 142.124 67.6591 142.124 66.2386C142.124 64.8295 141.894 63.6165 141.434 62.5994C140.974 61.5767 140.286 60.7926 139.371 60.2472C138.457 59.696 137.317 59.4205 135.954 59.4205H132.579V73.125ZM147.715 75V57.5455H158.249V59.4205H149.829V65.3182H157.704V67.1932H149.829V73.125H158.386V75H147.715ZM175.9 57.5455V75H173.854L164.343 61.2955H164.173V75H162.059V57.5455H164.104L173.65 71.2841H173.82V57.5455H175.9ZM179.175 59.4205V57.5455H192.266V59.4205H186.777V75H184.663V59.4205H179.175ZM211.823 61.9091C211.721 61.0455 211.306 60.375 210.579 59.8977C209.852 59.4205 208.96 59.1818 207.903 59.1818C207.13 59.1818 206.454 59.3068 205.874 59.5568C205.3 59.8068 204.852 60.1506 204.528 60.5881C204.21 61.0256 204.05 61.5227 204.05 62.0795C204.05 62.5455 204.161 62.946 204.383 63.2812C204.61 63.6108 204.9 63.8864 205.252 64.108C205.604 64.3239 205.974 64.5028 206.36 64.6449C206.746 64.7812 207.102 64.892 207.425 64.9773L209.198 65.4545C209.653 65.5739 210.158 65.7386 210.715 65.9489C211.278 66.1591 211.815 66.446 212.326 66.8097C212.843 67.1676 213.269 67.6278 213.604 68.1903C213.94 68.7528 214.107 69.4432 214.107 70.2614C214.107 71.2045 213.86 72.0568 213.366 72.8182C212.877 73.5795 212.161 74.1847 211.218 74.6335C210.281 75.0824 209.141 75.3068 207.8 75.3068C206.55 75.3068 205.468 75.1051 204.553 74.7017C203.644 74.2983 202.928 73.7358 202.406 73.0142C201.888 72.2926 201.596 71.4545 201.528 70.5H203.71C203.766 71.1591 203.988 71.7045 204.374 72.1364C204.766 72.5625 205.261 72.8807 205.857 73.0909C206.46 73.2955 207.107 73.3977 207.8 73.3977C208.607 73.3977 209.332 73.267 209.974 73.0057C210.616 72.7386 211.124 72.3693 211.499 71.8977C211.874 71.4205 212.062 70.8636 212.062 70.2273C212.062 69.6477 211.9 69.1761 211.576 68.8125C211.252 68.4489 210.826 68.1534 210.298 67.9261C209.769 67.6989 209.198 67.5 208.585 67.3295L206.437 66.7159C205.073 66.3239 203.994 65.7642 203.198 65.0369C202.403 64.3097 202.005 63.358 202.005 62.1818C202.005 61.2045 202.269 60.3523 202.798 59.625C203.332 58.892 204.048 58.3239 204.945 57.9205C205.849 57.5114 206.857 57.3068 207.971 57.3068C209.096 57.3068 210.096 57.5085 210.971 57.9119C211.846 58.3097 212.539 58.8551 213.05 59.5483C213.567 60.2415 213.84 61.0284 213.869 61.9091H211.823ZM216.628 59.4205V57.5455H229.719V59.4205H224.23V75H222.116V59.4205H216.628ZM246.982 66.2727C246.982 68.1136 246.649 69.7045 245.984 71.0455C245.32 72.3864 244.408 73.4205 243.249 74.1477C242.089 74.875 240.766 75.2386 239.277 75.2386C237.788 75.2386 236.464 74.875 235.305 74.1477C234.146 73.4205 233.234 72.3864 232.57 71.0455C231.905 69.7045 231.572 68.1136 231.572 66.2727C231.572 64.4318 231.905 62.8409 232.57 61.5C233.234 60.1591 234.146 59.125 235.305 58.3977C236.464 57.6705 237.788 57.3068 239.277 57.3068C240.766 57.3068 242.089 57.6705 243.249 58.3977C244.408 59.125 245.32 60.1591 245.984 61.5C246.649 62.8409 246.982 64.4318 246.982 66.2727ZM244.936 66.2727C244.936 64.7614 244.683 63.4858 244.178 62.446C243.678 61.4062 242.999 60.6193 242.141 60.0852C241.288 59.5511 240.334 59.2841 239.277 59.2841C238.22 59.2841 237.263 59.5511 236.405 60.0852C235.553 60.6193 234.874 61.4062 234.368 62.446C233.868 63.4858 233.618 64.7614 233.618 66.2727C233.618 67.7841 233.868 69.0597 234.368 70.0994C234.874 71.1392 235.553 71.9261 236.405 72.4602C237.263 72.9943 238.22 73.2614 239.277 73.2614C240.334 73.2614 241.288 72.9943 242.141 72.4602C242.999 71.9261 243.678 71.1392 244.178 70.0994C244.683 69.0597 244.936 67.7841 244.936 66.2727ZM250.536 75V57.5455H256.433C257.797 57.5455 258.916 57.7784 259.791 58.2443C260.666 58.7045 261.314 59.3381 261.734 60.1449C262.155 60.9517 262.365 61.8693 262.365 62.8977C262.365 63.9261 262.155 64.8381 261.734 65.6335C261.314 66.429 260.669 67.054 259.8 67.5085C258.93 67.9574 257.82 68.1818 256.467 68.1818H251.695V66.2727H256.399C257.331 66.2727 258.081 66.1364 258.649 65.8636C259.223 65.5909 259.638 65.2045 259.893 64.7045C260.155 64.1989 260.286 63.5966 260.286 62.8977C260.286 62.1989 260.155 61.5881 259.893 61.0653C259.632 60.5426 259.214 60.1392 258.641 59.8551C258.067 59.5653 257.308 59.4205 256.365 59.4205H252.649V75H250.536ZM258.751 67.1591L263.047 75H260.592L256.365 67.1591H258.751ZM266.603 75H264.387L270.796 57.5455H272.978L279.387 75H277.171L271.955 60.3068H271.819L266.603 75ZM267.421 68.1818H276.353V70.0568H267.421V68.1818ZM293.217 63C293.03 62.4261 292.783 61.9119 292.476 61.4574C292.175 60.9972 291.814 60.6051 291.393 60.2812C290.979 59.9574 290.507 59.7102 289.979 59.5398C289.45 59.3693 288.871 59.2841 288.24 59.2841C287.206 59.2841 286.266 59.5511 285.419 60.0852C284.572 60.6193 283.899 61.4062 283.399 62.446C282.899 63.4858 282.649 64.7614 282.649 66.2727C282.649 67.7841 282.902 69.0597 283.408 70.0994C283.913 71.1392 284.598 71.9261 285.462 72.4602C286.325 72.9943 287.297 73.2614 288.376 73.2614C289.376 73.2614 290.257 73.0483 291.018 72.6222C291.786 72.1903 292.382 71.5824 292.808 70.7983C293.24 70.0085 293.456 69.0795 293.456 68.0114L294.104 68.1477H288.854V66.2727H295.501V68.1477C295.501 69.5852 295.195 70.8352 294.581 71.8977C293.973 72.9602 293.132 73.7841 292.058 74.3693C290.99 74.9489 289.763 75.2386 288.376 75.2386C286.831 75.2386 285.473 74.875 284.303 74.1477C283.138 73.4205 282.229 72.3864 281.575 71.0455C280.928 69.7045 280.604 68.1136 280.604 66.2727C280.604 64.892 280.788 63.6506 281.158 62.5483C281.533 61.4403 282.061 60.4972 282.743 59.7188C283.425 58.9403 284.232 58.3438 285.163 57.929C286.095 57.5142 287.121 57.3068 288.24 57.3068C289.161 57.3068 290.018 57.446 290.814 57.7244C291.615 57.9972 292.328 58.3864 292.953 58.892C293.584 59.392 294.109 59.9915 294.53 60.6903C294.95 61.3835 295.24 62.1534 295.399 63H293.217ZM299.121 75V57.5455H309.656V59.4205H301.235V65.3182H309.11V67.1932H301.235V73.125H309.792V75H299.121ZM172.659 88.4205V86.5455H185.75V88.4205H180.261V104H178.148V88.4205H172.659ZM187.689 104H185.473L191.882 86.5455H194.064L200.473 104H198.257L193.041 89.3068H192.905L187.689 104ZM188.507 97.1818H197.439V99.0568H188.507V97.1818ZM217.033 86.5455V104H214.987L205.476 90.2955H205.305V104H203.192V86.5455H205.237L214.783 100.284H214.953V86.5455H217.033ZM221.262 104V86.5455H223.376V95.2045H223.58L231.421 86.5455H234.183L226.853 94.4205L234.183 104H231.626L225.558 95.8864L223.376 98.3409V104H221.262Z" fill="#828282"/>
<path d="M54.3898 360.014L36.9356 360.114L36.9017 354.217C36.8938 352.853 37.1204 351.732 37.5812 350.855C38.0364 349.977 38.6662 349.326 39.4706 348.901C40.275 348.476 41.1914 348.26 42.2198 348.254C43.2482 348.248 44.1613 348.453 44.9592 348.869C45.757 349.285 46.3857 349.926 46.8452 350.793C47.2991 351.66 47.5299 352.769 47.5377 354.121L47.5651 358.894L45.656 358.905L45.629 354.201C45.6237 353.269 45.483 352.52 45.207 351.953C44.931 351.381 44.5422 350.968 44.0408 350.715C43.5336 350.457 42.9306 350.33 42.2317 350.334C41.5329 350.338 40.9229 350.472 40.4016 350.736C39.8804 351.001 39.4794 351.421 39.1986 351.996C38.9122 352.572 38.7716 353.331 38.777 354.274L38.7984 357.99L54.3777 357.9L54.3898 360.014ZM46.5018 351.843L54.3179 347.503L54.332 349.957L46.5156 354.23L46.5018 351.843ZM45.4899 329.986C47.3308 329.975 48.9236 330.298 50.2683 330.956C51.613 331.613 52.6523 332.519 53.3862 333.673C54.1201 334.828 54.4914 336.15 54.4999 337.639C54.5085 339.127 54.1524 340.453 53.4318 341.617C52.7112 342.78 51.6824 343.698 50.3453 344.37C49.0083 345.043 47.4193 345.384 45.5784 345.395C43.7375 345.405 42.1447 345.082 40.8 344.425C39.4553 343.768 38.416 342.862 37.6821 341.707C36.9482 340.552 36.5769 339.23 36.5684 337.742C36.5598 336.253 36.9159 334.927 37.6365 333.764C38.3571 332.601 39.3859 331.683 40.723 331.01C42.06 330.338 43.649 329.996 45.4899 329.986ZM45.5016 332.031C43.9903 332.04 42.7162 332.3 41.6794 332.812C40.6425 333.318 39.8595 334.001 39.3303 334.862C38.8011 335.718 38.5396 336.674 38.5456 337.73C38.5517 338.787 38.8242 339.743 39.3633 340.598C39.9022 341.447 40.6931 342.122 41.7357 342.621C42.7783 343.115 44.0553 343.358 45.5667 343.349C47.078 343.341 48.3521 343.083 49.389 342.577C50.4259 342.066 51.2089 341.382 51.7381 340.527C52.2672 339.666 52.5288 338.707 52.5227 337.65C52.5166 336.593 52.2441 335.64 51.7051 334.791C51.1661 333.936 50.3753 333.262 49.3326 332.768C48.29 332.268 47.013 332.023 45.5016 332.031ZM45.3849 311.705C47.2258 311.694 48.8185 312.018 50.1633 312.675C51.508 313.332 52.5473 314.238 53.2812 315.393C54.0151 316.547 54.3863 317.869 54.3949 319.358C54.4035 320.846 54.0474 322.172 53.3268 323.336C52.6062 324.499 51.5774 325.417 50.2403 326.089C48.9033 326.762 47.3143 327.103 45.4734 327.114C43.6325 327.124 42.0397 326.801 40.695 326.144C39.3503 325.487 38.311 324.581 37.5771 323.426C36.8432 322.271 36.4719 320.949 36.4634 319.461C36.4548 317.972 36.8108 316.646 37.5315 315.483C38.2521 314.32 39.2809 313.402 40.618 312.729C41.955 312.057 43.544 311.715 45.3849 311.705ZM45.3966 313.75C43.8853 313.759 42.6112 314.019 41.5743 314.531C40.5375 315.037 39.7544 315.72 39.2253 316.581C38.6961 317.437 38.4345 318.393 38.4406 319.449C38.4467 320.506 38.7192 321.462 39.2582 322.317C39.7972 323.166 40.588 323.841 41.6307 324.34C42.6733 324.834 43.9503 325.077 45.4616 325.068C46.973 325.06 48.2471 324.802 49.284 324.296C50.3208 323.785 51.1039 323.101 51.633 322.246C52.1622 321.385 52.4237 320.426 52.4177 319.369C52.4116 318.312 52.1391 317.359 51.6001 316.51C51.0611 315.655 50.2703 314.981 49.2276 314.487C48.185 313.987 46.908 313.742 45.3966 313.75ZM54.0916 308.101L36.6373 308.201L36.5772 297.735L38.4522 297.725L38.5002 306.077L44.3978 306.043L44.3543 298.475L46.2293 298.464L46.2728 306.032L54.0794 305.987L54.0916 308.101ZM38.3981 288.309L36.5231 288.32L36.4479 275.229L38.3229 275.219L38.3544 280.707L53.9337 280.618L53.9458 282.731L38.3666 282.821L38.3981 288.309ZM45.0759 257.917C46.9168 257.906 48.5095 258.229 49.8542 258.886C51.199 259.543 52.2383 260.449 52.9722 261.604C53.7061 262.759 54.0773 264.081 54.0859 265.57C54.0944 267.058 53.7384 268.384 53.0178 269.547C52.2972 270.711 51.2684 271.629 49.9313 272.301C48.5942 272.973 47.0053 273.315 45.1644 273.326C43.3235 273.336 41.7307 273.013 40.386 272.356C39.0413 271.699 38.002 270.793 37.2681 269.638C36.5342 268.483 36.1629 267.161 36.1544 265.673C36.1458 264.184 36.5018 262.858 37.2224 261.695C37.943 260.532 38.9719 259.614 40.309 258.941C41.646 258.269 43.235 257.927 45.0759 257.917ZM45.0876 259.962C43.5763 259.971 42.3022 260.231 41.2653 260.743C40.2285 261.249 39.4454 261.932 38.9163 262.793C38.3871 263.648 38.1255 264.604 38.1316 265.661C38.1377 266.718 38.4102 267.674 38.9492 268.529C39.4882 269.378 40.279 270.052 41.3217 270.552C42.3643 271.046 43.6413 271.289 45.1526 271.28C46.664 271.271 47.9381 271.014 48.975 270.508C50.0118 269.997 50.7948 269.313 51.324 268.458C51.8532 267.597 52.1147 266.638 52.1087 265.581C52.1026 264.524 51.8301 263.571 51.2911 262.722C50.7521 261.867 49.9613 261.193 48.9186 260.699C47.876 260.199 46.599 259.953 45.0876 259.962ZM53.7826 254.313L36.3283 254.413L36.2944 248.515C36.2866 247.146 36.5273 246.025 37.0166 245.153C37.5002 244.275 38.1584 243.624 38.9912 243.199C39.824 242.773 40.7546 242.558 41.783 242.552C42.8114 242.546 43.7472 242.751 44.5906 243.166C45.4338 243.576 46.108 244.215 46.613 245.081C47.1123 245.947 47.3658 247.06 47.3736 248.418L47.3979 252.645L45.5229 252.656L45.499 248.497C45.4937 247.559 45.3274 246.807 45.0003 246.241C44.6732 245.674 44.2333 245.265 43.6807 245.013C43.1224 244.754 42.4938 244.627 41.795 244.631C41.0961 244.635 40.4719 244.77 39.9222 245.034C39.3726 245.293 38.9431 245.71 38.6339 246.286C38.3191 246.862 38.1644 247.624 38.1698 248.573L38.1912 252.289L53.7704 252.199L53.7826 254.313ZM43.9502 225.157L45.8251 225.146L45.869 232.782L43.994 232.793L43.9502 225.157ZM36.0203 200.799L53.4746 200.699L53.4863 202.745L39.8367 212.335L39.8376 212.505L53.542 212.426L53.5541 214.54L36.0998 214.64L36.0881 212.595L49.7717 202.97L49.7707 202.8L36.0323 202.879L36.0203 200.799ZM44.6386 181.793C46.4794 181.782 48.0722 182.106 49.4169 182.763C50.7616 183.42 51.8009 184.326 52.5349 185.481C53.2688 186.636 53.64 187.957 53.6486 189.446C53.6571 190.934 53.3011 192.26 52.5805 193.424C51.8599 194.587 50.8311 195.505 49.494 196.177C48.1569 196.85 46.568 197.191 44.7271 197.202C42.8862 197.212 41.2934 196.889 39.9487 196.232C38.604 195.575 37.5647 194.669 36.8308 193.514C36.0968 192.359 35.7256 191.037 35.7171 189.549C35.7085 188.06 36.0645 186.734 36.7851 185.571C37.5057 184.408 38.5346 183.49 39.8716 182.818C41.2087 182.145 42.7977 181.804 44.6386 181.793ZM44.6503 183.838C43.139 183.847 41.8649 184.107 40.828 184.619C39.7911 185.125 39.0081 185.808 38.479 186.669C37.9498 187.525 37.6882 188.481 37.6943 189.538C37.7004 190.594 37.9729 191.55 38.5119 192.405C39.0509 193.254 39.8417 193.929 40.8844 194.428C41.927 194.922 43.204 195.165 44.7153 195.156C46.2267 195.148 47.5008 194.89 48.5377 194.384C49.5745 193.873 50.3575 193.189 50.8867 192.334C51.4159 191.473 51.6774 190.514 51.6713 189.457C51.6653 188.4 51.3927 187.447 50.8538 186.598C50.3148 185.743 49.5239 185.069 48.4813 184.575C47.4386 184.075 46.1616 183.83 44.6503 183.838ZM53.3453 178.189L35.891 178.289L35.8571 172.392C35.8493 171.028 36.0758 169.907 36.5367 169.03C36.9919 168.152 37.6217 167.501 38.4261 167.076C39.2305 166.65 40.1468 166.435 41.1752 166.429C42.2036 166.423 43.1168 166.628 43.9146 167.044C44.7125 167.46 45.3412 168.101 45.8007 168.968C46.2545 169.835 46.4854 170.944 46.4931 172.296L46.5205 177.069L44.6115 177.08L44.5845 172.375C44.5791 171.444 44.4384 170.694 44.1624 170.128C43.8864 169.556 43.4977 169.143 42.9962 168.89C42.489 168.632 41.886 168.505 41.1872 168.509C40.4883 168.513 39.8783 168.647 39.3571 168.911C38.8359 169.176 38.4349 169.595 38.1541 170.171C37.8676 170.746 37.7271 171.506 37.7325 172.449L37.7538 176.165L53.3331 176.075L53.3453 178.189ZM45.4573 170.018L53.2734 165.678L53.2875 168.132L45.471 172.404L45.4573 170.018ZM37.6833 163.882L35.8083 163.892L35.7331 150.802L37.6081 150.791L37.6396 156.279L53.2189 156.19L53.231 158.304L37.6517 158.393L37.6833 163.882ZM53.1686 147.439L35.7144 147.54L35.7022 145.426L43.4748 145.381L43.4213 136.075L35.6487 136.119L35.6366 134.006L53.0909 133.906L53.103 136.019L45.2963 136.064L45.3498 145.371L53.1565 145.326L53.1686 147.439Z" fill="#828282"/>
<path d="M127.83 485.545L133.011 500.239H133.216L138.398 485.545H140.614L134.205 503H132.023L125.614 485.545H127.83ZM157.239 494.273C157.239 496.114 156.907 497.705 156.242 499.045C155.577 500.386 154.665 501.42 153.506 502.148C152.347 502.875 151.023 503.239 149.535 503.239C148.046 503.239 146.722 502.875 145.563 502.148C144.404 501.42 143.492 500.386 142.827 499.045C142.163 497.705 141.83 496.114 141.83 494.273C141.83 492.432 142.163 490.841 142.827 489.5C143.492 488.159 144.404 487.125 145.563 486.398C146.722 485.67 148.046 485.307 149.535 485.307C151.023 485.307 152.347 485.67 153.506 486.398C154.665 487.125 155.577 488.159 156.242 489.5C156.907 490.841 157.239 492.432 157.239 494.273ZM155.194 494.273C155.194 492.761 154.941 491.486 154.435 490.446C153.935 489.406 153.256 488.619 152.398 488.085C151.546 487.551 150.592 487.284 149.535 487.284C148.478 487.284 147.521 487.551 146.663 488.085C145.81 488.619 145.131 489.406 144.626 490.446C144.126 491.486 143.876 492.761 143.876 494.273C143.876 495.784 144.126 497.06 144.626 498.099C145.131 499.139 145.81 499.926 146.663 500.46C147.521 500.994 148.478 501.261 149.535 501.261C150.592 501.261 151.546 500.994 152.398 500.46C153.256 499.926 153.935 499.139 154.435 498.099C154.941 497.06 155.194 495.784 155.194 494.273ZM160.793 503V485.545H162.907V501.125H171.021V503H160.793ZM175.487 500.767C175.066 500.767 174.705 500.616 174.404 500.315C174.103 500.014 173.952 499.653 173.952 499.233C173.952 498.812 174.103 498.452 174.404 498.151C174.705 497.849 175.066 497.699 175.487 497.699C175.907 497.699 176.268 497.849 176.569 498.151C176.87 498.452 177.021 498.812 177.021 499.233C177.021 499.511 176.95 499.767 176.808 500C176.671 500.233 176.487 500.42 176.254 500.562C176.026 500.699 175.771 500.767 175.487 500.767ZM175.487 491.938C175.066 491.938 174.705 491.787 174.404 491.486C174.103 491.185 173.952 490.824 173.952 490.403C173.952 489.983 174.103 489.622 174.404 489.321C174.705 489.02 175.066 488.869 175.487 488.869C175.907 488.869 176.268 489.02 176.569 489.321C176.87 489.622 177.021 489.983 177.021 490.403C177.021 490.682 176.95 490.938 176.808 491.17C176.671 491.403 176.487 491.591 176.254 491.733C176.026 491.869 175.771 491.938 175.487 491.938ZM187.891 503L195.698 487.557V487.42H186.698V485.545H197.88V487.523L190.107 503H187.891ZM206.375 503.239C205.091 503.239 203.997 502.889 203.094 502.19C202.19 501.486 201.5 500.466 201.023 499.131C200.545 497.79 200.307 496.17 200.307 494.273C200.307 492.386 200.545 490.776 201.023 489.44C201.506 488.099 202.199 487.077 203.102 486.372C204.011 485.662 205.102 485.307 206.375 485.307C207.648 485.307 208.736 485.662 209.639 486.372C210.548 487.077 211.241 488.099 211.719 489.44C212.202 490.776 212.443 492.386 212.443 494.273C212.443 496.17 212.205 497.79 211.727 499.131C211.25 500.466 210.56 501.486 209.656 502.19C208.753 502.889 207.659 503.239 206.375 503.239ZM206.375 501.364C207.648 501.364 208.636 500.75 209.341 499.523C210.045 498.295 210.398 496.545 210.398 494.273C210.398 492.761 210.236 491.474 209.912 490.412C209.594 489.349 209.134 488.54 208.531 487.983C207.935 487.426 207.216 487.148 206.375 487.148C205.114 487.148 204.128 487.77 203.418 489.014C202.707 490.253 202.352 492.006 202.352 494.273C202.352 495.784 202.511 497.068 202.83 498.125C203.148 499.182 203.605 499.986 204.202 500.537C204.804 501.088 205.528 501.364 206.375 501.364ZM222.739 503V485.545H224.852V494.205H225.057L232.898 485.545H235.659L228.33 493.42L235.659 503H233.102L227.034 494.886L224.852 497.341V503H222.739ZM249.506 491C249.319 490.426 249.072 489.912 248.765 489.457C248.464 488.997 248.103 488.605 247.683 488.281C247.268 487.957 246.796 487.71 246.268 487.54C245.739 487.369 245.16 487.284 244.529 487.284C243.495 487.284 242.555 487.551 241.708 488.085C240.862 488.619 240.188 489.406 239.688 490.446C239.188 491.486 238.938 492.761 238.938 494.273C238.938 495.784 239.191 497.06 239.697 498.099C240.202 499.139 240.887 499.926 241.751 500.46C242.614 500.994 243.586 501.261 244.665 501.261C245.665 501.261 246.546 501.048 247.308 500.622C248.075 500.19 248.671 499.582 249.097 498.798C249.529 498.009 249.745 497.08 249.745 496.011L250.393 496.148H245.143V494.273H251.79V496.148C251.79 497.585 251.484 498.835 250.87 499.898C250.262 500.96 249.421 501.784 248.347 502.369C247.279 502.949 246.052 503.239 244.665 503.239C243.12 503.239 241.762 502.875 240.592 502.148C239.427 501.42 238.518 500.386 237.864 499.045C237.217 497.705 236.893 496.114 236.893 494.273C236.893 492.892 237.077 491.651 237.447 490.548C237.822 489.44 238.35 488.497 239.032 487.719C239.714 486.94 240.521 486.344 241.452 485.929C242.384 485.514 243.41 485.307 244.529 485.307C245.45 485.307 246.308 485.446 247.103 485.724C247.904 485.997 248.617 486.386 249.242 486.892C249.873 487.392 250.398 487.991 250.819 488.69C251.239 489.384 251.529 490.153 251.688 491H249.506ZM255.587 503H253.371L259.781 485.545H261.962L268.371 503H266.156L260.94 488.307H260.803L255.587 503ZM256.406 496.182H265.337V498.057H256.406V496.182ZM271.09 503V485.545H273.204V501.125H281.317V503H271.09Z" fill="#828282"/>
<path d="M219.114 464V446.545H221.227V455.205H221.432L229.273 446.545H232.034L224.705 454.42L232.034 464H229.477L223.409 455.886L221.227 458.341V464H219.114ZM245.881 452C245.694 451.426 245.447 450.912 245.14 450.457C244.839 449.997 244.478 449.605 244.058 449.281C243.643 448.957 243.171 448.71 242.643 448.54C242.114 448.369 241.535 448.284 240.904 448.284C239.87 448.284 238.93 448.551 238.083 449.085C237.237 449.619 236.563 450.406 236.063 451.446C235.563 452.486 235.313 453.761 235.313 455.273C235.313 456.784 235.566 458.06 236.072 459.099C236.577 460.139 237.262 460.926 238.126 461.46C238.989 461.994 239.961 462.261 241.04 462.261C242.04 462.261 242.921 462.048 243.683 461.622C244.45 461.19 245.046 460.582 245.472 459.798C245.904 459.009 246.12 458.08 246.12 457.011L246.768 457.148H241.518V455.273H248.165V457.148C248.165 458.585 247.859 459.835 247.245 460.898C246.637 461.96 245.796 462.784 244.722 463.369C243.654 463.949 242.427 464.239 241.04 464.239C239.495 464.239 238.137 463.875 236.967 463.148C235.802 462.42 234.893 461.386 234.239 460.045C233.592 458.705 233.268 457.114 233.268 455.273C233.268 453.892 233.452 452.651 233.822 451.548C234.197 450.44 234.725 449.497 235.407 448.719C236.089 447.94 236.896 447.344 237.827 446.929C238.759 446.514 239.785 446.307 240.904 446.307C241.825 446.307 242.683 446.446 243.478 446.724C244.279 446.997 244.992 447.386 245.617 447.892C246.248 448.392 246.773 448.991 247.194 449.69C247.614 450.384 247.904 451.153 248.063 452H245.881ZM251.962 464H249.746L256.156 446.545H258.337L264.746 464H262.531L257.315 449.307H257.178L251.962 464ZM252.781 457.182H261.712V459.057H252.781V457.182ZM267.465 464V446.545H269.579V462.125H277.692V464H267.465Z" fill="#828282"/>
<path d="M230.114 149V131.545H232.227V147.125H240.341V149H230.114ZM242.689 131.545L247.871 146.239H248.075L253.257 131.545H255.473L249.064 149H246.882L240.473 131.545H242.689ZM258.192 149V131.545H260.305V147.125H268.419V149H258.192Z" fill="#828282"/>
<path d="M269 336V363H232V336H269Z" fill="#979797" stroke="black"/>
<path d="M269 194V336H232V194H269Z" fill="#B3B3B3" stroke="black"/>
<path d="M269 157V194H232V157H269Z" fill="#8C8C8C" stroke="black"/>
<path d="M232 363H269V393H232V363Z" fill="#828282" stroke="black"/>
<path d="M268.5 207.5V244.5H232.5V207.5H268.5Z" fill="#A0B6CD" stroke="#A0B6CD"/>
<path d="M280.5 226V212L269.561 218.183L280.5 226Z" fill="#D9D9D9"/>
<path d="M280.5 226V212L269.561 218.183L280.5 226Z" fill="white"/>
<path d="M269 218.5L269.561 218.183M269.561 218.183L280.5 212V226L269.561 218.183Z" stroke="white"/>
<path d="M152 243.428C157.521 246.352 161.638 247.522 168 246.787C177 245.747 182.5 235.031 191 223.834C199.5 212.637 211.5 212.077 211.5 212.077H235.5" stroke="#0000EE" stroke-width="6"/>
<rect x="211.5" y="202" width="18" height="20.1535" fill="#0000EE"/>
<rect x="206.5" y="207.599" width="5" height="11.1964" fill="#0000EE"/>
<defs>
<filter id="filter0_i_2064_59" x="0" y="0" width="387" height="518" filterUnits="userSpaceOnUse" color-interpolation-filters="sRGB">
<feFlood flood-opacity="0" result="BackgroundImageFix"/>
<feBlend mode="normal" in="SourceGraphic" in2="BackgroundImageFix" result="shape"/>
<feColorMatrix in="SourceAlpha" type="matrix" values="0 0 0 0 0 0 0 0 0 0 0 0 0 0 0 0 0 0 127 0" result="hardAlpha"/>
<feMorphology radius="7" operator="erode" in="SourceAlpha" result="effect1_innerShadow_2064_59"/>
<feOffset/>
<feGaussianBlur stdDeviation="8.15"/>
<feComposite in2="hardAlpha" operator="arithmetic" k2="-1" k3="1"/>
<feColorMatrix type="matrix" values="0 0 0 0 0 0 0 0 0 0 0 0 0 0 0 0 0 0 0.54 0"/>
<feBlend mode="normal" in2="shape" result="effect1_innerShadow_2064_59"/>
</filter>
</defs>
</svg>
