<svg width="124" height="121" viewBox="0 0 124 121" fill="none" xmlns="http://www.w3.org/2000/svg">
<rect x="1.5" y="1.5" width="121" height="118" fill="#848484" stroke="white" stroke-width="3"/>
<path d="M19.3068 34.4545H21.0682V44.0852C21.0682 45.0795 20.8338 45.9673 20.3651 46.7486C19.901 47.5251 19.2453 48.1383 18.3977 48.5881C17.5502 49.0331 16.5559 49.2557 15.4148 49.2557C14.2737 49.2557 13.2794 49.0331 12.4318 48.5881C11.5843 48.1383 10.9261 47.5251 10.4574 46.7486C9.99337 45.9673 9.76136 45.0795 9.76136 44.0852V34.4545H11.5227V43.9432C11.5227 44.6534 11.679 45.2855 11.9915 45.8395C12.304 46.3887 12.7491 46.822 13.3267 47.1392C13.9091 47.4517 14.6051 47.608 15.4148 47.608C16.2244 47.608 16.9205 47.4517 17.5028 47.1392C18.0852 46.822 18.5303 46.3887 18.8381 45.8395C19.1506 45.2855 19.3068 44.6534 19.3068 43.9432V34.4545ZM36.1197 34.4545V49H34.4151L26.489 37.5795H26.3469V49H24.5856V34.4545H26.2901L34.2447 45.9034H34.3867V34.4545H36.1197ZM41.4055 34.4545V49H39.6442V34.4545H41.4055ZM44.1417 36.017V34.4545H55.0508V36.017H50.4769V49H48.7156V36.017H44.1417ZM63.3942 49V34.4545H68.4794C69.4927 34.4545 70.3284 34.6297 70.9865 34.9801C71.6447 35.3258 72.1347 35.7921 72.4567 36.3793C72.7786 36.9616 72.9396 37.608 72.9396 38.3182C72.9396 38.9432 72.8284 39.4593 72.6058 39.8665C72.388 40.2737 72.0992 40.5956 71.7393 40.8324C71.3842 41.0691 70.9983 41.2443 70.5817 41.358V41.5C71.0268 41.5284 71.4742 41.6847 71.924 41.9688C72.3738 42.2528 72.7502 42.66 73.0533 43.1903C73.3563 43.7206 73.5078 44.3693 73.5078 45.1364C73.5078 45.8655 73.3421 46.5213 73.0107 47.1037C72.6792 47.6861 72.156 48.1477 71.4411 48.4886C70.7261 48.8295 69.7957 49 68.6499 49H63.3942ZM65.1555 47.4375H68.6499C69.8004 47.4375 70.6172 47.215 71.1001 46.7699C71.5878 46.3201 71.8317 45.7756 71.8317 45.1364C71.8317 44.6439 71.7062 44.1894 71.4553 43.7727C71.2043 43.3513 70.8468 43.0152 70.3828 42.7642C69.9188 42.5085 69.3696 42.3807 68.7351 42.3807H65.1555V47.4375ZM65.1555 40.8466H68.4226C68.9529 40.8466 69.4311 40.7424 69.8572 40.5341C70.2881 40.3258 70.629 40.0322 70.88 39.6534C71.1357 39.2746 71.2635 38.8295 71.2635 38.3182C71.2635 37.679 71.041 37.1368 70.5959 36.6918C70.1508 36.242 69.4453 36.017 68.4794 36.017H65.1555V40.8466Z" fill="black"/>
<rect x="87.5" y="87.5" width="20" height="17" fill="#D9D9D9" stroke="black"/>
<path d="M91.4091 90.3636H93.0909L97.0455 100.023H97.1818L101.136 90.3636H102.818V102H101.5V93.1591H101.386L97.75 102H96.4773L92.8409 93.1591H92.7273V102H91.4091V90.3636Z" fill="black"/>
<rect x="16.001" y="53" width="51" height="51" fill="#286E29" stroke="black" stroke-width="2"/>
<path d="M45.3362 74.2727C45.2368 73.4331 44.8335 72.7812 44.1265 72.3172C43.4194 71.8532 42.5521 71.6212 41.5247 71.6212C40.7734 71.6212 40.116 71.7427 39.5526 71.9858C38.9947 72.2288 38.5583 72.5631 38.2434 72.9884C37.9341 73.4137 37.7794 73.8971 37.7794 74.4384C37.7794 74.8914 37.8871 75.2809 38.1025 75.6068C38.3235 75.9272 38.6052 76.1951 38.9477 76.4105C39.2902 76.6204 39.6493 76.7944 40.0249 76.9325C40.4005 77.0651 40.7458 77.1728 41.0606 77.2557L42.7841 77.7197C43.226 77.8357 43.7177 77.9959 44.259 78.2003C44.8059 78.4047 45.3279 78.6836 45.8251 79.0372C46.3278 79.3852 46.7421 79.8326 47.068 80.3795C47.3939 80.9264 47.5568 81.5975 47.5568 82.393C47.5568 83.31 47.3166 84.1386 46.836 84.8788C46.3609 85.619 45.6649 86.2073 44.7479 86.6437C43.8364 87.0801 42.7289 87.2983 41.4252 87.2983C40.2099 87.2983 39.1576 87.1022 38.2683 86.71C37.3844 86.3178 36.6884 85.7709 36.1802 85.0694C35.6775 84.3678 35.393 83.553 35.3267 82.625H37.4479C37.5032 83.2658 37.7186 83.7961 38.0943 84.2159C38.4754 84.6302 38.956 84.9396 39.536 85.1439C40.1216 85.3428 40.7513 85.4422 41.4252 85.4422C42.2096 85.4422 42.9139 85.3152 43.5381 85.0611C44.1624 84.8015 44.6568 84.4424 45.0213 83.9839C45.3859 83.5199 45.5682 82.9785 45.5682 82.3598C45.5682 81.7964 45.4108 81.3379 45.0959 80.9844C44.781 80.6308 44.3667 80.3436 43.853 80.1226C43.3393 79.9017 42.7841 79.7083 42.1875 79.5426L40.0995 78.946C38.7737 78.5649 37.7241 78.0208 36.9508 77.3137C36.1774 76.6066 35.7907 75.6813 35.7907 74.5379C35.7907 73.5878 36.0476 72.7592 36.5613 72.0521C37.0806 71.3395 37.7766 70.7871 38.6494 70.3949C39.5277 69.9972 40.5082 69.7983 41.5909 69.7983C42.6847 69.7983 43.6569 69.9944 44.5076 70.3866C45.3583 70.7733 46.0322 71.3036 46.5294 71.9775C47.0321 72.6514 47.2972 73.4165 47.3248 74.2727H45.3362Z" fill="white"/>
<mask id="path-7-inside-1_2106_55" fill="white">
<path d="M23.2663 96.0578C27.8455 100.706 34.0837 103.345 40.6084 103.393C47.1331 103.442 53.41 100.897 58.0581 96.3177C62.7063 91.7385 65.345 85.5004 65.3937 78.9756C65.4424 72.4509 62.8972 66.1741 58.318 61.5259L40.7922 78.7919L23.2663 96.0578Z"/>
</mask>
<path d="M23.2663 96.0578C27.8455 100.706 34.0837 103.345 40.6084 103.393C47.1331 103.442 53.41 100.897 58.0581 96.3177C62.7063 91.7385 65.345 85.5004 65.3937 78.9756C65.4424 72.4509 62.8972 66.1741 58.318 61.5259L40.7922 78.7919L23.2663 96.0578Z" fill="#682E98" stroke="#682E98" stroke-width="8" mask="url(#path-7-inside-1_2106_55)"/>
<path d="M42.4235 90.8353C43.2618 91.7316 43.8244 92.6576 44.1114 93.6132C44.3983 94.5688 44.4252 95.4876 44.192 96.3695C43.9588 97.2515 43.4798 98.0314 42.755 98.7093C42.0301 99.3872 41.2199 99.813 40.3244 99.9867C39.4288 100.16 38.5139 100.072 37.5796 99.722C36.6453 99.3718 35.759 98.7485 34.9207 97.8522C34.0824 96.9558 33.5198 96.0299 33.2329 95.0742C32.9459 94.1186 32.919 93.1998 33.1522 92.3179C33.3854 91.436 33.8644 90.6561 34.5892 89.9782C35.3141 89.3003 36.1243 88.8745 37.0198 88.7008C37.9154 88.5271 38.8303 88.6153 39.7646 88.9655C40.6989 89.3156 41.5852 89.9389 42.4235 90.8353ZM41.4275 91.7667C40.7393 91.0308 40.0353 90.5249 39.3156 90.2489C38.5987 89.9703 37.9097 89.8963 37.2488 90.027C36.5906 90.155 36.0042 90.4597 35.4896 90.9409C34.9751 91.4222 34.6305 91.9882 34.456 92.6389C34.2842 93.2871 34.312 93.9794 34.5392 94.716C34.7693 95.4499 35.2284 96.1848 35.9167 96.9207C36.6049 97.6566 37.3075 98.1639 38.0244 98.4424C38.7441 98.7184 39.4331 98.7924 40.0913 98.6644C40.7522 98.5337 41.34 98.2278 41.8546 97.7465C42.3691 97.2653 42.7123 96.7006 42.8841 96.0524C43.0586 95.4017 43.0308 94.7093 42.8008 93.9754C42.5735 93.2388 42.1158 92.5026 41.4275 91.7667ZM46.8146 82.7454C46.3715 82.3715 45.8642 82.2339 45.2928 82.3327C44.7213 82.4315 44.1783 82.7215 43.6638 83.2028C43.2875 83.5547 43.0152 83.9234 42.8469 84.309C42.6813 84.6921 42.6193 85.0639 42.6608 85.4244C42.7051 85.7823 42.8541 86.0968 43.1076 86.3679C43.3198 86.5948 43.5561 86.7394 43.8167 86.8017C44.0774 86.8586 44.344 86.8609 44.6164 86.8083C44.8863 86.753 45.1476 86.672 45.4004 86.5652C45.6506 86.4557 45.874 86.3479 46.0705 86.2419L47.151 85.6671C47.4266 85.5182 47.7479 85.3681 48.1147 85.2169C48.4843 85.0631 48.8764 84.9584 49.291 84.9025C49.7058 84.8414 50.1228 84.8714 50.5422 84.9927C50.9616 85.1139 51.3576 85.3737 51.7301 85.7721C52.1596 86.2313 52.4274 86.7588 52.5334 87.3546C52.6422 87.9479 52.5692 88.5685 52.3143 89.2166C52.0623 89.862 51.6098 90.4901 50.9569 91.1007C50.3483 91.6699 49.7294 92.0646 49.1003 92.2847C48.4739 92.5023 47.8692 92.5544 47.2861 92.4411C46.7057 92.3252 46.1816 92.0504 45.7138 91.6167L46.7761 90.6231C47.1039 90.9182 47.4602 91.0829 47.8449 91.1172C48.2299 91.1461 48.6155 91.0759 49.0017 90.9066C49.3881 90.732 49.75 90.4868 50.0875 90.1712C50.4804 89.8037 50.7736 89.4102 50.9672 88.9906C51.1582 88.5682 51.2376 88.1568 51.2055 87.7564C51.1707 87.3533 51.0085 86.9968 50.7187 86.6869C50.4548 86.4047 50.1612 86.2489 49.8379 86.2193C49.5146 86.1897 49.1726 86.2399 48.8118 86.3699C48.451 86.4998 48.0824 86.663 47.706 86.8595L46.3808 87.5387C45.5383 87.9688 44.7579 88.1879 44.0394 88.196C43.3209 88.2041 42.6938 87.9218 42.1582 87.3492C41.7132 86.8733 41.4538 86.338 41.3799 85.7433C41.3061 85.1432 41.396 84.5406 41.6494 83.9353C41.903 83.3247 42.3009 82.7659 42.8431 82.2588C43.3909 81.7465 43.9697 81.3893 44.5794 81.1873C45.1866 80.9825 45.7725 80.9324 46.3371 81.0371C46.9045 81.1391 47.3957 81.3981 47.8105 81.814L46.8146 82.7454ZM54.2665 75.776C53.8234 75.4021 53.3162 75.2645 52.7447 75.3633C52.1733 75.4621 51.6303 75.7521 51.1157 76.2334C50.7395 76.5853 50.4672 76.954 50.2988 77.3397C50.1332 77.7227 50.0712 78.0945 50.1128 78.455C50.1571 78.8129 50.306 79.1274 50.5596 79.3985C50.7717 79.6254 51.0081 79.77 51.2686 79.8323C51.5294 79.8893 51.7959 79.8915 52.0684 79.839C52.3382 79.7837 52.5995 79.7026 52.8523 79.5959C53.1026 79.4863 53.3259 79.3785 53.5224 79.2726L54.6029 78.6977C54.8786 78.5488 55.1998 78.3988 55.5667 78.2476C55.9363 78.0938 56.3284 77.989 56.743 77.9332C57.1577 77.872 57.5748 77.902 57.9942 78.0233C58.4135 78.1445 58.8095 78.4043 59.1821 78.8027C59.6116 79.2619 59.8793 79.7894 59.9854 80.3853C60.0942 80.9785 60.0211 81.5991 59.7663 82.2472C59.5142 82.8927 59.0617 83.5207 58.4088 84.1313C57.8002 84.7005 57.1813 85.0952 56.5522 85.3154C55.9259 85.5329 55.3211 85.585 54.738 85.4717C54.1577 85.3558 53.6336 85.081 53.1657 84.6473L54.228 83.6537C54.5558 83.9488 54.9121 84.1135 55.2969 84.1478C55.6818 84.1767 56.0674 84.1066 56.4536 83.9373C56.84 83.7626 57.202 83.5174 57.5395 83.2018C57.9323 82.8344 58.2255 82.4408 58.4191 82.0212C58.6102 81.5988 58.6896 81.1874 58.6574 80.787C58.6227 80.3839 58.4604 80.0274 58.1706 79.7175C57.9067 79.4353 57.6131 79.2795 57.2898 79.2499C56.9665 79.2203 56.6245 79.2705 56.2637 79.4005C55.903 79.5304 55.5344 79.6936 55.158 79.8901L53.8328 80.5693C52.9903 80.9994 52.2098 81.2185 51.4913 81.2266C50.7728 81.2347 50.1458 80.9525 49.6102 80.3798C49.1652 79.9039 48.9057 79.3687 48.8318 78.7739C48.7581 78.1738 48.8479 77.5712 49.1013 76.9659C49.3549 76.3554 49.7528 75.7965 50.2951 75.2894C50.8428 74.7771 51.4216 74.4199 52.0313 74.2179C52.6385 74.0131 53.2244 73.963 53.789 74.0677C54.3565 74.1697 54.8476 74.4287 55.2625 74.8446L54.2665 75.776Z" fill="white"/>
<mask id="path-9-inside-2_2106_55" fill="white">
<path d="M23.3985 96.1892C18.7847 91.5754 16.1927 85.3177 16.1927 78.7928C16.1927 72.2679 18.7847 66.0102 23.3985 61.3964C28.0123 56.7826 34.27 54.1906 40.7949 54.1906C47.3198 54.1906 53.5775 56.7826 58.1913 61.3964L53.2155 66.3722C49.9214 63.078 45.4536 61.2274 40.7949 61.2274C36.1363 61.2274 31.6685 63.078 28.3743 66.3722C25.0802 69.6663 23.2295 74.1342 23.2295 78.7928C23.2295 83.4514 25.0802 87.9193 28.3743 91.2134L23.3985 96.1892Z"/>
</mask>
<path d="M23.3985 96.1892C18.7847 91.5754 16.1927 85.3177 16.1927 78.7928C16.1927 72.2679 18.7847 66.0102 23.3985 61.3964C28.0123 56.7826 34.27 54.1906 40.7949 54.1906C47.3198 54.1906 53.5775 56.7826 58.1913 61.3964L53.2155 66.3722C49.9214 63.078 45.4536 61.2274 40.7949 61.2274C36.1363 61.2274 31.6685 63.078 28.3743 66.3722C25.0802 69.6663 23.2295 74.1342 23.2295 78.7928C23.2295 83.4514 25.0802 87.9193 28.3743 91.2134L23.3985 96.1892Z" fill="#682E98" stroke="#682E98" stroke-width="8" mask="url(#path-9-inside-2_2106_55)"/>
</svg>
