<svg width="53" height="53" viewBox="0 0 53 53" fill="none" xmlns="http://www.w3.org/2000/svg">
<rect x="1" y="1" width="51" height="51" fill="#286E29" stroke="black" stroke-width="2"/>
<circle cx="27" cy="25" r="18" stroke="#682E98" stroke-width="4"/>
<path d="M30.3352 20.2727C30.2358 19.4331 29.8325 18.7812 29.1255 18.3172C28.4184 17.8532 27.5511 17.6212 26.5237 17.6212C25.7724 17.6212 25.1151 17.7427 24.5516 17.9858C23.9937 18.2288 23.5573 18.5631 23.2424 18.9884C22.9331 19.4137 22.7784 19.8971 22.7784 20.4384C22.7784 20.8914 22.8861 21.2809 23.1016 21.6068C23.3225 21.9272 23.6042 22.1951 23.9467 22.4105C24.2892 22.6204 24.6483 22.7944 25.0239 22.9325C25.3995 23.0651 25.7448 23.1728 26.0597 23.2557L27.7831 23.7197C28.2251 23.8357 28.7167 23.9959 29.2581 24.2003C29.8049 24.4047 30.3269 24.6836 30.8241 25.0372C31.3268 25.3852 31.7411 25.8326 32.067 26.3795C32.3929 26.9264 32.5559 27.5975 32.5559 28.393C32.5559 29.31 32.3156 30.1386 31.835 30.8788C31.3599 31.619 30.6639 32.2073 29.7469 32.6437C28.8355 33.0801 27.7279 33.2983 26.4242 33.2983C25.209 33.2983 24.1566 33.1022 23.2673 32.71C22.3834 32.3178 21.6874 31.7709 21.1792 31.0694C20.6765 30.3678 20.392 29.553 20.3258 28.625H22.447C22.5022 29.2658 22.7176 29.7961 23.0933 30.2159C23.4744 30.6302 23.955 30.9396 24.535 31.1439C25.1206 31.3428 25.7503 31.4422 26.4242 31.4422C27.2087 31.4422 27.913 31.3152 28.5372 31.0611C29.1614 30.8015 29.6558 30.4424 30.0204 29.9839C30.3849 29.5199 30.5672 28.9785 30.5672 28.3598C30.5672 27.7964 30.4098 27.3379 30.0949 26.9844C29.7801 26.6308 29.3658 26.3436 28.852 26.1226C28.3383 25.9017 27.7831 25.7083 27.1866 25.5426L25.0985 24.946C23.7727 24.5649 22.7232 24.0208 21.9498 23.3137C21.1765 22.6066 20.7898 21.6813 20.7898 20.5379C20.7898 19.5878 21.0466 18.7592 21.5604 18.0521C22.0796 17.3395 22.7756 16.7871 23.6484 16.3949C24.5268 15.9972 25.5073 15.7983 26.59 15.7983C27.6837 15.7983 28.6559 15.9944 29.5066 16.3866C30.3573 16.7733 31.0313 17.3036 31.5284 17.9775C32.0311 18.6514 32.2962 19.4165 32.3239 20.2727H30.3352Z" fill="white"/>
<line x1="13.1764" y1="39.1771" x2="44.1771" y2="11.8236" stroke="#6B2B9C" stroke-width="4" stroke-linecap="round"/>
</svg>
