<svg width="32" height="66" viewBox="0 0 32 66" fill="none" xmlns="http://www.w3.org/2000/svg">
<path d="M16.6738 65.4609L16.3704 40.9628M16.3704 40.9628L0.871583 41.1548L0.506246 11.657L31.0039 11.2793L31.3692 40.777L16.3704 40.9628Z" stroke="black"/>
<path d="M16.0722 35.8227C14.3763 35.8073 12.8802 35.3633 11.5841 34.4908C10.2965 33.6183 9.29307 32.4202 8.57388 30.8966C7.85477 29.3645 7.50424 27.6013 7.52229 25.6071C7.5405 23.5958 7.92297 21.8307 8.6697 20.3118C9.41651 18.7844 10.4415 17.6005 11.7446 16.76C13.0563 15.911 14.5601 15.4942 16.2561 15.5096C17.9521 15.5249 19.4438 15.9688 20.7314 16.8413C22.0191 17.7138 23.0224 18.9161 23.7415 20.4483C24.4692 21.9805 24.8239 23.7522 24.8057 25.7635C24.7876 27.7578 24.4052 29.5143 23.6585 31.0332C22.9118 32.5435 21.8826 33.7232 20.5709 34.5721C19.2677 35.4212 17.7682 35.838 16.0722 35.8227ZM16.0911 33.7389C17.4547 33.7513 18.6128 33.3953 19.5654 32.6709C20.518 31.9466 21.2427 30.9772 21.7395 29.7629C22.2448 28.5487 22.5041 27.2087 22.5174 25.7428C22.5307 24.277 22.2957 22.9282 21.8125 21.6965C21.3379 20.4649 20.6309 19.4741 19.6916 18.724C18.7524 17.974 17.6009 17.5929 16.2374 17.5805C14.8823 17.5682 13.7242 17.9285 12.7629 18.6613C11.8102 19.3942 11.0812 20.372 10.5758 21.5948C10.0789 22.8176 9.82382 24.1619 9.81055 25.6278C9.79728 27.0936 10.028 28.4381 10.5028 29.6612C10.986 30.8844 11.6973 31.8667 12.6367 32.6082C13.576 33.3497 14.7275 33.7266 16.0911 33.7389Z" fill="black"/>
</svg>
