<svg width="240" height="60" viewBox="0 0 240 60" fill="none" xmlns="http://www.w3.org/2000/svg">
<rect x="1.5" y="1.5" width="237" height="57" fill="#B3B3B3"/>
<rect x="1.5" y="1.5" width="237" height="57" stroke="url(#paint0_linear_2092_65)" stroke-opacity="0.41" stroke-width="3"/>
<path d="M80.7841 39L76.0114 21.5455H78.1591L81.8068 35.7614H81.9773L85.6932 21.5455H88.0795L91.7955 35.7614H91.9659L95.6136 21.5455H97.7614L92.9886 39H90.8068L86.9545 25.0909H86.8182L82.9659 39H80.7841ZM99.7514 39H97.5355L103.945 21.5455H106.126L112.536 39H110.32L105.104 24.3068H104.967L99.7514 39ZM100.57 32.1818H109.501V34.0568H100.57V32.1818ZM112.261 23.4205V21.5455H125.352V23.4205H119.863V39H117.749V23.4205H112.261ZM128.614 39V21.5455H139.148V23.4205H130.727V29.3182H138.602V31.1932H130.727V37.125H139.284V39H128.614ZM142.957 39V21.5455H148.855C150.219 21.5455 151.338 21.7784 152.213 22.2443C153.088 22.7045 153.736 23.3381 154.156 24.1449C154.577 24.9517 154.787 25.8693 154.787 26.8977C154.787 27.9261 154.577 28.8381 154.156 29.6335C153.736 30.429 153.091 31.054 152.222 31.5085C151.352 31.9574 150.241 32.1818 148.889 32.1818H144.116V30.2727H148.821C149.753 30.2727 150.503 30.1364 151.071 29.8636C151.645 29.5909 152.06 29.2045 152.315 28.7045C152.577 28.1989 152.707 27.5966 152.707 26.8977C152.707 26.1989 152.577 25.5881 152.315 25.0653C152.054 24.5426 151.636 24.1392 151.062 23.8551C150.489 23.5653 149.73 23.4205 148.787 23.4205H145.071V39H142.957ZM151.173 31.1591L155.469 39H153.014L148.787 31.1591H151.173Z" fill="#5D5D5D"/>
<path d="M234.5 37.5H205.5L220 56L234.5 37.5Z" fill="#848484"/>
<defs>
<linearGradient id="paint0_linear_2092_65" x1="1.5" y1="1.5" x2="90.9937" y2="263.617" gradientUnits="userSpaceOnUse">
<stop offset="0.134615" stop-color="white"/>
<stop offset="0.384615" stop-color="#797979"/>
</linearGradient>
</defs>
</svg>
