<svg width="23" height="9" viewBox="0 0 23 9" fill="none" xmlns="http://www.w3.org/2000/svg">
<path d="M3.23819 0.119407V8.84668H2.18137V1.22736H2.13024L-0.000443876 2.64213V1.56827L2.18137 0.119407H3.23819ZM8.59473 8.966C7.95268 8.966 7.40581 8.79128 6.9541 8.44185C6.5024 8.08958 6.15723 7.57963 5.91859 6.91202C5.67995 6.24157 5.56064 5.43191 5.56064 4.48304C5.56064 3.53986 5.67995 2.73446 5.91859 2.06685C6.16007 1.3964 6.50666 0.885032 6.95836 0.532759C7.41291 0.177645 7.95836 8.84533e-05 8.59473 8.84533e-05C9.23109 8.84533e-05 9.77512 0.177645 10.2268 0.532759C10.6814 0.885032 11.028 1.3964 11.2666 2.06685C11.5081 2.73446 11.6288 3.53986 11.6288 4.48304C11.6288 5.43191 11.5095 6.24157 11.2709 6.91202C11.0322 7.57963 10.6871 8.08958 10.2354 8.44185C9.78365 8.79128 9.23677 8.966 8.59473 8.966ZM8.59473 8.0285C9.23109 8.0285 9.72541 7.72168 10.0777 7.10804C10.43 6.49441 10.6061 5.61941 10.6061 4.48304C10.6061 3.72736 10.5251 3.0839 10.3632 2.55265C10.2041 2.0214 9.97399 1.61657 9.67285 1.33816C9.37456 1.05975 9.01518 0.920543 8.59473 0.920543C7.96404 0.920543 7.47115 1.23162 7.11603 1.85378C6.76092 2.4731 6.58336 3.34952 6.58336 4.48304C6.58336 5.23872 6.66291 5.88077 6.822 6.40918C6.98109 6.93759 7.20978 7.33958 7.50808 7.61515C7.80922 7.89071 8.17143 8.0285 8.59473 8.0285ZM13.6934 8.91486C13.4832 8.91486 13.3028 8.83958 13.1523 8.68901C13.0017 8.53844 12.9264 8.35804 12.9264 8.14782C12.9264 7.93759 13.0017 7.75719 13.1523 7.60662C13.3028 7.45605 13.4832 7.38077 13.6934 7.38077C13.9037 7.38077 14.0841 7.45605 14.2346 7.60662C14.3852 7.75719 14.4605 7.93759 14.4605 8.14782C14.4605 8.28702 14.425 8.41486 14.354 8.53134C14.2858 8.64782 14.1934 8.74157 14.077 8.81259C13.9633 8.88077 13.8355 8.91486 13.6934 8.91486ZM16.0436 7.05691V6.18759L19.8788 0.119407H20.5095V1.466H20.0834L17.1856 6.05123V6.11941H22.3504V7.05691H16.0436ZM20.1515 8.84668V6.7927V6.38787V0.119407H21.1572V8.84668H20.1515Z" fill="#0000EE"/>
</svg>
